<svg width="25" height="25" viewBox="0 0 25 25" fill="none" xmlns="http://www.w3.org/2000/svg">
<g clip-path="url(#clip0_136_1533)">
<path d="M23.6814 9.20718V8.51421H3.96447V9.20718C3.96447 9.54497 3.98206 9.87898 4.01551 10.2084H2.01578C1.08654 10.2084 1.08654 11.649 2.01578 11.649H4.28302C4.98981 14.4065 6.85546 16.6999 9.33547 17.974L7.52029 23.4777C7.40051 23.8413 7.59792 24.233 7.96152 24.353C8.03354 24.3764 8.10653 24.3878 8.17856 24.3878C8.46955 24.3878 8.74092 24.2032 8.83711 23.9117L9.61699 21.547H15.9479C15.8875 21.7731 15.8523 22.0091 15.8523 22.2536C15.8523 23.7679 17.0844 25 18.5986 25C20.1129 25 21.3445 23.7679 21.3445 22.2536C21.3445 20.7954 20.2012 19.6029 18.7646 19.5163L18.2637 17.9958C21.4723 16.3678 23.6814 13.0443 23.6814 9.20718ZM16.5484 17.2197C15.6916 17.5121 14.777 17.6791 13.8228 17.6791C12.8507 17.6791 11.9201 17.5062 11.0502 17.2035C10.6075 17.0496 10.1819 16.862 9.77583 16.64C7.33555 15.3058 5.6154 12.812 5.37825 9.89977H22.2668C22.0286 12.8296 20.2902 15.3373 17.8253 16.6651C17.4192 16.8845 16.9915 17.0685 16.5484 17.2197ZM19.9595 22.2536C19.9595 22.4458 19.9189 22.6282 19.8467 22.7938C19.6441 23.259 19.1888 23.586 18.6556 23.6082C18.6366 23.6095 18.6185 23.6141 18.5997 23.6141C17.8498 23.6141 17.2398 23.0037 17.2398 22.2537C17.2398 21.9943 17.3165 21.7538 17.4433 21.5471C17.5448 21.3815 17.6774 21.2367 17.8381 21.1284C18.0555 20.9804 18.3172 20.8938 18.5997 20.8938C18.6701 20.8938 18.7382 20.9046 18.8063 20.915C18.9787 20.9412 19.1389 21.0003 19.2837 21.0846C19.686 21.3214 19.9595 21.7541 19.9595 22.2536ZM17.3958 19.7893C17.1901 19.8898 16.9984 20.0143 16.8255 20.1611H10.0744L10.6158 18.5192C11.6227 18.8671 12.6987 19.0651 13.8225 19.0651C14.9282 19.0651 15.9891 18.8743 16.9826 18.5363L17.3958 19.7893Z" fill="black"/>
<path d="M19.3241 11.2853C18.6613 12.5083 17.7972 13.5515 16.6206 14.3086C16.2344 14.5571 16.218 14.9898 16.395 15.3007C16.575 15.6162 16.9534 15.8065 17.3478 15.5525C17.3749 15.5353 17.3992 15.5159 17.4259 15.4983C18.7673 14.6148 19.8033 13.4232 20.5676 12.0126C21.0107 11.1958 19.7662 10.4685 19.3241 11.2853Z" fill="black"/>
<path d="M10.3146 6.5576C10.5835 5.68249 10.5067 4.86114 10.2361 3.99666C9.90369 2.93584 9.35689 2.07504 10.0818 1.04603C10.6182 0.28471 9.36849 -0.434169 8.83755 0.318933C8.27287 1.12008 8.15376 1.93467 8.34305 2.88509C8.57266 4.03582 9.29869 4.95762 8.92485 6.17409C8.65174 7.06495 10.043 7.44276 10.3146 6.5576Z" fill="black"/>
<path d="M14.1573 6.5576C14.4261 5.68249 14.3495 4.86114 14.0788 3.99666C13.7467 2.93584 13.1998 2.07504 13.9245 1.04603C14.4609 0.28471 13.2111 -0.434169 12.6803 0.318933C12.1156 1.12008 11.9965 1.93467 12.186 2.88509C12.4154 4.03582 13.1411 4.95762 12.7676 6.17409C12.4942 7.06495 13.8852 7.44276 14.1573 6.5576Z" fill="black"/>
<path d="M16.0422 0.318934C15.4777 1.12008 15.3582 1.93467 15.5477 2.88509C15.7778 4.03582 16.5033 4.95762 16.1298 6.17409C15.8564 7.06495 17.247 7.44237 17.519 6.55712C17.7879 5.68201 17.7111 4.86065 17.44 3.99618C17.1079 2.93546 16.5611 2.07456 17.2857 1.04555C17.8226 0.284615 16.5727 -0.433684 16.0422 0.318934Z" fill="black"/>
</g>
<defs>
<clipPath id="clip0_136_1533">
<rect width="25" height="25" fill="white"/>
</clipPath>
</defs>
</svg>
