<?xml version="1.0" encoding="iso-8859-1"?>
<!-- Uploaded to: SVG Repo, www.svgrepo.com, Generator: SVG Repo Mixer Tools -->
<svg fill="#000000" height="800px" width="800px" version="1.1" id="Layer_1" xmlns="http://www.w3.org/2000/svg" xmlns:xlink="http://www.w3.org/1999/xlink" 
	 viewBox="0 0 512 512" xml:space="preserve">
<g>
	<g>
		<path d="M265.143,180.563V9.143C265.143,4.089,261.053,0,256,0h-82.286c-5.053,0-9.143,4.089-9.143,9.143V180.58
			c-38.554,14.982-64,51.848-64,93.759v27.375v128v73.143c0,5.053,4.089,9.143,9.143,9.143H320c5.053,0,9.143-4.089,9.143-9.143
			v-73.143v-128v-27.375C329.143,232.402,303.696,195.536,265.143,180.563z M182.857,18.286h64v27.429h-64V18.286z M310.857,493.714
			h-192v-54.857h192V493.714z M310.857,420.571h-192V310.857h192V420.571z M310.857,292.571h-192v-18.232
			c0-36.161,23.143-67.741,57.598-78.563c3.813-1.196,6.402-4.732,6.402-8.723V64h64v123.045c0,3.991,2.589,7.527,6.402,8.723
			c34.455,10.813,57.598,42.384,57.598,78.571V292.571z"/>
	</g>
</g>
<g>
	<g>
		<path d="M347.429,180.563V9.143c0-5.054-4.089-9.143-9.143-9.143h-36.571c-5.053,0-9.143,4.089-9.143,9.143
			c0,5.053,4.089,9.143,9.143,9.143h27.429v27.429h-36.571V64h36.571v123.045c0,3.991,2.589,7.527,6.402,8.723
			c34.455,10.813,57.598,42.384,57.598,78.571v18.232h-27.429v18.286h27.429v109.714h-27.429v18.286h27.429v54.857h-36.571
			c-5.053,0-9.143,4.089-9.143,9.143c0,5.053,4.089,9.143,9.143,9.143h45.714c5.054,0,9.143-4.089,9.143-9.143V274.339
			C411.429,232.402,385.982,195.536,347.429,180.563z"/>
	</g>
</g>
<g>
	<g>
		<path d="M216.75,322.679c-3.571-3.571-9.357-3.571-12.928,0l-64,64c-3.571,3.571-3.571,9.357,0,12.928
			c1.786,1.786,4.125,2.679,6.464,2.679c2.339,0,4.679-0.893,6.464-2.679l64-64C220.321,332.036,220.321,326.25,216.75,322.679z"/>
	</g>
</g>
<g>
	<g>
		<path d="M289.893,322.679c-3.571-3.571-9.357-3.571-12.928,0l-64,64c-3.571,3.571-3.571,9.357,0,12.928
			c1.786,1.786,4.125,2.679,6.464,2.679c2.339,0,4.679-0.893,6.464-2.679l64-64C293.464,332.036,293.464,326.25,289.893,322.679z"/>
	</g>
</g>
</svg>