<svg width="25" height="25" viewBox="0 0 25 25" fill="none" xmlns="http://www.w3.org/2000/svg">
<path d="M22.225 11.375C21.9167 9.94167 21.325 8.575 20.4833 7.36667L20.7083 7.14167C21.125 7.36667 21.6 7.5 22.0833 7.5C23.6917 7.5 25 6.19167 25 4.58333C25 3.36667 24.2417 2.29167 23.1333 1.86667C22.7083 0.758333 21.6333 0 20.4167 0C18.8083 0 17.5 1.30833 17.5 2.91667C17.5 3.4 17.6333 3.875 17.8583 4.29167L17.6417 4.50833C15.775 3.20833 13.5333 2.5 11.25 2.5C5.05 2.5 0 7.55 0 13.75C0 15.2 0.283333 16.6 0.825 17.9333C0.325 18.3167 0 18.9083 0 19.5833C0 20.7333 0.933333 21.6667 2.08333 21.6667H2.99167L5.10833 23.7833C5.89167 24.5667 6.93333 25 8.05 25H16.9583C18.075 25 19.1167 24.5667 19.9083 23.7833L22.0083 21.6667H22.9167C24.0667 21.6667 25 20.7333 25 19.5833C25 19.0333 24.7833 18.5333 24.4333 18.1583C24.8083 17.45 25 16.6583 25 15.8333C25 13.9333 23.9 12.2083 22.225 11.375ZM11.25 4.16667C13.1 4.16667 14.9083 4.70833 16.45 5.70833L15.7167 6.44167C14.9917 6.04167 14.1833 5.83333 13.3333 5.83333C10.575 5.83333 8.33333 8.075 8.33333 10.8333C8.33333 11.2917 8.70833 11.6667 9.16667 11.6667C9.625 11.6667 10 11.2917 10 10.8333C10 8.99167 11.4917 7.5 13.3333 7.5C13.725 7.5 14.1 7.56667 14.4583 7.7L14.4083 7.75C14.0833 8.075 14.0833 8.6 14.4083 8.925C14.575 9.08333 14.7833 9.16667 15 9.16667C15.2167 9.16667 15.425 9.08333 15.5917 8.925L19.5333 4.98333C19.5833 4.93333 19.6083 4.875 19.6417 4.81667C19.6667 4.775 19.7 4.75 19.7167 4.70833C19.7417 4.65 19.7417 4.59167 19.75 4.53333C19.7583 4.48333 19.775 4.44167 19.775 4.39167C19.775 4.33333 19.7583 4.28333 19.7417 4.225C19.7333 4.175 19.7333 4.125 19.7083 4.075C19.6917 4.025 19.65 3.99167 19.625 3.95C19.5917 3.9 19.5667 3.85 19.525 3.8C19.3 3.56667 19.1667 3.25 19.1667 2.91667C19.1667 2.225 19.725 1.66667 20.4167 1.66667C21.0167 1.66667 21.5333 2.1 21.65 2.69167V2.7C21.6667 2.76667 21.6917 2.81667 21.725 2.88333C21.7417 2.925 21.75 2.96667 21.775 3.00833C21.7917 3.03333 21.8167 3.04167 21.8333 3.06667C21.8833 3.125 21.9333 3.19167 22 3.23333C22.0167 3.24167 22.0333 3.25 22.05 3.25833C22.125 3.3 22.2083 3.34167 22.3 3.35833H22.3083C22.9 3.46667 23.3333 3.98333 23.3333 4.58333C23.3333 5.275 22.775 5.83333 22.0833 5.83333C21.75 5.83333 21.4333 5.7 21.2 5.46667C21.1667 5.43333 21.1333 5.425 21.0917 5.4C20.95 5.29167 20.7833 5.225 20.6083 5.225C20.4333 5.225 20.275 5.29167 20.125 5.4C20.0917 5.425 20.05 5.44167 20.0167 5.46667L16.075 9.40833C15.75 9.73333 15.75 10.2583 16.075 10.5833C16.2417 10.75 16.45 10.8333 16.6667 10.8333C16.6667 11.5583 16.4333 12.25 15.9917 12.8417C15.8 13.0917 15.5833 13.3083 15.3333 13.5C14.9667 13.775 14.8917 14.3 15.175 14.6667C15.3417 14.8833 15.5917 15 15.8417 15C16.0167 15 16.1917 14.9417 16.3417 14.8333C16.7083 14.5583 17.0417 14.225 17.325 13.85C17.9833 12.9583 18.3333 11.925 18.3333 10.8333C18.3333 10.4417 18.2667 10.05 18.175 9.66667L19.2833 8.55833C19.9833 9.63333 20.4667 10.8333 20.6833 12.0917C20.6917 12.1333 20.7083 12.1583 20.725 12.2C20.7417 12.2417 20.75 12.2917 20.775 12.3333C20.8 12.3917 20.8417 12.4333 20.875 12.4833C20.9 12.5167 20.925 12.55 20.95 12.575C21.0083 12.6333 21.0833 12.675 21.1583 12.7083C21.175 12.7167 21.1833 12.7333 21.2083 12.7417C22.4833 13.2167 23.3333 14.4667 23.3333 15.8333C23.3333 16.4333 23.175 17 22.8833 17.5H2.44167C1.94167 16.3083 1.66667 15.05 1.66667 13.75C1.66667 8.46667 5.96667 4.16667 11.25 4.16667Z" fill="black"/>
</svg>
