<svg width="25" height="25" viewBox="0 0 25 25" fill="none" xmlns="http://www.w3.org/2000/svg">
<g clip-path="url(#clip0_136_1526)">
<path d="M14.4417 3.59111H14.4422C14.4426 3.59111 14.4432 3.59072 14.4437 3.59072L14.4417 3.59111Z" fill="black"/>
<path d="M23.8233 13.3443C23.9309 13.0282 24.1483 12.3758 24.3689 11.6252C24.5229 11.1011 24.6776 10.5328 24.7958 9.99902C24.9133 9.46245 24.9981 8.97256 25 8.54741C24.999 8.38169 24.9883 8.22402 24.9402 8.05185C24.9153 7.96577 24.8801 7.87412 24.8195 7.77915C24.7598 7.68501 24.6697 7.58525 24.548 7.51284C24.3777 7.41069 24.1965 7.37891 24.0433 7.3793C23.8027 7.38169 23.6041 7.44404 23.4047 7.52407C23.0596 7.66728 22.7107 7.88608 22.3438 8.14912C21.7968 8.54414 21.2229 9.04126 20.7152 9.52759C20.3868 9.84292 20.095 10.1466 19.8506 10.4242C18.036 9.36309 16.4132 8.57231 15.6558 8.21675C15.6841 8.06792 15.716 7.89419 15.7479 7.69946C15.8436 7.11382 15.9416 6.3665 15.9422 5.67143C15.9396 5.22378 15.908 4.80142 15.7638 4.40684C15.6894 4.21055 15.5816 4.01103 15.3941 3.84287C15.2104 3.67314 14.933 3.56494 14.6699 3.56938C14.5933 3.56938 14.5171 3.577 14.4423 3.59106C14.0176 3.66987 13.5769 3.84487 13.0971 4.07974C11.6965 4.7728 9.96553 6.0229 8.43662 7.21753C6.68193 7.70503 4.78843 8.52759 3.22837 9.53599C2.43013 10.0529 1.71904 10.6176 1.15952 11.2261C0.602393 11.8347 0.184912 12.4916 0.0318848 13.2192L0 13.3729L0.0456543 13.5233C0.421729 14.7626 1.22617 15.8076 2.25161 16.6876C3.7938 18.0085 5.84976 18.9896 7.94858 19.7454C10.0474 20.4992 12.1913 21.02 13.8995 21.372C14.0855 21.4102 14.2619 21.4307 14.4321 21.4307C14.6762 21.4307 14.9118 21.3877 15.1239 21.2895C15.4459 21.1443 15.6786 20.8676 15.7926 20.5925C15.9109 20.3149 15.942 20.0382 15.9431 19.7747C15.9415 19.2952 15.8333 18.8399 15.7319 18.4876C15.7271 18.4711 15.7227 18.4586 15.7181 18.443C16.4984 18.075 18.0813 17.2991 19.8493 16.2653C20.0028 16.4395 20.1757 16.6241 20.3662 16.8176C20.9021 17.3602 21.5576 17.9519 22.1869 18.4241C22.5026 18.6602 22.8105 18.8665 23.1078 19.0242C23.257 19.103 23.4036 19.1698 23.5548 19.2209C23.7065 19.2711 23.8627 19.3086 24.0434 19.3098C24.1964 19.3098 24.377 19.2784 24.5474 19.1767L24.5323 19.1859L24.5483 19.1763C24.67 19.1034 24.7599 19.0041 24.8196 18.9096C24.9098 18.7664 24.9459 18.6345 24.9699 18.5106C24.9926 18.3859 24.9999 18.2656 25 18.1417C24.9982 17.7166 24.9134 17.2263 24.7959 16.6897C24.5095 15.4005 24.0073 13.885 23.8233 13.3443ZM23.0214 17.5046C22.5448 17.1566 22.0121 16.6949 21.5483 16.2484C21.0854 15.8036 20.6847 15.3647 20.4832 15.0944L20.1487 14.6488L19.6711 14.9356C18.3637 15.7199 17.1171 16.376 16.2001 16.8345C15.7414 17.0642 15.365 17.2439 15.104 17.3662C14.9737 17.4278 14.8722 17.4744 14.8036 17.5054C14.735 17.5368 14.7012 17.5516 14.7012 17.5516L14.1505 17.7966L14.3816 18.3532L14.3834 18.3581C14.3981 18.3939 14.4832 18.6095 14.5614 18.8886C14.6405 19.1662 14.709 19.5121 14.7074 19.7748C14.7076 19.8765 14.6978 19.9646 14.6825 20.0273C14.6579 20.1251 14.6322 20.1492 14.6235 20.1565C14.6137 20.1621 14.5884 20.1923 14.4321 20.1951C14.3613 20.1951 14.2667 20.1862 14.1487 20.1621C12.469 19.8166 10.3622 19.3013 8.33569 18.5709C8.61968 18.3094 8.86582 18.0167 9.06836 17.696C9.55327 16.929 9.825 16.0309 9.98086 15.1069C10.1361 14.1822 10.1745 13.2277 10.1747 12.3404C10.1747 12.1127 9.99028 11.9285 9.76284 11.9285C9.53535 11.9285 9.35098 12.1127 9.35098 12.3404C9.35156 13.4908 9.28135 14.7292 8.98794 15.8015C8.84194 16.3377 8.64102 16.8316 8.37236 17.2556C8.12637 17.6433 7.82227 17.9703 7.44785 18.2333C7.09087 18.091 6.73789 17.9426 6.3938 17.7857C5.12095 17.2065 3.95894 16.5255 3.05649 15.75C2.204 15.0184 1.59321 14.2111 1.2853 13.3274C1.39751 12.946 1.65596 12.5101 2.06943 12.062C2.76245 11.305 3.84463 10.5383 5.06401 9.89155C6.28315 9.24316 7.64028 8.7082 8.88315 8.37397L9.00483 8.34136L9.104 8.26333C10.1162 7.46851 11.2302 6.64351 12.2403 5.99673C12.7449 5.67339 13.2236 5.39463 13.6436 5.18789C14.0274 4.99726 14.3611 4.87373 14.5988 4.82187C14.6209 4.87578 14.6479 4.96343 14.666 5.07729C14.693 5.23779 14.7068 5.44453 14.7066 5.67139C14.7072 6.24897 14.6191 6.9521 14.5287 7.49912C14.4836 7.77305 14.4385 8.00918 14.4048 8.17568C14.3879 8.25893 14.374 8.3249 14.3644 8.36953L14.3533 8.41977L14.3499 8.43511L14.2366 8.93061L14.7012 9.13696C14.7014 9.13735 14.735 9.15225 14.8036 9.18359C15.283 9.40161 17.3826 10.3802 19.6709 11.7534L20.1487 12.0402L20.4832 11.5946C20.6386 11.3862 20.9152 11.0737 21.2454 10.7395C21.7414 10.2367 22.366 9.67432 22.9279 9.25361C23.2081 9.04321 23.4735 8.86865 23.6855 8.75683C23.7106 8.74355 23.732 8.73389 23.7555 8.72266C23.736 8.98008 23.6776 9.33926 23.5896 9.73144C23.426 10.4708 23.1743 11.3291 22.9641 11.9964C22.8591 12.3303 22.7644 12.6175 22.6962 12.8201C22.6622 12.9215 22.6346 13.002 22.6157 13.0566C22.597 13.1113 22.5872 13.1391 22.5872 13.1395L22.5152 13.3442L22.5872 13.5489C22.5872 13.5493 22.6049 13.5996 22.6375 13.6949C22.7513 14.0275 23.0385 14.8863 23.2943 15.7978C23.4222 16.2531 23.5423 16.7217 23.6284 17.1388C23.6951 17.4578 23.7398 17.749 23.7565 17.9662C23.5584 17.8694 23.2998 17.7089 23.0214 17.5046Z" fill="black"/>
<path d="M4.8248 11.6663C4.29629 11.6663 3.86792 12.0946 3.86792 12.6228C3.86792 13.1517 4.29629 13.5801 4.8248 13.5801C5.35312 13.5801 5.78154 13.1517 5.78154 12.6228C5.78149 12.0946 5.35312 11.6663 4.8248 11.6663Z" fill="black"/>
</g>
<defs>
<clipPath id="clip0_136_1526">
<rect width="25" height="25" fill="white"/>
</clipPath>
</defs>
</svg>
