<svg width="25" height="21" viewBox="0 0 25 21" fill="none" xmlns="http://www.w3.org/2000/svg">
<path d="M20.8992 5.05095C20.8759 3.95953 19.9319 3.07159 18.7945 3.07159C18.7785 3.07159 18.7626 3.07173 18.7466 3.07206C18.7437 3.07213 18.7408 3.07219 18.7379 3.07233L18.2775 3.09015L18.1804 2.67792C17.966 1.76682 17.1025 1.10545 16.1269 1.10545C16.111 1.10545 16.095 1.10559 16.0789 1.10592C15.7462 1.113 15.4288 1.1925 15.1354 1.34224L14.6804 1.57442L14.445 1.12114C14.0859 0.4296 13.3638 1.51532e-05 12.5602 1.51532e-05C12.5437 1.51532e-05 12.5274 0.000148884 12.5107 0.000549429L12.5002 0.000816312L12.4894 0.000549429C11.6661 -0.0176086 10.9217 0.415514 10.5553 1.12114L10.3199 1.57456L9.86487 1.34231C9.57147 1.19264 9.25411 1.11313 8.92125 1.10599C8.9053 1.10565 8.88921 1.10552 8.87332 1.10552C7.89793 1.10552 7.03422 1.76682 6.8198 2.67799L6.7228 3.09008L6.24942 3.07199C6.23774 3.07179 6.22165 3.07159 6.20569 3.07159C5.06835 3.07159 4.1242 3.95953 4.10103 5.05088C4.09042 5.54689 4.26979 6.02835 4.60619 6.40653L5.22142 7.09814C5.27843 7.16222 5.36008 7.19887 5.44586 7.19887H5.47724C5.52263 7.19887 5.92231 7.21229 5.9932 7.67619C5.99741 7.70383 6.00335 7.74475 6.01116 7.79815C6.49041 11.1002 7.17288 13.4564 7.66107 14.8517C8.56731 17.442 10.1426 20.5297 12.5002 20.5297C14.8571 20.5297 16.432 17.4435 17.3382 14.8545C17.8264 13.4598 18.5091 11.1037 18.9891 7.79942C18.997 7.74542 19.003 7.70396 19.0072 7.67646C19.0783 7.21222 19.4781 7.19887 19.5233 7.19887H19.5546C19.6404 7.19887 19.7221 7.16222 19.779 7.09807L20.3941 6.40653C20.7304 6.02835 20.9098 5.54689 20.8992 5.05095Z" fill="#882727"/>
<path d="M4.63071 7.18332L4.33517 7.25028C3.33188 7.47765 1.42375 8.55405 0.279391 10.5875C-0.15086 11.3521 -0.0276262 12.2463 0.269044 12.7535C0.487675 13.1274 0.797563 13.3334 1.1415 13.3334C1.6335 13.3334 2.2199 12.9313 2.79268 12.2011C3.57921 11.1984 4.31621 9.63959 4.98305 7.56844C5.01617 7.4657 4.9916 7.35315 4.9187 7.27358C4.84593 7.19387 4.73599 7.15949 4.63071 7.18332Z" fill="#882727"/>
<path d="M24.7206 10.5875C23.5763 8.55412 21.6681 7.47772 20.6648 7.25027L20.3695 7.18332C20.264 7.15955 20.1543 7.19387 20.0816 7.27351C20.0086 7.35308 19.9841 7.46563 20.0171 7.56837C20.6839 9.63946 21.4208 11.198 22.2075 12.2009C22.7803 12.9311 23.3667 13.3333 23.8588 13.3334H23.8588C24.2028 13.3334 24.5127 13.1275 24.7312 12.7537C25.0278 12.2464 25.1509 11.3522 24.7206 10.5875Z" fill="#882727"/>
</svg>
