<svg width="25" height="25" viewBox="0 0 25 25" fill="none" xmlns="http://www.w3.org/2000/svg">
<g clip-path="url(#clip0_136_1451)">
<path d="M24.5824 15.834H0.417382C0.187402 15.834 0.000732422 16.0202 0.000732422 16.2506C0.000732422 21.0749 3.92548 25 8.75013 25H16.2496C21.0739 25 24.999 21.0749 24.999 16.2506C24.999 16.0202 24.8128 15.834 24.5824 15.834ZM16.2496 24.1667H8.75013C4.52499 24.1667 1.0623 20.8394 0.844823 16.6672H24.1549C23.9375 20.8394 20.4748 24.1667 16.2496 24.1667Z" fill="black"/>
<path d="M21.251 5.83715C21.251 5.80673 21.2506 5.77631 21.2477 5.73007C21.1835 5.0393 20.7086 4.47182 20.0815 4.25893L20.5531 3.7873C21.371 2.98613 21.4531 1.70454 20.7373 0.799612C19.9707 -0.131978 18.5891 -0.264498 17.6579 0.501712C17.605 0.545462 17.5537 0.591702 17.5025 0.642971L16.99 1.16294C16.775 0.539212 16.2063 0.0675819 15.5056 0.00259182C14.5827 -0.0477987 13.8015 0.660452 13.7519 1.57788C13.7503 1.6083 13.7498 1.63872 13.7498 1.6687V2.30742C13.5049 2.16533 13.2211 2.08369 12.9183 2.08325C12.8883 2.08325 12.8574 2.08408 12.8112 2.08657C11.9204 2.16948 11.2351 2.93486 11.25 3.82226V4.38891C11 4.24433 10.7151 4.16684 10.4185 4.1664C10.3885 4.1664 10.3581 4.16723 10.3118 4.16972C9.4206 4.25263 8.73525 5.01801 8.75024 5.90546V12.0842C8.75024 12.3146 8.93691 12.5009 9.16689 12.5009H16.2497C17.1688 12.5009 17.9163 11.7534 17.9158 10.8351C17.9158 10.5318 17.8346 10.2472 17.6921 10.0019H18.255C19.1499 10.0264 19.9153 9.33109 19.999 8.42406C20.017 8.0849 19.932 7.7641 19.7712 7.49164C20.1453 7.44999 20.4915 7.28456 20.7615 7.01542C21.0764 6.70126 21.2506 6.28295 21.251 5.83715ZM20.1731 6.42543C20.0156 6.58207 19.8069 6.66835 19.584 6.66835C19.5836 6.66835 19.5832 6.66835 19.5827 6.66835H18.3328C18.1024 6.66835 17.9162 6.85502 17.9162 7.085C17.9162 7.31498 18.1024 7.50165 18.3328 7.50165L18.3787 7.50292C18.8378 7.52748 19.1911 7.92079 19.1678 8.36327C19.1253 8.8224 18.7358 9.17782 18.262 9.1682H16.2497C16.0193 9.1682 15.833 9.35487 15.833 9.58485C15.833 9.81483 16.0193 10.0015 16.2497 10.0015C16.7093 10.0015 17.083 10.3752 17.083 10.8348C17.083 11.2944 16.7093 11.6681 16.2497 11.6681H9.58344V5.89838C9.57553 5.43715 9.92968 5.04262 10.3726 5.00092L10.418 4.99965C10.8767 5.00004 11.2496 5.37338 11.25 5.83168V5.83461C11.25 6.06459 11.4362 6.25126 11.6662 6.25126C11.6666 6.25126 11.6666 6.25126 11.6666 6.25126C11.8966 6.25126 12.0829 6.06503 12.0833 5.83505V5.83466V3.81518C12.0754 3.35395 12.4295 2.95942 12.8724 2.91772L12.9174 2.91645C13.3766 2.91728 13.7495 3.29057 13.7499 3.74931V3.7518C13.7499 3.98178 13.9361 4.16845 14.1661 4.16845C14.1665 4.16845 14.1665 4.16845 14.1665 4.16845C14.3965 4.16845 14.5827 3.98222 14.5832 3.75224V3.7518V1.66865L14.5845 1.62241C14.6086 1.16367 14.9928 0.810403 15.4444 0.833303C15.9044 0.876223 16.2581 1.27075 16.2493 1.73989V2.08569C16.2493 2.25444 16.3514 2.40693 16.5081 2.47109C16.6635 2.53525 16.8443 2.49858 16.9626 2.37778L18.0929 1.23076C18.1238 1.20034 18.1554 1.17158 18.1884 1.14453C18.765 0.670413 19.6195 0.752883 20.0895 1.32285C20.5344 1.88613 20.4832 2.6894 19.9674 3.19482L18.8717 4.29057C18.7525 4.40971 18.7167 4.58886 18.7812 4.74472C18.8454 4.90014 18.9979 5.0018 19.1662 5.0018H19.512C19.5207 5.0018 19.527 5.0018 19.5341 5.0018C19.989 5.0018 20.3757 5.35263 20.4165 5.79091L20.4177 5.83676C20.4173 6.05922 20.3306 6.26835 20.1731 6.42543Z" fill="black"/>
<path d="M18.0387 2.62272L6.37305 14.2884L6.96224 14.8776L18.6279 3.21191L18.0387 2.62272Z" fill="black"/>
<path d="M16.2488 3.3373H15.4155V5.42049H16.2488V3.3373Z" fill="black"/>
<path d="M13.7491 5.4205H12.9158V7.92035H13.7491V5.4205Z" fill="black"/>
<path d="M11.2493 7.4995H10.416V10.4159H11.2493V7.4995Z" fill="black"/>
<path d="M17.9155 5.00385H15.8323V5.8371H17.9155V5.00385Z" fill="black"/>
<path d="M15.8324 7.4995H13.3325V8.33275H15.8324V7.4995Z" fill="black"/>
<path d="M13.749 9.99934H10.8325V10.8326H13.749V9.99934Z" fill="black"/>
<path d="M7.77733 1.92739C7.77694 1.92656 7.77606 1.92573 7.77567 1.9249C7.18778 1.04453 5.99286 0.805375 5.11293 1.39326C5.08544 1.41118 5.05834 1.43032 5.02753 1.45327L4.87753 1.56743L4.73339 1.46367C3.97094 0.752494 2.77226 0.781254 2.04648 1.53452C1.69111 1.90283 1.50029 2.38779 1.50986 2.89985C1.51944 3.41191 1.72734 3.88935 2.09526 4.24433C2.20234 4.34765 2.32148 4.43847 2.4498 4.5143L2.80063 4.78847V5.0018C2.80063 6.15048 3.73515 7.085 4.88383 7.085C6.03251 7.085 6.96703 6.15004 6.96659 5.00141V4.78808L7.33534 4.50019C8.13314 3.89477 8.32689 2.76445 7.77733 1.92739ZM6.82699 3.84018L6.29369 4.25683C6.19286 4.33559 6.13368 4.45683 6.13368 4.58515V5.0018C6.13368 5.69091 5.57289 6.2517 4.88378 6.2517C4.19467 6.2517 3.63388 5.69091 3.63388 5.0018V4.58515C3.63388 4.45683 3.57514 4.33559 3.47387 4.25683L2.94057 3.84018C2.92475 3.82768 2.90766 3.81645 2.89018 3.80644C2.81186 3.76186 2.73935 3.70771 2.67436 3.64477C2.46606 3.44394 2.34854 3.17397 2.34312 2.88481C2.3377 2.59565 2.44561 2.32153 2.64643 2.11318C2.85849 1.89321 3.14223 1.78237 3.42636 1.78237C3.69717 1.78237 3.9684 1.88277 4.17841 2.08569C4.19257 2.09902 4.20756 2.11196 4.22382 2.12359L4.64047 2.42358C4.78881 2.53066 4.99003 2.52817 5.13588 2.41733L5.57504 2.08696C5.81669 1.92529 6.10624 1.86865 6.39125 1.9249C6.67538 1.98154 6.92079 2.14531 7.08202 2.38613C7.39115 2.85859 7.28114 3.49521 6.82699 3.84018Z" fill="black"/>
<path d="M9.99932 0.416656H9.16602V1.24991H9.99932V0.416656Z" fill="black"/>
<path d="M12.4993 13.7491H11.666V14.5824H12.4993V13.7491Z" fill="black"/>
<path d="M22.4993 2.50195V3.33525C22.9588 3.33525 23.3326 3.70898 23.3326 4.1685C23.3326 4.62802 22.9588 5.0018 22.4993 5.0018V5.83505C23.4184 5.83505 24.1658 5.08759 24.1658 4.1685C24.1658 3.24941 23.4184 2.50195 22.4993 2.50195Z" fill="black"/>
<path d="M1.6665 6.25375H0.833252V7.08705H1.6665V6.25375Z" fill="black"/>
<path d="M0.833983 4.5872H0.000732422V5.4205H0.833983V4.5872Z" fill="black"/>
<path d="M16.2498 13.3341C15.3307 13.3341 14.5833 14.0816 14.5833 15.0007H15.4166C15.4166 14.5411 15.7903 14.1674 16.2498 14.1674C16.7094 14.1674 17.0831 14.5411 17.0831 15.0007H17.9164C17.9164 14.0816 17.1689 13.3341 16.2498 13.3341Z" fill="black"/>
<path d="M5.00063 9.58436H4.94813C4.7623 8.86649 4.10942 8.33446 3.33408 8.33446C2.55874 8.33446 1.90542 8.86649 1.72002 9.58436H1.66753C0.748436 9.58436 0.000976562 10.3318 0.000976562 11.2509C0.000976562 12.17 0.748436 12.9175 1.66753 12.9175H5.00063C5.91972 12.9175 6.66717 12.17 6.66717 11.2509C6.66717 10.3318 5.91972 9.58436 5.00063 9.58436ZM5.00063 12.0846H1.66748C1.20791 12.0846 0.834178 11.7109 0.834178 11.2513C0.834178 10.7918 1.20791 10.418 1.66748 10.418H2.08413C2.31411 10.418 2.50078 10.2314 2.50078 10.0014C2.50078 9.54183 2.87451 9.16815 3.33408 9.16815C3.79365 9.16815 4.16738 9.54188 4.16738 10.0014C4.16738 10.2314 4.35404 10.418 4.58402 10.418H5.00067C5.46024 10.418 5.83397 10.7918 5.83397 11.2513C5.83388 11.7109 5.46015 12.0846 5.00063 12.0846Z" fill="black"/>
<path d="M4.16718 12.0842H2.50063C2.27065 12.0842 2.08398 12.2709 2.08398 12.5008V14.1674C2.08398 14.3978 2.27065 14.584 2.50063 14.584H4.16718C4.39716 14.584 4.58383 14.3978 4.58383 14.1674V12.5008C4.58383 12.2709 4.39716 12.0842 4.16718 12.0842ZM3.75053 13.7507H2.91728V12.9175H3.75058V13.7507H3.75053Z" fill="black"/>
<path d="M22.0827 10.8343C21.3936 10.8343 20.8328 11.3951 20.8328 12.0842C20.8328 12.7733 21.3936 13.3341 22.0827 13.3341C22.7718 13.3341 23.3326 12.7733 23.3326 12.0842C23.3326 11.3951 22.7718 10.8343 22.0827 10.8343ZM22.0827 12.5012C21.8527 12.5012 21.666 12.3142 21.666 12.0846C21.666 11.855 21.8527 11.6679 22.0827 11.6679C22.3126 11.6679 22.4993 11.8546 22.4993 12.0846C22.4993 12.3146 22.3126 12.5012 22.0827 12.5012Z" fill="black"/>
<path d="M22.0827 9.16776C20.4749 9.16776 19.1663 10.476 19.1663 12.0842C19.1663 13.6924 20.4749 15.0007 22.0827 15.0007C23.6905 15.0007 24.9992 13.6924 24.9992 12.0842C24.9992 10.476 23.6905 9.16776 22.0827 9.16776ZM22.0827 14.1678C20.934 14.1678 19.9995 13.2329 19.9995 12.0846C19.9995 10.9359 20.934 10.0014 22.0827 10.0014C23.2314 10.0014 24.1659 10.9359 24.1659 12.0846C24.1659 13.2333 23.2314 14.1678 22.0827 14.1678Z" fill="black"/>
</g>
<defs>
<clipPath id="clip0_136_1451">
<rect width="25" height="25" fill="white"/>
</clipPath>
</defs>
</svg>
