<svg width="341" height="269" viewBox="0 0 341 269" fill="none" xmlns="http://www.w3.org/2000/svg">
<path fill-rule="evenodd" clip-rule="evenodd" d="M0 55.7147V118.416H40.4947V55.7147L20.244 75.8467L0 55.7147Z" fill="#231F20"/>
<path fill-rule="evenodd" clip-rule="evenodd" d="M299.765 55.7147V118.416H340.26V55.7147L320.011 75.8467L299.765 55.7147Z" fill="#231F20"/>
<path d="M155.183 88.2106C157.099 88.5306 157.951 88.2106 157.629 87.0386C157.309 85.8666 151.771 85.016 148.575 85.1213C145.377 85.228 142.539 88.4266 143.781 90.024C145.273 91.94 148.683 89.7026 149.959 88.7453C151.237 87.7853 153.263 87.892 155.183 88.2106ZM142.396 95.4573C139.839 99.08 146.656 100.571 148.361 102.275C150.065 103.979 149.107 107.708 150.172 107.603C151.239 107.496 150.705 100.996 149.32 98.5453C147.935 96.096 143.396 94.0386 142.396 95.4573ZM126.52 98.3333C128.651 98.652 128.971 97.2666 128.544 96.308C128.12 95.3493 125.987 95.8826 124.388 95.244C122.792 94.604 122.847 92.8826 122.364 93.112C120.127 94.1786 124.388 98.0133 126.52 98.3333ZM207.12 188.786C206.427 186.5 205.765 184.678 204.749 184.362C203.779 182.557 202.265 181.553 200.869 177.362C199.156 172.22 200.356 168.105 198.468 168.278C196.583 168.445 193.841 168.445 193.669 169.647C193.669 169.647 193.667 175.133 197.612 179.248C200.169 181.917 202.287 184.36 203.465 185.756C203.237 188.404 204.737 194.013 204.263 196.459C203.64 199.655 203.364 202.292 204.263 202.662C205.159 203.035 207.601 200.855 207.52 198.297C207.44 195.74 207.919 191.425 207.12 188.786ZM103.56 74.04C104.517 73.72 102.123 70.684 99.5653 71.4826C97.008 72.2826 93.0133 78.516 101.481 82.5106C103.099 83.2733 104.839 83.1493 104.517 80.1133C104.197 77.0773 102.601 74.3586 103.56 74.04ZM160.135 140.084C160.135 140.084 169.101 137.647 169.085 126.62C169.072 119.731 161.747 117.585 161.747 117.585C164.481 120.697 164.771 122.624 164.609 128.836C164.451 135.047 160.135 140.084 160.135 140.084ZM143.96 144.264C137.44 148.274 129.129 150.592 129.129 150.592C129.129 150.592 141.596 157.144 150.864 150.753C160.135 144.36 153.901 126.62 153.901 126.62C153.901 126.62 153.421 138.445 143.96 144.264ZM210.156 192.384C208.88 193.983 209.359 196.617 208.239 199.735C207.12 202.852 209.437 202.852 210.156 202.662C210.877 202.474 212.473 196.459 212.075 194.941C211.675 193.423 211.151 191.141 210.156 192.384ZM226.208 195.923C224.689 196.002 225.489 199.117 225.489 201.386C225.489 203.655 224.771 205.511 224.609 206.631C224.451 207.748 228.205 204.39 228.367 201.278C228.525 198.16 227.601 195.849 226.208 195.923ZM215.197 181.278C213.689 181.436 215.672 186.229 216.071 188.548C216.471 190.866 216.071 192.384 215.197 195.899C214.331 199.414 213.916 203.378 214.643 204.019C215.372 204.657 217.268 198.696 218.708 194.86C220.145 191.024 219.825 187.748 219.585 185.832C219.347 183.914 216.951 181.092 215.197 181.278ZM217.617 176.111C214.312 173.553 211.117 171.423 209.025 169.185C206.935 166.945 206.271 165.048 205.044 165.881C202.38 167.693 207.068 171.423 210.796 174.404C214.528 177.389 219.853 181.649 221.132 184.371C222.411 187.092 222.197 190.386 221.984 194.756C221.771 199.123 220.011 202.164 220.437 203.785C220.864 205.409 223.58 198.909 223.796 196.138C224.008 193.368 225.18 187.19 224.328 184.207C223.473 181.224 220.919 178.666 217.617 176.111ZM250.893 155.761C253.732 147.021 256.184 137.753 254.265 124.861C252.349 111.969 245.104 103.979 239.883 98.864C234.661 93.752 219.427 84.8213 205.255 85.0773C191.083 85.3333 185.861 89.1706 179.899 90.236C173.932 91.3013 164.765 90.98 163.276 84.3746C163.276 84.3746 161.997 89.124 166.473 91.7026C170.948 94.2826 172.333 94.816 180.325 93.2173C188.315 91.62 200.14 84.588 215.804 89.7026C231.465 94.816 235.195 98.332 242.76 106.963C250.323 115.592 252.56 133.597 249.684 143.399C246.807 153.204 242.867 162.578 239.135 166.095C235.408 169.611 231.784 173.232 232.211 176.641C232.635 180.053 235.94 186.016 236.367 190.066C236.792 194.114 236.577 194.647 235.513 197.524C234.451 200.401 231.005 204.678 231.963 204.997C232.921 205.317 235.088 202.852 236.26 201.04C237.429 199.229 239.241 197.097 238.391 190.172C237.539 183.248 236.153 179.201 237.539 175.576C238.924 171.953 248.055 164.496 250.893 155.761ZM212.396 154.748C214.632 147.235 216.471 137.726 214.072 131.175C211.675 124.621 206.481 116.312 206.241 117.749C206.003 119.188 212.555 130.295 211.675 137.647C210.796 144.999 211.036 149.792 207.2 154.188C203.364 158.584 200.328 162.178 193.057 163.696C185.787 165.214 176.197 164.256 171.96 163.456C167.727 162.66 162.523 161.224 161.921 164.505C161.391 167.417 162.632 169.212 162.213 172.54C161.517 178.04 161.572 179.438 158.856 181.196C156.14 182.953 151.263 182.904 151.505 184.329C151.744 185.75 153.023 189.667 151.984 193.743C150.945 197.819 144.353 207.188 146.749 206.55C148.071 206.199 151.984 201.652 154.38 196.617C156.779 191.584 156.7 185.75 156.7 185.75C156.7 185.75 159.705 185.832 163.276 182.076C166.847 178.321 166.841 176.819 167.167 173.045C167.432 169.983 165.249 166.095 167.487 165.696C169.724 165.295 174.44 167.133 181.629 167.453C188.823 167.772 192.659 168.092 197.851 167.053C203.047 166.013 210.156 162.259 212.396 154.748ZM143.5 198.271C142.12 198.048 143.135 200.237 143.008 202.172C142.88 204.109 142.12 204.616 141.643 205.631C141.169 206.647 141.771 206.869 142.945 207.025C144.117 207.183 145.451 203.473 145.451 201.728C145.451 199.984 144.268 198.395 143.5 198.271ZM132.06 195.011C131.156 195.269 132.221 197.95 132.06 199.602C131.901 201.253 131.687 202.638 131.739 203.253C131.793 203.868 134.296 203.597 134.617 202.532C134.937 201.467 134.511 198.483 133.872 196.778C133.232 195.073 132.735 194.821 132.06 195.011ZM127.851 191.344C126.971 190.625 127.531 189.188 126.893 188.308C126.252 187.431 125.755 186.633 125.055 186.789C123.617 187.111 125.293 190.066 125.935 191.505C126.572 192.944 126.413 193.502 126.812 197.737C127.211 201.972 126.492 202.053 126.572 202.772C126.653 203.49 129.289 203.332 129.929 202.772C130.568 202.212 130.328 195.899 129.929 194.543C129.528 193.183 128.729 192.062 127.851 191.344ZM129.129 183.274C129.129 183.274 126.013 182.795 124.016 182.235C122.017 181.674 122.577 180.557 122.099 178.56C121.62 176.562 120.965 175.508 119.861 175.683C118.344 175.923 118.741 177.281 118.981 179.36C119.221 181.436 120.5 183.193 123.2 184.073C125.899 184.95 129.129 183.274 129.129 183.274ZM143.992 183.461C144.099 182.821 140.689 183.035 139.299 182.928C137.908 182.821 137.705 182.5 136.831 180.371C135.956 178.237 134.831 175.149 133.232 173.019C131.632 170.889 129.929 170.889 128.437 170.568C126.945 170.25 122.364 166.519 119.913 163.857C117.463 161.193 118.528 154.056 118.528 154.056C118.528 154.056 116.612 152.778 115.333 152.669C114.055 152.562 111.817 149.688 109.047 147.876C106.276 146.062 102.867 137.647 102.867 137.647C102.016 140.948 102.229 144.253 104.465 148.3C106.703 152.352 109.792 150.857 112.213 154.907C114.635 158.956 112.456 161.086 112.669 165.988C112.883 170.889 117.571 171.526 118.101 173.553C118.635 175.576 121.937 174.19 121.192 172.488C120.448 170.781 117.143 170.674 115.12 165.453C113.096 160.235 115.013 155.972 115.864 156.505C116.719 157.04 117.356 163.537 119.593 167.48C121.833 171.423 126.2 171.74 129.077 173.98C131.953 176.217 130.46 177.389 132.804 182.076C135.148 186.764 136.323 184.95 137.812 190.6C139.304 196.245 137.175 199.974 137.281 202.532C137.385 205.089 140.156 203.278 140.156 203.278C140.156 203.278 141.331 195.286 141.331 192.944C141.331 190.6 139.945 187.614 139.411 185.699C138.877 183.778 143.885 184.1 143.992 183.461ZM112.075 111.925C112.945 107.285 109.463 100.709 109.463 100.709C112.172 107.576 108.593 111.056 106.273 114.344C103.951 117.631 100.664 118.307 99.1173 125.753C97.5706 133.2 100.083 142.578 100.083 142.578C100.083 142.578 101.148 129.235 102.695 124.691C104.241 120.145 111.205 116.568 112.075 111.925ZM89.976 113.568C88.8013 113.78 83.476 114.207 82.0493 114.207C80.6226 114.207 80.812 112.396 79.64 112.531C78.4707 112.664 77.296 112.531 77.296 112.531C77.296 112.531 76.4453 110.692 76.1253 109.625C75.804 108.561 77.1893 107.495 79.32 106.729C81.4533 105.963 82.304 104.619 81.984 103.66C81.664 102.7 80.3853 102.807 79.32 103.66C78.2573 104.512 77.5106 104.725 75.9106 105.169C74.312 105.613 74.0707 108.784 73.888 110.479C73.612 113.059 77.296 113.675 79.0027 113.993C80.708 114.313 80.4947 115.807 82.304 116.703C84.1173 117.6 90.0826 115.379 91.68 116.703C93.2786 118.028 92.1067 119.001 91.8933 120.173C91.68 121.347 92.8506 121.665 92.8506 121.665C92.8506 121.665 93.9187 117.616 93.5987 115.697C93.2787 113.78 91.148 113.355 89.976 113.568ZM92.932 84.508C90.3747 84.668 87.5773 84.108 85.58 87.304C83.5826 90.5013 83.344 91.62 80.1453 94.3373C76.9506 97.0533 73.1147 98.812 72.2373 101.129C71.356 103.447 70.2386 104.884 71.516 105.604C72.2866 106.036 74.2347 105.444 74.2347 103.765C74.2347 102.087 74.632 100.595 77.1893 98.784C79.7467 96.9733 83.7413 93.8573 85.82 91.3013C87.8986 88.744 89.2546 87.784 91.4133 87.704C93.5706 87.6253 94.828 88.104 95.1587 87.0653C95.4893 86.0253 95.4893 84.3466 92.932 84.508ZM103.88 94.2573C106.197 93.4586 106.005 91.1066 106.981 90.884C107.956 90.6613 109.235 90.0226 108.593 89.7826C107.956 89.5413 106.117 89.3826 103.56 89.7826C101.003 90.18 100.044 91.3026 98.604 92.22C97.1667 93.1373 94.9947 93.3066 95.1693 94.0173C95.1693 94.0173 95.0107 94.976 95.888 94.896C96.768 94.816 98.684 93.5373 99.9627 93.6173C101.241 93.6973 101.563 95.0573 103.88 94.2573ZM121.219 104.405C121.539 105.444 124.148 105.231 126.361 104.884C128.572 104.539 131.183 102.568 131.687 100.783C132.192 98.9986 130.755 98.8373 129.904 98.7853C129.049 98.7333 128.839 100.729 128.359 101.263C127.88 101.796 127.265 102.487 126.068 103.021C124.869 103.553 123.112 103.631 122.525 103.685C121.94 103.74 120.968 103.591 121.219 104.405ZM134.364 112.396C134.323 112.835 136.737 112.105 137.385 111.517C138.252 110.732 138.997 109.719 139.197 107.561C139.399 105.404 139.317 102.807 138.799 101.683C138.279 100.559 136.888 99.324 135.443 100.209C134.203 100.969 134.309 101.552 134.683 102.568C135.096 103.685 136.755 104.233 136.864 105.791C136.973 107.349 136.921 107.761 136.572 109.439C136.224 111.117 134.404 111.956 134.364 112.396ZM151.596 76.516C151.052 76.1346 148.281 76.772 145.825 77.4426C143.367 78.112 142.093 79.7066 141.072 80.7586C140.052 81.812 138.968 84.556 140.752 85.0013C142.411 85.416 143.495 84.044 143.815 83.0866C144.132 82.1306 144.899 80.2173 146.271 79.26C147.64 78.3026 149.905 77.76 150.768 77.6653C151.627 77.5706 152.14 76.9 151.596 76.516ZM136.192 72.5626C137.052 72.0186 136.287 71.2226 135.555 71.5733C134.82 71.924 132.684 73.5186 131.951 74.9853C131.216 76.4533 128.435 81.9493 131.757 82.1613C133.003 82.2426 133.481 81.62 133.705 79.7693C133.927 77.9186 132.875 76.3786 133.672 75.168C134.468 73.9573 135.331 73.1053 136.192 72.5626ZM107.503 80.292C108.443 82.604 113.424 81.3026 114.796 79.6413C116.169 77.9813 121.247 74.556 124.331 73.0706C130.328 70.18 141.809 69.312 146.721 71.624C151.632 73.9333 157.916 80.436 159.003 86.1413C160.083 91.8493 159.072 98.42 155.749 104.127C152.427 109.832 145.565 112.505 141.593 113.372C137.62 114.239 131.339 113.588 126.208 111.205C121.077 108.821 117.904 105.065 118.479 98.7826C119.057 92.4973 121.296 90.8373 124.908 88.5973C128.52 86.3586 135.453 87.3693 136.683 88.7426C137.911 90.1146 138.416 92.7146 135.888 94.1586C133.359 95.604 132.276 93.58 130.541 93.944C128.807 94.304 130.109 97.3373 131.844 97.9866C134.445 98.9626 138.995 96.3986 139.643 93.148C140.292 89.8986 139.38 86.1706 133.937 85.0586C127.219 83.6853 120.14 88.308 118.336 90.3306C116.531 92.3546 112.708 98.5306 117.541 107.451C122.669 116.912 135.02 117.633 143.76 116.048C155.661 113.888 161.601 102.971 161.744 92.2826C161.891 81.592 156.979 74.1519 148.672 69.6746C140.364 65.1973 130.831 66.7853 126.932 68.0133C123.033 69.2426 117.976 71.7693 112.125 73.3586C106.273 74.948 106.563 77.9813 107.503 80.292ZM91.4973 82.9893C94.516 81.736 92.216 80.8613 91.7867 78.3026C91.4973 76.564 91.9813 75.4586 93.5987 72.8693C94.4533 71.5 96.58 70.312 99.0307 70.0986C101.484 69.8866 106.065 72.9746 109.367 72.9746C112.669 72.9746 113.627 70.9506 113.627 70.9506C113.627 70.9506 111.604 70.9506 108.94 70.9506C106.279 70.9506 104.677 69.352 102.549 68.5C100.416 67.648 98.924 66.4746 95.088 67.8613C91.2547 69.2466 89.336 73.4013 88.2707 76.2773C87.2053 79.1546 89.2053 83.9453 91.4973 82.9893Z" fill="#231F20"/>
<path d="M80.0333 29.0654L71.3933 28.6094L71.812 25.4641H88.1067V41.3041C87.2213 41.6841 86.1347 42.0614 84.8467 42.4401C83.5573 42.8201 82.156 43.1667 80.64 43.4827C79.1253 43.8001 77.5653 44.0574 75.96 44.2601C74.356 44.4614 72.796 44.5627 71.2813 44.5627C68.2493 44.5627 65.672 44.0761 63.5493 43.1041C61.4267 42.1308 59.7027 40.7547 58.3773 38.9734C57.052 37.1921 56.0853 35.0654 55.4787 32.5881C54.872 30.1134 54.5707 27.3587 54.5707 24.3267C54.5707 21.2974 55.088 18.5747 56.1227 16.1614C57.1587 13.7494 58.6173 11.6948 60.5 10.0041C62.38 8.31209 64.6347 7.01742 67.2627 6.12009C69.8907 5.22409 72.784 4.77474 75.9427 4.77474C76.724 4.77474 77.6014 4.80008 78.5747 4.85075C79.5467 4.90142 80.508 4.97608 81.456 5.07875C82.404 5.17875 83.2987 5.28675 84.1453 5.40009C84.992 5.51475 85.692 5.64542 86.2467 5.79741L84.8853 11.4441C84.2267 11.2427 83.4013 11.0334 82.404 10.8188C81.404 10.6041 80.356 10.4161 79.2573 10.2494C78.1587 10.0854 77.06 9.94808 75.96 9.83342C74.8613 9.72009 73.8827 9.66275 73.0227 9.66275C71.6093 9.66275 70.276 9.77075 69.0253 9.98409C67.776 10.2001 66.62 10.6974 65.56 11.4814C64.976 11.9121 64.5107 12.5801 64.156 13.4907C63.8013 14.3987 63.5253 15.4427 63.3227 16.6161C63.12 17.7907 62.9813 19.0547 62.9053 20.4067C62.8307 21.7574 62.792 23.0774 62.792 24.3667C62.792 29.5441 63.468 33.5107 64.82 36.2641C66.172 39.0187 68.312 40.3947 71.2414 40.3947C71.976 40.3947 72.752 40.3694 73.572 40.3174C74.3933 40.2681 75.2027 40.1921 75.9973 40.0921C76.7933 39.9907 77.5387 39.8894 78.2347 39.7881C78.9293 39.6881 79.528 39.5747 80.0333 39.4481V29.0654Z" fill="#231F20"/>
<path d="M114.063 5.0014L118.041 8.98006L114.063 12.9601L110.123 8.98006L114.063 5.0014ZM102.391 31.0361C102.391 34.4201 102.82 36.9161 103.68 38.5187C104.539 40.1241 105.965 40.9241 107.96 40.9241C108.744 40.9241 109.476 40.8641 110.159 40.7347C110.841 40.6094 111.408 40.4187 111.864 40.1667C112.143 40.0161 112.396 39.6681 112.623 39.1254C112.849 38.5827 113.039 37.9067 113.192 37.0974C113.344 36.2907 113.463 35.3694 113.552 34.3321C113.637 33.2961 113.683 32.2094 113.683 31.0721C113.683 27.7627 113.241 25.2894 112.356 23.6454C111.471 22.0041 110.057 21.1827 108.115 21.1827C107.38 21.1827 106.661 21.2521 105.953 21.3907C105.244 21.5307 104.615 21.7494 104.06 22.0534C103.755 22.2041 103.503 22.5534 103.301 23.0961C103.099 23.6401 102.927 24.3147 102.789 25.1241C102.648 25.9321 102.549 26.8467 102.487 27.8694C102.421 28.8947 102.391 29.9481 102.391 31.0361ZM101.823 5.0014L105.841 8.98006L101.823 12.9601L97.9186 8.98006L101.823 5.0014ZM108.036 44.5254C103.591 44.5254 100.192 43.3827 97.8439 41.0961C95.4946 38.8094 94.3199 35.4681 94.3199 31.0721C94.3199 29.0014 94.6093 27.1267 95.192 25.4454C95.7733 23.7654 96.6373 22.3454 97.7866 21.1827C98.9373 20.0214 100.369 19.1241 102.088 18.4921C103.807 17.8614 105.789 17.5454 108.036 17.5454C110.287 17.5454 112.263 17.8427 113.968 18.4347C115.675 19.0281 117.099 19.9014 118.249 21.0494C119.399 22.2001 120.265 23.6081 120.847 25.2747C121.427 26.9427 121.716 28.8494 121.716 30.9961C121.716 33.0934 121.427 34.9761 120.847 36.6427C120.265 38.3094 119.399 39.7307 118.249 40.9067C117.099 42.0801 115.675 42.9787 113.968 43.5961C112.263 44.2161 110.287 44.5254 108.036 44.5254Z" fill="#231F20"/>
<path d="M136.307 44.0332H128.539V1.51589L136.307 -0.000110626V25.6532C136.307 25.8039 136.307 26.0452 136.307 26.3732C136.307 26.7025 136.299 27.0439 136.287 27.3972C136.276 27.7519 136.263 28.0786 136.249 28.3812C136.237 28.6852 136.229 28.9132 136.229 29.0652C136.787 28.3812 137.424 27.6052 138.143 26.7346C138.864 25.8612 139.596 24.9972 140.344 24.1372C141.088 23.2799 141.793 22.4786 142.463 21.7306C143.132 20.9866 143.695 20.3999 144.151 19.9692C144.58 19.5666 144.984 19.2306 145.361 18.9666C145.741 18.6999 146.132 18.4786 146.536 18.3026C146.943 18.1252 147.377 17.9985 147.844 17.9239C148.312 17.8465 148.849 17.8092 149.456 17.8092C149.784 17.8092 150.143 17.8226 150.536 17.8466C150.927 17.8719 151.312 17.9119 151.692 17.9626C152.071 18.0132 152.424 18.0706 152.752 18.1306C153.08 18.1946 153.359 18.2639 153.585 18.3412V20.8799H153.435C152.375 20.8799 151.44 20.9559 150.629 21.1065C149.82 21.2572 149.065 21.5239 148.356 21.9026C147.648 22.2812 146.836 22.8945 145.913 23.7399C144.989 24.5865 144.075 25.4785 143.164 26.4119C143.571 27.1185 144.036 27.9706 144.568 28.9692C145.099 29.9679 145.667 31.0039 146.273 32.0759C146.88 33.1505 147.528 34.2119 148.224 35.2599C148.919 36.3079 149.637 37.2546 150.383 38.1012C151.129 38.9492 151.901 39.6306 152.695 40.1479C153.492 40.6666 154.304 40.9239 155.14 40.9239C155.265 40.9239 155.411 40.9185 155.575 40.9065C155.739 40.8932 155.883 40.8746 156.011 40.8492V43.2745C155.683 43.4252 155.265 43.5719 154.76 43.7092C154.255 43.8492 153.711 43.9745 153.129 44.0905C152.549 44.2025 151.968 44.2906 151.388 44.3546C150.807 44.4159 150.276 44.4492 149.796 44.4492C148.331 44.4492 147.049 44.0906 145.951 43.3692C144.851 42.6479 143.851 41.7025 142.956 40.5252C142.06 39.3519 141.219 38.0012 140.437 36.4732C139.653 34.9439 138.847 33.3839 138.013 31.7932L136.307 33.5359V44.0332Z" fill="#231F20"/>
<path d="M155.593 32.9294L155.973 27.7761H170.296L169.919 32.9294H155.593Z" fill="#231F20"/>
<path d="M181.48 24.0454C181.48 29.1854 181.984 32.9734 182.996 35.4054C184.007 37.8427 185.683 39.0587 188.031 39.0587C188.952 39.0587 189.812 38.9667 190.613 38.7707C191.416 38.5801 192.083 38.2921 192.62 37.9081C192.944 37.6787 193.24 37.1507 193.511 36.3281C193.777 35.5027 194 34.4761 194.179 33.2494C194.356 32.0241 194.5 30.6241 194.604 29.0507C194.705 27.4761 194.76 25.8281 194.76 24.1014C194.76 19.0774 194.239 15.3214 193.199 12.8254C192.159 10.3334 190.499 9.08807 188.211 9.08807C187.348 9.08807 186.503 9.19207 185.669 9.40407C184.836 9.61474 184.095 9.94806 183.44 10.4094C183.083 10.6387 182.789 11.1694 182.549 11.9921C182.312 12.8174 182.112 13.8427 181.948 15.0707C181.783 16.2974 181.668 17.6881 181.589 19.2401C181.516 20.7961 181.48 22.3947 181.48 24.0454ZM188.121 44.5254C182.891 44.5254 178.896 42.7907 176.133 39.3201C173.368 35.8481 171.991 30.7747 171.991 24.1014C171.991 20.9574 172.332 18.1121 173.015 15.5587C173.696 13.0081 174.713 10.8521 176.067 9.08807C177.42 7.32407 179.104 5.9614 181.125 5.00274C183.141 4.04407 185.476 3.5654 188.121 3.5654C190.764 3.5654 193.087 4.0174 195.093 4.91607C197.1 5.8174 198.775 7.14273 200.127 8.8854C201.477 10.6307 202.496 12.7694 203.179 15.3001C203.86 17.8321 204.207 20.7267 204.207 23.9867C204.207 27.1707 203.86 30.0281 203.179 32.5587C202.496 35.0894 201.477 37.2467 200.127 39.0307C198.775 40.8147 197.1 42.1761 195.093 43.1147C193.087 44.0574 190.764 44.5254 188.121 44.5254Z" fill="#231F20"/>
<path d="M220.04 34.5586C220.745 34.5586 221.335 34.5026 221.8 34.3879C222.267 34.2746 222.691 34.1039 223.071 33.8759C223.449 33.6492 223.759 32.9919 223.999 31.9066C224.237 30.8199 224.357 29.4293 224.357 27.7386C224.357 26.8026 224.264 25.9253 224.073 25.1053C223.884 24.2839 223.608 23.5706 223.24 22.9639C222.873 22.3573 222.412 21.8839 221.857 21.5412C221.3 21.1999 220.657 21.0306 219.925 21.0306C219.267 21.0306 218.72 21.0826 218.277 21.1826C217.835 21.2839 217.425 21.4613 217.045 21.7132C216.641 21.9906 216.319 22.6546 216.079 23.7026C215.837 24.7493 215.72 26.1466 215.72 27.8892C215.72 28.7999 215.813 29.6573 216.004 30.4666C216.191 31.2746 216.469 31.9813 216.837 32.5879C217.201 33.1946 217.652 33.6746 218.181 34.0279C218.712 34.3812 219.332 34.5586 220.04 34.5586ZM217.384 62.1079C215.567 62.1079 214.032 61.9559 212.783 61.6519C211.532 61.3506 210.515 60.9386 209.733 60.4213C208.949 59.9039 208.387 59.3026 208.045 58.6213C207.704 57.9399 207.532 57.2186 207.532 56.4626C207.532 55.8026 207.66 55.1972 207.912 54.6426C208.165 54.0866 208.519 53.5693 208.975 53.0879C209.428 52.6093 209.964 52.1532 210.584 51.7239C211.204 51.2959 211.892 50.8906 212.649 50.5119L214.507 50.9679C214.329 51.5226 214.209 52.0226 214.147 52.4639C214.081 52.9052 214.053 53.4052 214.053 53.9612C214.053 55.1226 214.475 56.0572 215.321 56.7639C216.168 57.4706 217.409 57.8252 219.053 57.8252C219.811 57.8252 220.569 57.7879 221.327 57.7119C222.084 57.6359 222.816 57.5279 223.524 57.3892C224.231 57.2519 224.884 57.0866 225.475 56.8972C226.069 56.7066 226.581 56.4999 227.012 56.2719C227.619 55.9439 228.004 55.4439 228.168 54.7746C228.329 54.1052 228.412 53.2906 228.412 52.3319C228.412 50.4106 226.379 49.4506 222.313 49.4506L217.991 49.4132C214.909 49.3879 212.663 48.9586 211.248 48.1239C209.832 47.2919 209.127 45.8893 209.127 43.9186C209.127 43.2613 209.269 42.6186 209.561 41.9866C209.849 41.3546 210.225 40.7426 210.681 40.1479C211.133 39.5559 211.631 38.9986 212.176 38.4799C212.72 37.9639 213.243 37.5026 213.748 37.0972C212.964 36.7453 212.225 36.2839 211.532 35.7146C210.837 35.1453 210.225 34.4826 209.693 33.7252C209.163 32.9679 208.74 32.1093 208.423 31.1479C208.108 30.1893 207.949 29.1532 207.949 28.0412C207.949 26.3999 208.245 24.9279 208.843 23.6279C209.433 22.3252 210.264 21.2266 211.324 20.3293C212.384 19.4333 213.639 18.7453 215.092 18.2639C216.548 17.7853 218.119 17.5452 219.811 17.5452C221.225 17.5452 222.477 17.6199 223.561 17.7706C224.649 17.9239 225.723 18.1373 226.783 18.4159C227.467 18.3906 228.185 18.3519 228.944 18.3026C229.701 18.2519 230.46 18.1893 231.217 18.1133C231.975 18.0359 232.707 17.9559 233.415 17.8666C234.124 17.7786 234.767 17.6719 235.348 17.5452L234.78 20.9159C234.196 21.1199 233.452 21.2772 232.543 21.3906C231.633 21.5052 230.813 21.5626 230.081 21.5626C230.433 22.1413 230.808 22.9373 231.199 23.9479C231.589 24.9586 231.785 26.2599 231.785 27.8519C231.785 29.4933 231.488 30.9466 230.897 32.2092C230.3 33.4732 229.48 34.5359 228.433 35.3932C227.384 36.2519 226.139 36.9026 224.699 37.3452C223.259 37.7866 221.681 38.0066 219.961 38.0066C219.404 38.0066 218.751 37.9866 217.991 37.9506C217.236 37.9133 216.641 37.8306 216.212 37.7039C216.009 38.0066 215.8 38.4239 215.587 38.9546C215.371 39.4839 215.264 40.0026 215.264 40.5079C215.264 41.1146 215.573 41.5252 216.191 41.7399C216.811 41.9546 217.904 42.0612 219.469 42.0612H225.647C227.516 42.0612 229.081 42.2066 230.345 42.4972C231.608 42.7879 232.631 43.2306 233.415 43.8239C234.196 44.4159 234.753 45.1692 235.081 46.0786C235.409 46.9879 235.576 48.0746 235.576 49.3386C235.576 50.8519 235.121 52.3746 234.212 53.9039C233.303 55.4319 232.037 56.8026 230.423 58.0132C228.803 59.2279 226.884 60.2119 224.663 60.9706C222.439 61.7293 220.015 62.1079 217.384 62.1079Z" fill="#231F20"/>
<path d="M247.525 18.1134V35.5068C247.525 37.0468 247.784 38.1854 248.299 38.9161C248.82 39.6494 249.697 40.0161 250.935 40.0161C251.391 40.0161 251.883 39.9588 252.411 39.8454C252.943 39.7308 253.487 39.5668 254.041 39.3521C254.596 39.1374 255.145 38.8974 255.689 38.6308C256.235 38.3668 256.719 38.0828 257.151 37.7801V18.1134H264.916V44.0334H257.984L257.263 41.0001H257.187C256.656 41.3294 256.013 41.7028 255.252 42.1188C254.497 42.5361 253.677 42.9281 252.792 43.2934C251.905 43.6601 250.992 43.9694 250.044 44.2214C249.096 44.4734 248.169 44.6001 247.26 44.6001C246.224 44.6001 245.252 44.4414 244.341 44.1268C243.432 43.8121 242.635 43.3308 241.953 42.6854C241.271 42.0428 240.737 41.2468 240.344 40.3014C239.953 39.3521 239.755 38.2348 239.755 36.9468V18.1134H247.525Z" fill="#231F20"/>
<path d="M272.724 18.5308C273.609 18.4548 274.82 18.3908 276.361 18.3414C277.904 18.2894 279.568 18.2454 281.364 18.2068C283.156 18.1708 284.981 18.1454 286.839 18.1308C288.695 18.1201 290.383 18.1134 291.899 18.1134V19.4761L279.205 40.5828C279.456 40.6094 279.849 40.6348 280.377 40.6601C280.908 40.6854 281.471 40.7041 282.065 40.7161C282.659 40.7294 283.235 40.7428 283.789 40.7548C284.344 40.7681 284.799 40.7734 285.153 40.7734C286.643 40.7734 287.856 40.6854 288.789 40.5081C289.727 40.3321 290.497 40.0974 291.104 39.8068C291.708 39.5174 292.2 39.1774 292.58 38.7841C292.959 38.3934 293.325 37.9814 293.68 37.5534L294.965 38.2721C294.689 38.8788 294.361 39.5481 293.981 40.2814C293.604 41.0134 293.085 41.7028 292.427 42.3468C291.771 42.9908 290.932 43.5254 289.908 43.9561C288.885 44.3854 287.591 44.6001 286.023 44.6001C285.292 44.6001 284.419 44.5881 283.408 44.5628C282.399 44.5374 281.351 44.4988 280.265 44.4494C279.18 44.3988 278.091 44.3548 277.008 44.3161C275.919 44.2788 274.908 44.2334 273.973 44.1841C273.039 44.1334 272.232 44.0948 271.549 44.0708C270.867 44.0441 270.388 44.0334 270.109 44.0334V42.4401L282.804 21.6361H282.309C281.276 21.6361 280.257 21.6494 279.26 21.6761C278.263 21.7001 277.323 21.7254 276.437 21.7494C275.552 21.7761 274.744 21.8134 274.013 21.8641C273.279 21.9161 272.648 21.9534 272.117 21.9788L272.724 18.5308Z" fill="#231F20"/>
<path fill-rule="evenodd" clip-rule="evenodd" d="M320.016 118.416C320.016 200.948 252.667 268.297 170.127 268.297C87.596 268.297 20.244 200.948 20.244 118.416V87.0614H60.7386V118.416C60.7386 178.595 109.945 227.8 170.127 227.8C230.315 227.8 279.517 178.595 279.517 118.416V87.0614H320.016V118.416Z" fill="#231F20"/>
<path d="M41.0253 134.568C41.1427 135.291 41.3387 135.972 41.6147 136.612C41.8933 137.248 42.192 137.738 42.516 138.073C42.68 138.251 42.8693 138.423 43.0907 138.59C43.3093 138.759 43.6013 138.893 43.9627 138.996C44.3253 139.1 44.768 139.155 45.292 139.167C45.8147 139.175 46.4627 139.12 47.2373 138.999C48.0907 138.866 48.7987 138.647 49.3587 138.347C49.9187 138.048 50.3467 137.669 50.632 137.212C50.924 136.753 51.1013 136.217 51.1613 135.599C51.2267 134.981 51.1947 134.277 51.0707 133.489C51.044 133.307 51 133.088 50.9427 132.827C50.8827 132.568 50.82 132.333 50.752 132.124L40.888 133.68L41.0253 134.568ZM38.6693 135.8L38.396 134.073L27.9867 135.714L27.1747 130.56L52.3853 126.584C52.4973 127.088 52.6173 127.637 52.744 128.232C52.872 128.828 53 129.44 53.1227 130.068C53.2493 130.697 53.3693 131.336 53.4867 131.983C53.6067 132.631 53.7107 133.249 53.8067 133.841C54.2893 136.902 54.096 139.308 53.2267 141.06C52.356 142.816 50.7373 143.881 48.3693 144.256C47.32 144.42 46.3747 144.431 45.5413 144.281C44.7107 144.136 43.968 143.887 43.3147 143.535C42.6587 143.183 42.088 142.751 41.604 142.238C41.1227 141.724 40.6867 141.175 40.3094 140.595C39.1294 141.557 38.0173 142.469 36.9733 143.333C35.932 144.199 35.0307 145.035 34.276 145.844C33.5174 146.655 32.9427 147.453 32.552 148.24C32.164 149.027 32.0333 149.824 32.1587 150.631L32.184 150.8L30.5827 151.053C30.388 150.666 30.2053 150.212 30.0413 149.699C29.8747 149.185 29.7413 148.6 29.6347 147.944C29.5387 147.319 29.4813 146.74 29.4653 146.212C29.4507 145.683 29.5027 145.18 29.6173 144.696C29.7373 144.215 29.9427 143.724 30.2373 143.232C30.5253 142.74 30.9347 142.217 31.4533 141.666C31.9733 141.111 32.6227 140.5 33.404 139.839C34.184 139.178 35.1253 138.439 36.2293 137.623L38.6693 135.8Z" fill="white"/>
<path d="M45.2414 187.505L38.4133 173.693L61.336 162.368L67.9187 175.685L65.4813 176.614L61.208 168.25L53.7547 171.933L57.5827 179.904L55.344 180.732L51.3613 173.12L43.1667 177.167L47.612 186.612L45.2414 187.505Z" fill="white"/>
<path d="M75.708 214.602C75.02 215.229 74.172 215.685 73.164 215.967C72.156 216.245 71.08 216.316 69.94 216.178C68.796 216.037 67.6374 215.672 66.46 215.078C65.2867 214.485 64.18 213.623 63.1453 212.493C62.5827 211.881 62.1014 211.289 61.6947 210.724C61.2894 210.16 60.94 209.592 60.648 209.024C60.3533 208.459 60.0987 207.89 59.8827 207.321C59.664 206.753 59.468 206.166 59.296 205.556L62.956 203.931C63.0173 204.371 63.1613 204.912 63.3773 205.557C63.5987 206.204 63.8614 206.866 64.1694 207.545C64.4707 208.224 64.8147 208.889 65.192 209.535C65.5707 210.183 65.9654 210.726 66.3667 211.167C67.2987 212.188 68.1147 212.855 68.8067 213.167C69.1867 213.336 69.6774 213.313 70.268 213.1C70.8587 212.884 71.508 212.453 72.208 211.813C72.6974 211.362 72.984 210.857 73.068 210.297C73.1507 209.735 73.12 209.128 72.9734 208.472C72.8254 207.816 72.596 207.123 72.2867 206.39C71.976 205.66 71.672 204.907 71.3694 204.133C71.068 203.36 70.8067 202.562 70.5907 201.748C70.372 200.933 70.2787 200.114 70.3094 199.295C70.3414 198.48 70.5307 197.666 70.8853 196.855C71.2373 196.048 71.8387 195.256 72.684 194.48C73.2373 193.972 73.9587 193.589 74.8493 193.329C75.7387 193.066 76.6974 192.993 77.732 193.111C78.7627 193.224 79.828 193.553 80.932 194.089C82.0307 194.625 83.0774 195.436 84.0654 196.516C84.8667 197.389 85.5827 198.259 86.224 199.131C86.864 200 87.4587 200.873 88.0107 201.743L84.672 203.717C84.4627 203.25 84.2214 202.748 83.932 202.209C83.6427 201.672 83.3307 201.141 82.9974 200.614C82.6587 200.084 82.3147 199.584 81.9734 199.112C81.6267 198.638 81.3067 198.232 81.0027 197.901C80.6774 197.545 80.3147 197.193 79.9133 196.847C79.5173 196.5 79.14 196.267 78.784 196.144C78.4187 196.019 78.0253 196.057 77.5907 196.25C77.1613 196.444 76.708 196.753 76.2414 197.18C75.7654 197.62 75.4867 198.114 75.408 198.672C75.3334 199.226 75.372 199.829 75.5307 200.472C75.692 201.114 75.9267 201.802 76.2374 202.535C76.5467 203.267 76.8507 204.026 77.1533 204.811C77.456 205.597 77.716 206.396 77.932 207.214C78.1507 208.029 78.2374 208.852 78.1974 209.683C78.1507 210.511 77.9454 211.338 77.5747 212.166C77.2 212.99 76.58 213.802 75.708 214.602Z" fill="white"/>
<path d="M94.2626 238.227L106.028 218.639L99.3493 214.483L100.899 212.384L118.645 223.043L117.135 225.076L110.5 221.327L98.7373 240.915L94.2626 238.227Z" fill="white"/>
<path d="M141.005 245.712L139.929 234.071L133.344 243.811L141.005 245.712ZM142.055 257.341L141.219 248.259L131.856 246.066L126.784 253.553L123.585 252.761L139.531 230.603L144.635 230.969L147.484 258.691L142.055 257.341Z" fill="white"/>
<path d="M193.06 252.931C192.669 254.105 192.028 255.163 191.137 256.1C190.249 257.035 189.107 257.821 187.713 258.453C186.317 259.086 184.667 259.493 182.76 259.675C181.184 259.824 179.749 259.797 178.453 259.605C177.156 259.409 176.025 259 175.065 258.384C174.101 257.761 173.323 256.904 172.727 255.805C172.129 254.709 171.755 253.329 171.596 251.674L170.005 234.844L175.203 234.355L176.841 251.68C176.96 252.956 177.175 253.961 177.487 254.691C177.796 255.423 178.2 255.964 178.695 256.321C179.187 256.675 179.779 256.881 180.468 256.931C181.159 256.983 181.953 256.967 182.849 256.881C183.943 256.778 184.877 256.584 185.651 256.29C186.427 256 187.063 255.647 187.56 255.232C188.052 254.803 188.331 254.185 188.401 253.386C188.463 252.584 188.445 251.62 188.339 250.493L186.711 233.267L191.908 232.774L193.463 249.256C193.583 250.532 193.451 251.759 193.06 252.931Z" fill="white"/>
<path d="M221.235 236.256C221.904 235.948 222.508 235.578 223.047 235.138C223.585 234.701 223.976 234.278 224.213 233.878C224.339 233.672 224.456 233.444 224.557 233.185C224.659 232.931 224.711 232.612 224.713 232.235C224.716 231.86 224.651 231.42 224.517 230.912C224.388 230.404 224.159 229.795 223.833 229.081C223.476 228.295 223.075 227.672 222.637 227.214C222.2 226.756 221.721 226.445 221.2 226.292C220.68 226.136 220.115 226.111 219.503 226.214C218.893 226.319 218.224 226.54 217.5 226.871C217.333 226.948 217.132 227.05 216.899 227.174C216.661 227.3 216.451 227.423 216.271 227.543L220.421 236.628L221.235 236.256ZM223.06 238.196L221.468 238.923L225.847 248.505L221.099 250.674L210.495 227.464C210.948 227.22 211.448 226.953 211.984 226.672C212.523 226.389 213.077 226.105 213.653 225.816C214.224 225.524 214.804 225.237 215.399 224.948C215.987 224.66 216.557 224.39 217.101 224.144C219.919 222.855 222.289 222.393 224.213 222.761C226.135 223.125 227.599 224.399 228.591 226.578C229.036 227.548 229.296 228.453 229.38 229.295C229.463 230.133 229.421 230.917 229.257 231.641C229.099 232.366 228.831 233.032 228.465 233.636C228.107 234.243 227.695 234.805 227.237 235.326C228.479 236.204 229.659 237.029 230.771 237.802C231.88 238.573 232.929 239.217 233.916 239.729C234.899 240.24 235.825 240.576 236.684 240.74C237.544 240.904 238.349 240.819 239.091 240.48L239.249 240.407L239.924 241.884C239.601 242.178 239.213 242.472 238.763 242.769C238.312 243.066 237.787 243.352 237.183 243.631C236.604 243.893 236.065 244.102 235.56 244.261C235.055 244.42 234.555 244.505 234.057 244.521C233.563 244.537 233.039 244.469 232.487 244.321C231.932 244.172 231.317 243.92 230.643 243.568C229.973 243.217 229.213 242.756 228.364 242.18C227.516 241.608 226.552 240.901 225.473 240.057L223.06 238.196Z" fill="white"/>
<path d="M260.883 212.338L250.599 206.784L255.06 217.662L260.883 212.338ZM271.148 217.909L263.127 213.571L256.115 220.149L259.536 228.521L257.104 230.745L247.489 205.196L250.625 201.149L275.279 214.136L271.148 217.909Z" fill="white"/>
<path d="M300.629 175.779L276.307 183.25L276.273 183.316C277.612 183.993 278.844 184.615 279.976 185.18C280.453 185.417 280.935 185.66 281.413 185.907C281.896 186.155 282.341 186.384 282.747 186.592C283.156 186.8 283.511 186.983 283.817 187.133C284.123 187.286 284.341 187.399 284.471 187.472L292.068 191.532L290.632 194.217L267.927 182.084L268.997 180.079L293.289 172.56L293.299 172.54C292.065 171.917 290.916 171.332 289.851 170.781C289.396 170.54 288.935 170.297 288.468 170.057C288.003 169.816 287.56 169.589 287.135 169.373C286.713 169.157 286.325 168.953 285.973 168.767C285.623 168.579 285.336 168.425 285.117 168.308L277.627 164.305L279.063 161.617L301.724 173.729L300.629 175.779Z" fill="white"/>
<path d="M310.744 141.833L288.18 138.25L286.823 145.999L284.296 145.344L287.541 124.9L289.995 125.541L288.997 133.095L311.563 136.678L310.744 141.833Z" fill="white"/>
<path fill-rule="evenodd" clip-rule="evenodd" d="M320.016 87.0613L340.26 118.416H320.016V87.0613ZM20.244 87.0613L0 118.416H20.244V87.0613Z" fill="#7B7979"/>
<path fill-rule="evenodd" clip-rule="evenodd" d="M305.643 100.981C306.117 100.448 306.593 99.9161 307.187 99.5108C307.7 99.1601 308.268 98.9681 308.901 98.9894C309.424 99.0068 309.864 99.1908 310.167 99.6414C310.26 99.7801 310.367 99.9081 310.463 100.045C310.531 100.145 310.604 100.165 310.721 100.117C310.968 100.016 311.227 99.9428 311.497 99.9295C311.669 99.9215 311.831 99.9548 311.959 100.08C311.956 100.12 312.959 100.585 312.984 100.335C313.247 100.457 313.411 100.683 313.572 100.909C313.948 101.435 314.257 101.997 314.547 102.571C314.585 102.645 314.632 102.7 314.708 102.743C315.14 103.001 315.5 103.336 315.768 103.765C316.153 104.389 316.175 105.023 315.789 105.656C315.735 105.747 315.739 105.805 315.793 105.896C316.083 106.363 316.02 106.832 315.771 107.292C315.648 107.52 315.492 107.728 315.301 107.905C314.976 108.209 314.695 108.552 314.427 108.908C313.695 109.871 312.796 110.664 311.82 111.368C310.956 111.992 310.023 112.495 309.028 112.883C307.143 113.619 305.18 114.052 303.183 114.344C301.052 114.655 298.911 114.825 296.755 114.864C294.823 114.896 292.979 114.511 291.195 113.788C289.812 113.228 288.481 112.572 287.235 111.755C286.653 111.375 286.205 110.859 285.737 110.364C285.484 110.095 285.232 109.825 284.981 109.555C284.877 109.44 284.849 109.293 284.844 109.147C284.833 108.96 284.921 108.877 285.109 108.884C285.801 108.913 286.495 108.945 287.187 108.976C289.255 109.072 291.323 109.167 293.391 109.265C293.997 109.293 294.604 109.331 295.208 109.364C295.52 109.383 295.812 109.305 296.096 109.196C296.672 108.976 298.739 107.893 299.052 107.755C299.183 107.697 299.716 107.052 299.716 107.105C299.716 107.359 305.227 101.449 305.643 100.981Z" fill="white"/>
<path fill-rule="evenodd" clip-rule="evenodd" d="M314.359 107.071C314.356 107.061 314.356 107.037 314.351 107.012C314.26 106.503 313.68 105.907 313.169 105.796C313.063 105.773 312.992 105.812 312.945 105.904C312.872 106.041 312.948 106.376 313.071 106.476C313.096 106.497 313.12 106.523 313.151 106.507C313.187 106.489 313.192 106.451 313.184 106.415C313.172 106.344 313.145 106.279 313.109 106.217C313.093 106.187 313.068 106.149 313.104 106.123C313.145 106.091 313.164 106.136 313.187 106.161C313.244 106.231 313.307 106.296 313.364 106.369C313.459 106.492 313.588 106.591 313.632 106.749C313.683 106.94 314.031 107.22 314.227 107.224C314.32 107.227 314.367 107.184 314.359 107.071Z" fill="white"/>
<path fill-rule="evenodd" clip-rule="evenodd" d="M310.741 105.209C310.724 105.005 310.729 104.79 310.62 104.62C310.517 104.467 310.451 104.302 310.372 104.138C310.331 104.047 310.268 103.967 310.183 103.907C310.129 103.869 310.072 103.817 310.008 103.873C309.948 103.924 309.945 103.999 309.971 104.07C309.984 104.106 310.011 104.142 310.036 104.17C310.159 104.296 310.224 104.454 310.279 104.618C310.353 104.844 310.445 105.061 310.583 105.257C310.617 105.303 310.651 105.37 310.708 105.352C310.781 105.334 310.724 105.256 310.741 105.209Z" fill="white"/>
<path fill-rule="evenodd" clip-rule="evenodd" d="M310.831 106.256C310.82 106.336 310.861 106.36 310.929 106.347C311.063 106.32 311.172 106.255 311.241 106.133C311.339 105.964 311.388 105.779 311.435 105.593C311.443 105.557 311.468 105.511 311.421 105.485C311.383 105.463 311.344 105.489 311.315 105.516C311.129 105.68 311.016 105.9 310.869 106.096C310.841 106.137 310.844 106.203 310.831 106.256Z" fill="white"/>
<path fill-rule="evenodd" clip-rule="evenodd" d="M312.984 100.335C312.959 100.585 312.927 100.835 312.908 101.085C312.885 101.488 312.755 101.867 312.659 102.252C312.632 102.351 312.612 102.449 312.591 102.547C312.555 102.609 312.568 102.677 312.575 102.74C312.617 103.052 312.591 103.367 312.599 103.679C312.604 103.801 312.568 103.916 312.525 104.031C312.473 104.173 312.377 104.229 312.235 104.212C311.739 104.152 311.281 104.011 310.911 103.647C310.823 103.559 310.784 103.436 310.683 103.361V103.364C310.689 103.321 310.667 103.285 310.656 103.247C310.593 103.075 310.615 102.905 310.724 102.763C310.937 102.487 311.125 102.195 311.289 101.888C311.607 101.364 311.807 100.793 311.945 100.2C311.956 100.161 311.956 100.12 311.959 100.08C312.14 99.2134 312.071 98.3614 311.792 97.524C311.604 96.9547 311.328 96.428 310.945 95.9627C310.844 95.84 310.727 95.748 310.565 95.7387C310.479 95.7334 310.468 95.688 310.503 95.6294C310.583 95.492 310.609 95.2947 310.844 95.336C310.875 95.34 310.908 95.3214 310.913 95.2894C310.932 95.1627 311.041 95.0667 311.044 94.9387C311.044 94.828 311.107 94.7747 311.189 94.7307C311.211 94.7214 311.229 94.712 311.247 94.704C311.739 94.516 311.841 94.5587 312.044 95.0614C312.293 95.6814 312.489 96.3187 312.651 96.9667C312.916 98.0387 313.02 99.1267 312.976 100.228C312.976 100.264 312.981 100.299 312.984 100.335Z" fill="#7B7979"/>
<path fill-rule="evenodd" clip-rule="evenodd" d="M310.683 103.361C310.784 103.436 310.823 103.559 310.911 103.647C311.281 104.011 311.739 104.152 312.235 104.212C312.377 104.229 312.473 104.173 312.525 104.031C312.568 103.916 312.604 103.801 312.599 103.679C312.591 103.367 312.617 103.052 312.575 102.74C312.568 102.677 312.555 102.609 312.591 102.547C312.888 103.08 313.156 103.631 313.544 104.105C313.713 104.309 313.891 104.503 314.143 104.604C314.203 104.628 314.249 104.651 314.211 104.719C314.172 104.788 314.151 104.893 314.028 104.857C313.973 104.84 313.919 104.808 313.861 104.793C313.656 104.737 313.656 104.739 313.661 104.956C313.549 104.939 313.44 104.92 313.328 104.901C313.309 104.881 313.289 104.883 313.265 104.891C313.237 104.885 313.203 104.88 313.172 104.876C313.031 104.848 312.891 104.82 312.752 104.792C312.437 104.741 312.125 104.688 311.809 104.636C311.593 104.603 311.383 104.571 311.2 104.436C311.169 104.412 311.127 104.401 311.109 104.359C310.971 104.024 310.796 103.707 310.683 103.361Z" fill="#7B7979"/>
<path fill-rule="evenodd" clip-rule="evenodd" d="M311.289 101.888C311.125 102.195 310.937 102.487 310.724 102.763C310.615 102.905 310.593 103.075 310.656 103.247C310.667 103.285 310.689 103.321 310.683 103.364C310.484 102.995 310.341 102.601 310.159 102.224C310.123 102.147 310.08 102.072 310.041 101.997C310.013 101.924 309.981 101.852 309.953 101.779C309.973 101.601 310.117 101.507 310.224 101.391C310.289 101.321 310.333 101.261 310.333 101.157C310.333 101.069 310.317 100.933 310.473 100.943C310.615 100.952 310.7 101.068 310.664 101.207C310.62 101.372 310.672 101.483 310.809 101.58C310.963 101.692 311.117 101.805 311.289 101.888Z" fill="#7B7979"/>
<path fill-rule="evenodd" clip-rule="evenodd" d="M314.359 107.071C314.367 107.184 314.32 107.227 314.227 107.224C314.031 107.22 313.683 106.94 313.632 106.749C313.588 106.591 313.459 106.492 313.364 106.369C313.307 106.296 313.244 106.231 313.187 106.161C313.164 106.136 313.145 106.091 313.104 106.123C313.068 106.149 313.093 106.187 313.109 106.217C313.145 106.279 313.172 106.344 313.184 106.415C313.192 106.451 313.187 106.489 313.151 106.507C313.12 106.523 313.096 106.497 313.071 106.476C312.948 106.376 312.872 106.041 312.945 105.904C312.992 105.812 313.063 105.773 313.169 105.796C313.68 105.907 314.26 106.503 314.351 107.012C314.356 107.037 314.356 107.061 314.359 107.071Z" fill="#7B7979"/>
<path fill-rule="evenodd" clip-rule="evenodd" d="M313.328 104.901C313.44 104.92 313.549 104.939 313.661 104.956C313.861 105.055 314.055 105.167 314.187 105.352C314.232 105.413 314.289 105.388 314.339 105.38C314.601 105.339 314.861 105.323 315.125 105.369C315.341 105.408 315.525 105.495 315.64 105.74C315.411 105.685 315.216 105.636 315.016 105.593C314.763 105.541 314.511 105.484 314.249 105.536C314.18 105.551 314.135 105.505 314.085 105.472C313.763 105.243 313.424 105.044 313.047 104.915C313.065 104.825 313.132 104.899 313.172 104.876C313.203 104.88 313.237 104.885 313.265 104.891C313.287 104.893 313.307 104.897 313.328 104.901Z" fill="#7B7979"/>
<path fill-rule="evenodd" clip-rule="evenodd" d="M310.741 105.209C310.724 105.256 310.781 105.334 310.708 105.352C310.651 105.37 310.617 105.303 310.583 105.257C310.445 105.061 310.353 104.844 310.279 104.618C310.224 104.454 310.159 104.296 310.036 104.17C310.011 104.142 309.984 104.106 309.971 104.07C309.945 103.999 309.948 103.924 310.008 103.873C310.072 103.817 310.129 103.869 310.183 103.907C310.268 103.967 310.331 104.047 310.372 104.138C310.451 104.302 310.517 104.467 310.62 104.62C310.729 104.79 310.724 105.005 310.741 105.209Z" fill="#7B7979"/>
<path fill-rule="evenodd" clip-rule="evenodd" d="M309.953 101.779C309.981 101.852 310.013 101.924 310.041 101.997C310.013 102.045 309.989 102.004 309.973 101.987C309.656 101.64 309.257 101.403 308.869 101.151C308.815 101.116 308.695 101.103 308.757 100.997C308.817 100.899 308.908 100.929 308.995 100.983C309.351 101.203 309.692 101.443 309.953 101.779Z" fill="#7B7979"/>
<path fill-rule="evenodd" clip-rule="evenodd" d="M310.831 106.256C310.844 106.203 310.841 106.137 310.869 106.096C311.016 105.9 311.129 105.68 311.315 105.516C311.344 105.489 311.383 105.463 311.421 105.485C311.468 105.511 311.443 105.557 311.435 105.593C311.388 105.779 311.339 105.964 311.241 106.133C311.172 106.255 311.063 106.32 310.929 106.347C310.861 106.36 310.82 106.336 310.831 106.256Z" fill="#7B7979"/>
<path fill-rule="evenodd" clip-rule="evenodd" d="M314.629 107.884C314.629 107.884 313.629 107.847 313.372 107.625C313.112 107.404 312.56 107.219 312.227 107.552C311.893 107.884 310.859 109.364 309.492 110.213C308.125 111.063 304.836 112.725 303.689 112.947C302.544 113.169 300.807 113.576 299.735 113.76C298.664 113.945 296.557 114.167 295.077 113.871C293.601 113.576 291.271 113.057 291.383 113.28C291.495 113.503 294.153 114.425 295.189 114.425C296.224 114.425 300.252 114.425 300.844 114.315C301.435 114.204 303.284 114.093 304.02 113.76C304.76 113.428 306.831 112.984 307.459 112.911C308.085 112.837 309.935 112.208 310.489 111.728C311.044 111.248 311.784 111.432 312.669 110.287C313.557 109.14 315.293 107.959 314.629 107.884Z" fill="#7B7979"/>
<path fill-rule="evenodd" clip-rule="evenodd" d="M312.58 100.381C312.367 101.461 312.132 101.887 311.932 102.288C311.732 102.689 311.484 102.951 311.544 103.321C311.607 103.692 312.085 103.967 312.208 103.984C312.525 104.031 312.44 102.888 312.487 102.533C312.531 102.18 312.904 100.697 312.904 100.375C312.904 100.051 312.799 99.3026 312.58 100.381Z" fill="white"/>
<path fill-rule="evenodd" clip-rule="evenodd" d="M289.708 109.585L296.023 109.661C296.023 109.661 298.344 108.368 299.143 108.064C299.943 107.76 301.919 106.124 302.224 105.476C302.528 104.831 306.372 101.292 306.637 101.101C306.904 100.912 308.008 100.455 308.008 100.455C308.008 100.455 308.541 101.444 308.463 101.711C308.388 101.977 306.943 102.091 306.068 102.624C305.192 103.156 303.023 105.629 302.148 106.391C301.273 107.151 299.828 109.129 299.219 109.509C298.609 109.891 296.899 110.613 295.148 110.423C293.399 110.232 291.38 109.813 291.003 109.928C290.623 110.043 289.708 109.585 289.708 109.585Z" fill="#7B7979"/>
<path d="M330.065 48.4226L327.391 45.7479L330.065 43.072L332.737 45.7453L330.065 48.4226Z" fill="#231F20"/>
<path d="M323.359 48.4187L320.687 45.744L323.361 43.0694L326.033 45.744L323.359 48.4187Z" fill="#231F20"/>
<path d="M316.661 48.4214L313.987 45.748L316.661 43.0721L319.333 45.748L316.661 48.4214Z" fill="#231F20"/>
<path d="M320.011 51.772L317.336 49.0986L320.011 46.424L322.684 49.0946L320.011 51.772Z" fill="#231F20"/>
<path d="M320.013 45.0693L317.336 42.3947L320.013 39.7213L322.684 42.392L320.013 45.0693Z" fill="#231F20"/>
<path d="M323.361 68.5254L320.687 65.8521L323.359 63.1747L326.033 65.8521L323.361 68.5254Z" fill="#231F20"/>
<path d="M316.661 68.5266L313.984 65.8506L316.659 63.1773L319.333 65.8533L316.661 68.5266Z" fill="#231F20"/>
<path d="M320.011 71.8774L317.333 69.2001L320.011 66.5254L322.684 69.2041L320.011 71.8774Z" fill="#231F20"/>
<path d="M320.011 65.1748L317.336 62.4975L320.011 59.8241L322.684 62.4975L320.011 65.1748Z" fill="#231F20"/>
<path d="M333.413 51.7708L330.744 49.0961L333.413 46.4241L336.085 49.0961L333.413 51.7708Z" fill="#231F20"/>
<path d="M336.765 55.1201L334.096 52.4468L336.765 49.7721L339.44 52.4454L336.765 55.1201Z" fill="#231F20"/>
<path d="M333.411 58.4692L330.739 55.8012L333.411 53.1226L336.085 55.7972L333.411 58.4692Z" fill="#231F20"/>
<path d="M330.063 61.824L327.388 59.1493L330.063 56.4733L332.735 59.1493L330.063 61.824Z" fill="#231F20"/>
<path d="M326.711 58.4692L324.041 55.7959L326.711 53.1226L329.385 55.7959L326.711 58.4692Z" fill="#231F20"/>
<path d="M309.959 48.4226L307.287 45.7466L309.959 43.0693L312.632 45.7466L309.959 48.4226Z" fill="#231F20"/>
<path d="M306.607 51.7734L303.932 49.0961L306.607 46.4228L309.279 49.0961L306.607 51.7734Z" fill="#231F20"/>
<path d="M303.257 55.1255L300.58 52.4455L303.252 49.7735L305.929 52.4495L303.257 55.1255Z" fill="#231F20"/>
<path d="M306.607 58.4707L303.932 55.7974L306.607 53.1227L309.279 55.7974L306.607 58.4707Z" fill="#231F20"/>
<path d="M309.959 61.824L307.281 59.1493L309.959 56.472L312.632 59.1493L309.959 61.824Z" fill="#231F20"/>
<path d="M313.309 58.4734L310.635 55.7974L313.309 53.1254L315.984 55.7974L313.309 58.4734Z" fill="#231F20"/>
<path d="M30.2866 48.4214L27.6119 45.7467L30.2866 43.0707L32.96 45.744L30.2866 48.4214Z" fill="#231F20"/>
<path d="M23.5799 48.4187L20.908 45.7427L23.5826 43.068L26.2546 45.7427L23.5799 48.4187Z" fill="#231F20"/>
<path d="M16.8826 48.4199L14.2106 45.7466L16.8826 43.0706L19.5573 45.7466L16.8826 48.4199Z" fill="#231F20"/>
<path d="M20.2347 51.7708L17.56 49.0974L20.2347 46.4227L22.908 49.0934L20.2347 51.7708Z" fill="#231F20"/>
<path d="M20.2373 45.0681L17.56 42.3934L20.2373 39.7188L22.908 42.3908L20.2373 45.0681Z" fill="#231F20"/>
<path d="M23.5826 68.5239L20.908 65.8519L23.5799 63.1733L26.2546 65.8519L23.5826 68.5239Z" fill="#231F20"/>
<path d="M16.8826 68.5254L14.208 65.8494L16.88 63.1761L19.5573 65.8521L16.8826 68.5254Z" fill="#231F20"/>
<path d="M20.2347 71.876L17.5573 69.2L20.2347 66.5253L22.908 69.2027L20.2347 71.876Z" fill="#231F20"/>
<path d="M20.2347 65.1733L17.56 62.4973L20.2347 59.8227L22.908 62.4973L20.2347 65.1733Z" fill="#231F20"/>
<path d="M33.6374 51.7693L30.968 49.0946L33.6374 46.4226L36.3094 49.0946L33.6374 51.7693Z" fill="#231F20"/>
<path d="M36.9867 55.1187L34.3173 52.4453L36.9867 49.7707L39.664 52.4426L36.9867 55.1187Z" fill="#231F20"/>
<path d="M33.6347 58.468L30.9626 55.8L33.6347 53.1214L36.3093 55.796L33.6347 58.468Z" fill="#231F20"/>
<path d="M30.2839 61.8228L27.6119 59.1481L30.2839 56.4708L32.9559 59.1481L30.2839 61.8228Z" fill="#231F20"/>
<path d="M26.9346 58.468L24.2626 55.7947L26.9346 53.1214L29.6066 55.7947L26.9346 58.468Z" fill="#231F20"/>
<path d="M10.18 48.4214L7.508 45.7467L10.18 43.0681L12.8533 45.7467L10.18 48.4214Z" fill="#231F20"/>
<path d="M6.83068 51.772L4.15601 49.0946L6.83068 46.4213L9.50002 49.0946L6.83068 51.772Z" fill="#231F20"/>
<path d="M3.47864 55.124L0.801331 52.4454L3.47601 49.7707L6.15332 52.448L3.47864 55.124Z" fill="#231F20"/>
<path d="M6.83068 58.4692L4.15601 55.7959L6.83068 53.1212L9.50002 55.7959L6.83068 58.4692Z" fill="#231F20"/>
<path d="M10.18 61.8228L7.50531 59.1481L10.18 56.4708L12.8533 59.1481L10.18 61.8228Z" fill="#231F20"/>
<path d="M13.5333 58.4734L10.856 55.7974L13.5333 53.1241L16.2053 55.7974L13.5333 58.4734Z" fill="#231F20"/>
<path fill-rule="evenodd" clip-rule="evenodd" d="M35.2653 100.981C34.792 100.448 34.3146 99.9161 33.7213 99.5108C33.2079 99.1601 32.64 98.9681 32.008 98.9894C31.484 99.0068 31.044 99.1908 30.7413 99.6414C30.648 99.7801 30.5413 99.9081 30.4453 100.045C30.3773 100.145 30.3039 100.165 30.1866 100.117C29.9399 100.016 29.6826 99.9428 29.4106 99.9295C29.2386 99.9215 29.0773 99.9548 28.9506 100.08C28.9533 100.12 27.9506 100.585 27.9239 100.335C27.6613 100.457 27.4973 100.683 27.336 100.909C26.96 101.435 26.6506 101.997 26.3613 102.571C26.3226 102.645 26.276 102.7 26.2 102.743C25.768 103.001 25.408 103.336 25.14 103.765C24.7546 104.389 24.7346 105.023 25.1199 105.656C25.1746 105.747 25.1693 105.805 25.1146 105.896C24.8253 106.363 24.888 106.832 25.1373 107.292C25.26 107.52 25.416 107.728 25.6066 107.905C25.932 108.209 26.2133 108.552 26.4813 108.908C27.2133 109.871 28.1119 110.664 29.0879 111.368C29.9533 111.992 30.8853 112.495 31.8799 112.883C33.7653 113.619 35.7293 114.052 37.7266 114.344C39.856 114.655 41.9973 114.825 44.1533 114.864C46.0853 114.896 47.9293 114.511 49.7133 113.788C51.0959 113.228 52.4266 112.572 53.6746 111.755C54.2546 111.375 54.7026 110.859 55.172 110.364C55.424 110.095 55.6773 109.825 55.9266 109.555C56.0306 109.44 56.06 109.293 56.0653 109.147C56.0746 108.96 55.9866 108.877 55.7986 108.884C55.1066 108.913 54.4133 108.945 53.7213 108.976C51.6533 109.072 49.5853 109.167 47.5173 109.265C46.9106 109.293 46.304 109.331 45.7 109.364C45.388 109.383 45.0959 109.305 44.8119 109.196C44.2373 108.976 42.1693 107.893 41.8559 107.755C41.7266 107.697 41.1919 107.052 41.1919 107.105C41.1919 107.359 35.6826 101.449 35.2653 100.981Z" fill="white"/>
<path fill-rule="evenodd" clip-rule="evenodd" d="M26.5493 107.071C26.552 107.061 26.552 107.037 26.5574 107.012C26.648 106.503 27.2294 105.907 27.7387 105.796C27.8467 105.773 27.916 105.812 27.9627 105.904C28.036 106.041 27.96 106.376 27.8387 106.476C27.812 106.497 27.7894 106.523 27.7574 106.507C27.7214 106.489 27.716 106.451 27.724 106.415C27.7374 106.344 27.7627 106.279 27.7987 106.217C27.8147 106.187 27.8414 106.149 27.804 106.123C27.7627 106.091 27.744 106.136 27.7213 106.161C27.664 106.231 27.6013 106.296 27.544 106.369C27.4507 106.492 27.32 106.591 27.276 106.749C27.2267 106.94 26.8773 107.22 26.6827 107.224C26.588 107.227 26.5413 107.184 26.5493 107.071Z" fill="white"/>
<path fill-rule="evenodd" clip-rule="evenodd" d="M30.1666 105.209C30.184 105.005 30.18 104.79 30.2893 104.62C30.3906 104.467 30.4586 104.302 30.536 104.138C30.5773 104.047 30.64 103.967 30.7266 103.907C30.7786 103.869 30.836 103.817 30.9013 103.873C30.96 103.924 30.9626 103.999 30.9373 104.07C30.924 104.106 30.8986 104.142 30.872 104.17C30.7493 104.296 30.684 104.454 30.6293 104.618C30.5546 104.844 30.4626 105.061 30.3253 105.257C30.292 105.303 30.2573 105.37 30.2 105.352C30.1266 105.334 30.184 105.256 30.1666 105.209Z" fill="white"/>
<path fill-rule="evenodd" clip-rule="evenodd" d="M30.0773 106.256C30.0879 106.336 30.0466 106.36 29.9786 106.347C29.8466 106.32 29.7373 106.255 29.6666 106.133C29.5706 105.964 29.52 105.779 29.4733 105.593C29.4653 105.557 29.44 105.511 29.4866 105.485C29.5253 105.463 29.5653 105.489 29.5933 105.516C29.7786 105.68 29.8933 105.9 30.0386 106.096C30.068 106.137 30.0653 106.203 30.0773 106.256Z" fill="white"/>
<path fill-rule="evenodd" clip-rule="evenodd" d="M27.924 100.335C27.9507 100.585 27.9813 100.835 28 101.085C28.0227 101.488 28.1533 101.867 28.2493 102.252C28.276 102.351 28.296 102.449 28.3173 102.547C28.3533 102.609 28.3413 102.677 28.3333 102.74C28.292 103.052 28.3174 103.367 28.3094 103.679C28.304 103.801 28.3413 103.916 28.3827 104.031C28.4347 104.173 28.5307 104.229 28.6747 104.212C29.1694 104.152 29.6267 104.011 29.9973 103.647C30.0853 103.559 30.1253 103.436 30.2267 103.361V103.364C30.2187 103.321 30.2413 103.285 30.252 103.247C30.3147 103.075 30.2933 102.905 30.184 102.763C29.9707 102.487 29.784 102.195 29.62 101.888C29.3013 101.364 29.1013 100.793 28.9627 100.2C28.9533 100.161 28.9533 100.12 28.9507 100.08C28.768 99.2134 28.8387 98.3614 29.1173 97.524C29.304 96.9547 29.58 96.428 29.9627 95.9627C30.0653 95.84 30.1827 95.748 30.344 95.7387C30.4293 95.7334 30.44 95.688 30.4053 95.6294C30.3253 95.492 30.2987 95.2947 30.0653 95.336C30.0333 95.34 30 95.3214 29.9947 95.2894C29.976 95.1627 29.8667 95.0667 29.864 94.9387C29.864 94.828 29.8013 94.7747 29.7187 94.7307C29.6973 94.7214 29.68 94.712 29.6613 94.704C29.1693 94.516 29.068 94.5587 28.864 95.0614C28.6147 95.6814 28.4187 96.3187 28.2573 96.9667C27.992 98.0387 27.888 99.1267 27.932 100.228C27.932 100.264 27.9267 100.299 27.924 100.335Z" fill="#7B7979"/>
<path fill-rule="evenodd" clip-rule="evenodd" d="M30.2267 103.361C30.1254 103.436 30.0854 103.559 29.9974 103.647C29.6267 104.011 29.1694 104.152 28.6747 104.212C28.5307 104.229 28.4347 104.173 28.3827 104.031C28.3413 103.916 28.304 103.801 28.3094 103.679C28.3174 103.367 28.292 103.052 28.3334 102.74C28.3414 102.677 28.3533 102.609 28.3173 102.547C28.02 103.08 27.752 103.631 27.364 104.105C27.1947 104.309 27.0174 104.503 26.7654 104.604C26.7054 104.628 26.6587 104.651 26.6974 104.719C26.7374 104.788 26.7573 104.893 26.88 104.857C26.9347 104.84 26.9893 104.808 27.0467 104.793C27.252 104.737 27.252 104.739 27.2467 104.956C27.3587 104.939 27.468 104.92 27.58 104.901C27.5987 104.881 27.62 104.883 27.6427 104.891C27.672 104.885 27.7054 104.88 27.7374 104.876C27.8774 104.848 28.0173 104.82 28.156 104.792C28.4707 104.741 28.784 104.688 29.0987 104.636C29.3147 104.603 29.5254 104.571 29.708 104.436C29.7387 104.412 29.7814 104.401 29.7987 104.359C29.9374 104.024 30.112 103.707 30.2267 103.361Z" fill="#7B7979"/>
<path fill-rule="evenodd" clip-rule="evenodd" d="M29.62 101.888C29.784 102.195 29.9707 102.487 30.184 102.763C30.2933 102.905 30.3147 103.075 30.252 103.247C30.2413 103.285 30.2187 103.321 30.2267 103.364C30.424 102.995 30.568 102.601 30.7493 102.224C30.7867 102.147 30.828 102.072 30.8667 101.997C30.896 101.924 30.9267 101.852 30.956 101.779C30.9347 101.601 30.792 101.507 30.684 101.391C30.62 101.321 30.5747 101.261 30.5747 101.157C30.5747 101.069 30.5907 100.933 30.4347 100.943C30.2933 100.952 30.208 101.068 30.244 101.207C30.2893 101.372 30.2373 101.483 30.0987 101.58C29.9453 101.692 29.792 101.805 29.62 101.888Z" fill="#7B7979"/>
<path fill-rule="evenodd" clip-rule="evenodd" d="M26.5493 107.071C26.5413 107.184 26.588 107.227 26.6827 107.224C26.8773 107.22 27.2267 106.94 27.276 106.749C27.32 106.591 27.4507 106.492 27.544 106.369C27.6013 106.296 27.664 106.231 27.7213 106.161C27.744 106.136 27.7627 106.091 27.804 106.123C27.8414 106.149 27.8147 106.187 27.7987 106.217C27.7627 106.279 27.7374 106.344 27.724 106.415C27.716 106.451 27.7214 106.489 27.7574 106.507C27.7894 106.523 27.812 106.497 27.8387 106.476C27.96 106.376 28.036 106.041 27.9627 105.904C27.916 105.812 27.8467 105.773 27.7387 105.796C27.2294 105.907 26.648 106.503 26.5574 107.012C26.552 107.037 26.552 107.061 26.5493 107.071Z" fill="#7B7979"/>
<path fill-rule="evenodd" clip-rule="evenodd" d="M27.58 104.901C27.468 104.92 27.3587 104.939 27.2467 104.956C27.0467 105.055 26.8533 105.167 26.7213 105.352C26.6773 105.413 26.62 105.388 26.5707 105.38C26.3067 105.339 26.0467 105.323 25.784 105.369C25.568 105.408 25.3827 105.495 25.268 105.74C25.4973 105.685 25.692 105.636 25.8933 105.593C26.1453 105.541 26.3987 105.484 26.6587 105.536C26.7293 105.551 26.7733 105.505 26.8227 105.472C27.1453 105.243 27.484 105.044 27.8613 104.915C27.844 104.825 27.776 104.899 27.7373 104.876C27.7053 104.88 27.672 104.885 27.6427 104.891C27.6227 104.893 27.6013 104.897 27.58 104.901Z" fill="#7B7979"/>
<path fill-rule="evenodd" clip-rule="evenodd" d="M30.1666 105.209C30.184 105.256 30.1266 105.334 30.2 105.352C30.2573 105.37 30.292 105.303 30.3253 105.257C30.4626 105.061 30.5546 104.844 30.6293 104.618C30.684 104.454 30.7493 104.296 30.872 104.17C30.8986 104.142 30.924 104.106 30.9373 104.07C30.9626 103.999 30.96 103.924 30.9013 103.873C30.836 103.817 30.7786 103.869 30.7266 103.907C30.64 103.967 30.5773 104.047 30.536 104.138C30.4586 104.302 30.3906 104.467 30.2893 104.62C30.18 104.79 30.184 105.005 30.1666 105.209Z" fill="#7B7979"/>
<path fill-rule="evenodd" clip-rule="evenodd" d="M30.956 101.779C30.9266 101.852 30.896 101.924 30.8666 101.997C30.896 102.045 30.9186 102.004 30.9346 101.987C31.252 101.64 31.6506 101.403 32.0386 101.151C32.0933 101.116 32.2133 101.103 32.1506 100.997C32.0906 100.899 32 100.929 31.9133 100.983C31.5573 101.203 31.216 101.443 30.956 101.779Z" fill="#7B7979"/>
<path fill-rule="evenodd" clip-rule="evenodd" d="M30.0773 106.256C30.0653 106.203 30.068 106.137 30.0386 106.096C29.8933 105.9 29.7786 105.68 29.5933 105.516C29.5653 105.489 29.5253 105.463 29.4866 105.485C29.44 105.511 29.4653 105.557 29.4733 105.593C29.52 105.779 29.5706 105.964 29.6666 106.133C29.7373 106.255 29.8466 106.32 29.9786 106.347C30.0466 106.36 30.0879 106.336 30.0773 106.256Z" fill="#7B7979"/>
<path fill-rule="evenodd" clip-rule="evenodd" d="M26.2786 107.884C26.2786 107.884 27.2786 107.847 27.536 107.625C27.796 107.404 28.3493 107.219 28.6826 107.552C29.0159 107.884 30.0493 109.364 31.4159 110.213C32.7839 111.063 36.072 112.725 37.2186 112.947C38.364 113.169 40.1013 113.576 41.1746 113.76C42.244 113.945 44.3506 114.167 45.8306 113.871C47.3066 113.576 49.6373 113.057 49.5253 113.28C49.4133 113.503 46.7546 114.425 45.7186 114.425C44.684 114.425 40.656 114.425 40.0653 114.315C39.4733 114.204 37.6253 114.093 36.888 113.76C36.148 113.428 34.0773 112.984 33.4506 112.911C32.8226 112.837 30.9733 112.208 30.4186 111.728C29.864 111.248 29.1253 111.432 28.2386 110.287C27.3506 109.14 25.6146 107.959 26.2786 107.884Z" fill="#7B7979"/>
<path fill-rule="evenodd" clip-rule="evenodd" d="M28.328 100.381C28.5413 101.461 28.776 101.887 28.976 102.288C29.1773 102.689 29.424 102.951 29.364 103.321C29.3013 103.692 28.8226 103.967 28.7 103.984C28.3826 104.031 28.468 102.888 28.4213 102.533C28.3773 102.18 28.0053 100.697 28.0053 100.375C28.0053 100.051 28.1093 99.3026 28.328 100.381Z" fill="white"/>
<path fill-rule="evenodd" clip-rule="evenodd" d="M51.2 109.585L44.8853 109.661C44.8853 109.661 42.5653 108.368 41.7653 108.064C40.9653 107.76 38.9893 106.124 38.684 105.476C38.38 104.831 34.536 101.292 34.2706 101.101C34.0053 100.912 32.9013 100.455 32.9013 100.455C32.9013 100.455 32.3666 101.444 32.4453 101.711C32.5199 101.977 33.9653 102.091 34.8413 102.624C35.716 103.156 37.8853 105.629 38.76 106.391C39.6346 107.151 41.08 109.129 41.6893 109.509C42.2986 109.891 44.0106 110.613 45.76 110.423C47.5106 110.232 49.528 109.813 49.9053 109.928C50.2866 110.043 51.2 109.585 51.2 109.585Z" fill="#7B7979"/>
</svg>
