<svg width="32" height="32" viewBox="0 0 32 32" fill="none" xmlns="http://www.w3.org/2000/svg">
<path fill-rule="evenodd" clip-rule="evenodd" d="M16 2.23256C8.39646 2.23256 2.23256 8.39646 2.23256 16C2.23256 23.6035 8.39646 29.7674 16 29.7674C23.6035 29.7674 29.7674 23.6035 29.7674 16C29.7674 8.39646 23.6035 2.23256 16 2.23256ZM0 16C0 7.16345 7.16345 0 16 0C24.8366 0 32 7.16345 32 16C32 24.8366 24.8366 32 16 32C7.16345 32 0 24.8366 0 16ZM16 8.93023C16.6165 8.93023 17.1163 9.43001 17.1163 10.0465V15.5376L20.5102 18.9316C20.9462 19.3676 20.9462 20.0743 20.5102 20.5102C20.0743 20.9462 19.3676 20.9462 18.9316 20.5102L15.2107 16.7893C15.0013 16.58 14.8837 16.296 14.8837 16V10.0465C14.8837 9.43001 15.3835 8.93023 16 8.93023Z" fill="black"/>
</svg>
