<svg width="25" height="25" viewBox="0 0 25 25" fill="none" xmlns="http://www.w3.org/2000/svg">
<g clip-path="url(#clip0_110_457)">
<path d="M24.2154 12.5711C24.2146 6.10156 18.9701 0.857031 12.4998 0.857031C6.02949 0.857031 0.78418 6.10234 0.78418 12.5727C0.78418 18.3969 5.03418 23.2281 10.6014 24.1352L10.6686 24.1445V15.9586H7.69355V12.5711H10.6686V9.99141C10.6537 9.86094 10.6459 9.70937 10.6459 9.55625C10.6459 7.27266 12.4975 5.42109 14.7811 5.42109C14.8912 5.42109 15.0006 5.42578 15.1092 5.43359L15.0951 5.43281C16.0318 5.44609 16.9381 5.52891 17.8225 5.67656L17.7178 5.66172V8.54453H16.2396C16.1725 8.53516 16.0951 8.52969 16.017 8.52969C15.0818 8.52969 14.3232 9.2875 14.3232 10.2234C14.3232 10.2766 14.3256 10.3289 14.3303 10.3812L14.3295 10.3742V12.5711H17.5787L17.0592 15.9586H14.3295V24.1445C19.9646 23.2273 24.2146 18.3953 24.2154 12.5711Z" fill="black"/>
</g>
<defs>
<clipPath id="clip0_110_457">
<rect width="25" height="25" fill="white"/>
</clipPath>
</defs>
</svg>
