<svg width="80" height="61" viewBox="0 0 80 61" fill="none" xmlns="http://www.w3.org/2000/svg">
<path d="M36.626 9.35018C37.459 9.48931 37.8294 9.35019 37.6903 8.84064C37.5506 8.3311 35.1425 7.96126 33.7536 8.00705C32.3629 8.05342 31.1288 9.44409 31.6691 10.1386C32.3177 10.9716 33.8 9.99885 34.3548 9.58264C34.9107 9.16526 35.7912 9.21164 36.626 9.35018ZM31.0668 12.5008C29.9549 14.0758 32.9189 14.7239 33.6603 15.4647C34.4011 16.2056 33.9843 17.8269 34.4475 17.7812C34.9118 17.7348 34.6794 14.9088 34.0771 13.8433C33.4748 12.7785 31.5015 11.884 31.0668 12.5008ZM24.1648 13.7512C25.091 13.8897 25.2302 13.2874 25.0445 12.8706C24.8599 12.4538 23.9327 12.6857 23.2375 12.408C22.5435 12.1298 22.5673 11.3814 22.3578 11.4811C21.3853 11.9449 23.2375 13.612 24.1648 13.7512ZM59.2059 53.077C58.9051 52.083 58.6176 51.2906 58.1758 51.1536C57.7532 50.3688 57.0959 49.9322 56.4889 48.1102C55.744 45.8744 56.2658 44.0855 55.4449 44.1605C54.6252 44.2334 53.4328 44.2334 53.3581 44.7558C53.3581 44.7558 53.3575 47.1411 55.0722 48.93C56.184 50.0905 57.1046 51.1525 57.6176 51.7595C57.5179 52.9108 58.17 55.3495 57.9642 56.4127C57.6935 57.8021 57.5735 58.9488 57.9642 59.1098C58.3538 59.2717 59.4158 58.3239 59.3804 57.212C59.3456 56.1002 59.5537 54.2244 59.2059 53.077ZM14.1822 3.18927C14.5989 3.05014 13.5572 1.7302 12.4454 2.07743C11.3336 2.42524 9.59679 5.13528 13.2787 6.87202C13.9818 7.2036 14.7381 7.14969 14.5989 5.82975C14.4596 4.5098 13.7656 3.32781 14.1822 3.18927ZM38.7795 31.9028C38.7795 31.9028 42.6773 30.8433 42.6704 26.0492C42.6651 23.054 39.4804 22.1213 39.4804 22.1213C40.6687 23.4743 40.7945 24.3119 40.7244 27.0127C40.6554 29.7129 38.7795 31.9028 38.7795 31.9028ZM31.7473 33.7202C28.9121 35.4638 25.2993 36.4715 25.2993 36.4715C25.2993 36.4715 30.719 39.3201 34.7484 36.5414C38.7795 33.7619 36.0689 26.0492 36.0689 26.0492C36.0689 26.0492 35.8602 31.1904 31.7473 33.7202ZM60.5265 54.641C59.9717 55.3362 60.1798 56.4815 59.6929 57.837C59.2059 59.1922 60.214 59.1922 60.5265 59.1098C60.8401 59.0281 61.534 56.4127 61.3606 55.7528C61.1861 55.0927 60.9589 54.1007 60.5265 54.641ZM67.5053 56.1797C66.8451 56.2143 67.1929 57.5684 67.1929 58.555C67.1929 59.5412 66.8804 60.3482 66.8103 60.8351C66.7407 61.3208 68.3737 59.8611 68.4438 58.5077C68.5128 57.1523 68.1111 56.1478 67.5053 56.1797ZM62.7183 49.8124C62.0626 49.8812 62.924 51.9652 63.0974 52.9733C63.2719 53.981 63.0974 54.641 62.7183 56.1693C62.3415 57.6977 62.1612 59.4212 62.4771 59.6995C62.7942 59.9771 63.6185 57.3852 64.2446 55.7175C64.8695 54.0498 64.7304 52.6255 64.626 51.7926C64.5217 50.9589 63.48 49.7318 62.7183 49.8124ZM63.7698 47.5661C62.3333 46.4541 60.9438 45.5279 60.0349 44.5551C59.1259 43.5812 58.8372 42.7563 58.3039 43.1186C57.1457 43.9064 59.1833 45.5279 60.8047 46.8241C62.4273 48.122 64.7425 49.9741 65.2984 51.1573C65.8544 52.3404 65.7616 53.7726 65.6689 55.6724C65.5761 57.5709 64.8103 58.8931 64.9964 59.598C65.1819 60.3041 66.3627 57.4781 66.4567 56.2735C66.5482 55.069 67.0578 52.3832 66.688 51.0859C66.3164 49.7891 65.2057 48.6768 63.7698 47.5661ZM78.2371 38.7189C79.4712 34.919 80.5378 30.8895 79.7037 25.2846C78.8701 19.6796 75.7206 16.2056 73.4506 13.9819C71.1805 11.7594 64.557 7.87662 58.3955 7.98792C52.234 8.09922 49.964 9.76756 47.371 10.2307C44.7775 10.6939 40.7922 10.5542 40.1447 7.68242C40.1447 7.68242 39.5888 9.74727 41.5348 10.8684C43.4802 11.9901 44.0825 12.222 47.5571 11.5269C51.0306 10.8324 56.1719 7.77518 62.982 9.99886C69.791 12.222 71.4124 13.7506 74.7015 17.5029C77.9895 21.2546 78.9617 29.0827 77.7119 33.3441C76.4609 37.6071 74.7479 41.6827 73.1254 43.2114C71.5051 44.7402 69.929 46.3146 70.1151 47.7966C70.2994 49.2801 71.7364 51.8726 71.9219 53.6332C72.1063 55.3935 72.0135 55.6249 71.5504 56.8757C71.0884 58.1268 69.5904 59.9859 70.0072 60.1249C70.424 60.264 71.366 59.1922 71.8756 58.4044C72.384 57.6171 73.1718 56.6903 72.8013 53.6794C72.4315 50.669 71.8292 48.9098 72.4315 47.3336C73.0338 45.7585 77.0035 42.5163 78.2371 38.7189ZM61.4998 38.2782C62.4725 35.0118 63.2719 30.878 62.229 28.0294C61.1861 25.1803 58.9288 21.5677 58.8245 22.1926C58.7202 22.818 61.5693 27.6468 61.1861 30.8433C60.8047 34.0397 60.9091 36.1237 59.2413 38.0348C57.5735 39.9459 56.2536 41.5084 53.092 42.1685C49.9309 42.8288 45.7624 42.4121 43.9202 42.0643C42.0797 41.7181 39.8177 41.0938 39.5557 42.5204C39.325 43.7864 39.8653 44.5667 39.6827 46.0136C39.3806 48.4048 39.4044 49.0129 38.2236 49.7768C37.0422 50.5409 34.9217 50.5196 35.0272 51.1391C35.1315 51.7571 35.6875 53.4597 35.2353 55.2318C34.7837 57.0039 31.9183 61.0774 32.96 60.8002C33.5339 60.6474 35.2353 58.6705 36.277 56.4815C37.3199 54.2932 37.2857 51.7571 37.2857 51.7571C37.2857 51.7571 38.5923 51.7926 40.1447 50.1596C41.6971 48.5272 41.6948 47.8738 41.8362 46.2333C41.9516 44.9019 41.0032 43.2114 41.9753 43.038C42.948 42.8636 44.9984 43.663 48.1241 43.802C51.2515 43.9406 52.9192 44.0799 55.1765 43.6281C57.4356 43.1761 60.5265 41.5437 61.4998 38.2782ZM31.5468 57.2005C30.9468 57.1036 31.3885 58.0555 31.3329 58.8965C31.2772 59.7389 30.9468 59.9592 30.7392 60.4003C30.5335 60.8421 30.7949 60.9388 31.3056 61.0067C31.8151 61.0751 32.3948 59.4624 32.3948 58.7036C32.3948 57.9452 31.8807 57.2543 31.5468 57.2005ZM26.573 55.7832C26.1801 55.8955 26.6432 57.0612 26.573 57.7795C26.5039 58.4971 26.4111 59.0994 26.4337 59.3666C26.4575 59.634 27.5458 59.5163 27.6849 59.0532C27.824 58.5899 27.6385 57.2927 27.3608 56.5517C27.0825 55.8103 26.8662 55.7008 26.573 55.7832ZM24.7434 54.1891C24.3607 53.8766 24.6041 53.2516 24.3267 52.8689C24.0482 52.4876 23.8319 52.1409 23.5274 52.2088C22.9024 52.3486 23.6315 53.6332 23.9101 54.259C24.1875 54.8847 24.1184 55.1274 24.2916 56.9686C24.4648 58.8096 24.1523 58.8449 24.1875 59.1574C24.2225 59.4698 25.3683 59.401 25.6469 59.1574C25.9243 58.9139 25.8201 56.1693 25.6469 55.5796C25.4725 54.9884 25.1249 54.5013 24.7434 54.1891ZM25.2993 50.6806C25.2993 50.6806 23.944 50.472 23.0756 50.2286C22.2072 49.985 22.4507 49.4992 22.2423 48.6309C22.034 47.7624 21.7498 47.3039 21.2698 47.38C20.6097 47.4844 20.7829 48.0749 20.8871 48.9787C20.9912 49.8812 21.5472 50.6453 22.7213 51.0279C23.8942 51.4092 25.2993 50.6806 25.2993 50.6806ZM31.7607 50.7618C31.807 50.4836 30.3254 50.5764 29.7207 50.53C29.1161 50.4836 29.0274 50.3439 28.6472 49.4182C28.2669 48.4907 27.7776 47.1481 27.0825 46.2217C26.3873 45.296 25.6469 45.296 24.9981 45.1563C24.3494 45.0182 22.3578 43.3958 21.2924 42.2387C20.227 41.0804 20.6901 37.9775 20.6901 37.9775C20.6901 37.9775 19.8568 37.4216 19.3009 37.3745C18.7449 37.3281 17.7724 36.0784 16.5678 35.2906C15.3631 34.5021 13.881 30.8433 13.881 30.8433C13.5108 32.2785 13.6036 33.7155 14.5762 35.4749C15.5487 37.2366 16.8916 36.5867 17.9445 38.3473C18.9975 40.1078 18.0498 41.034 18.1427 43.1651C18.2355 45.296 20.2734 45.573 20.5044 46.4541C20.7365 47.3336 22.1721 46.7312 21.8483 45.991C21.5245 45.249 20.0877 45.2025 19.208 42.9325C18.3283 40.6638 19.1616 38.8104 19.5318 39.0423C19.9032 39.2748 20.1806 42.0996 21.1531 43.8138C22.1268 45.5279 24.0255 45.6658 25.2766 46.6398C26.5266 47.6123 25.8778 48.122 26.8968 50.1596C27.9156 52.1977 28.4263 51.4092 29.0738 53.8655C29.7231 56.3198 28.7967 57.9412 28.8431 59.0532C28.8883 60.165 30.0929 59.3773 30.0929 59.3773C30.0929 59.3773 30.6036 55.903 30.6036 54.8847C30.6036 53.8655 30.0013 52.5675 29.7694 51.7347C29.537 50.8998 31.7143 51.0395 31.7607 50.7618ZM17.8845 19.6605C18.2626 17.6432 16.7489 14.7842 16.7489 14.7842C17.9264 17.7696 16.3707 19.2825 15.362 20.712C14.352 22.141 12.9232 22.4349 12.2507 25.6724C11.5781 28.91 12.6707 32.9874 12.6707 32.9874C12.6707 32.9874 13.1338 27.186 13.8063 25.2104C14.4788 23.2343 17.5063 21.679 17.8845 19.6605ZM8.27662 20.3747C7.76603 20.4668 5.45064 20.6523 4.8302 20.6523C4.20976 20.6523 4.29243 19.8651 3.78294 19.9237C3.27456 19.9816 2.76397 19.9237 2.76397 19.9237C2.76397 19.9237 2.39372 19.1243 2.25448 18.6605C2.11518 18.1979 2.71753 17.7342 3.64364 17.4015C4.57091 17.0681 4.94116 16.4838 4.80191 16.067C4.66262 15.6496 4.10675 15.696 3.64364 16.067C3.18175 16.4374 2.85678 16.5302 2.16162 16.7232C1.46645 16.9163 1.36112 18.2948 1.28188 19.0315C1.16189 20.1532 2.76397 20.421 3.50556 20.5596C4.24716 20.6987 4.15429 21.348 4.94115 21.7375C5.72918 22.1276 8.32305 21.1619 9.01711 21.7375C9.71227 22.3137 9.20278 22.7369 9.10991 23.2464C9.01711 23.7566 9.5266 23.8951 9.5266 23.8951C9.5266 23.8951 9.99081 22.1346 9.85151 21.3004C9.71227 20.4668 8.7861 20.2819 8.27662 20.3747ZM9.56167 7.74039C8.44989 7.80995 7.23387 7.56649 6.36545 8.956C5.49707 10.3461 5.39291 10.8324 4.00258 12.0138C2.61336 13.1947 0.945605 13.9593 0.564055 14.9668C0.181404 15.9743 -0.304314 16.5992 0.250446 16.9122C0.585563 17.1 1.43249 16.8426 1.43249 16.1128C1.43249 15.383 1.6057 14.7343 2.71754 13.9471C3.82932 13.1599 5.56611 11.8052 6.46961 10.6939C7.37312 9.58206 7.96301 9.16468 8.90158 9.12991C9.83905 9.0957 10.3859 9.30381 10.5297 8.85223C10.6735 8.40008 10.6735 7.67025 9.56167 7.74039ZM14.3215 11.9791C15.3291 11.6318 15.2453 10.6093 15.6699 10.5125C16.0933 10.4156 16.6493 10.138 16.3707 10.0336C16.0933 9.92871 15.294 9.85973 14.1822 10.0336C13.0704 10.2064 12.6537 10.6945 12.0276 11.0933C11.4026 11.4921 10.4584 11.5657 10.5343 11.8747C10.5343 11.8747 10.4652 12.2915 10.8467 12.2567C11.2294 12.222 12.0627 11.666 12.6186 11.7008C13.1745 11.7356 13.3138 12.3269 14.3215 11.9791ZM21.8597 16.3911C21.9989 16.8426 23.1334 16.7499 24.0958 16.5992C25.057 16.449 26.1914 15.5923 26.4111 14.8161C26.6307 14.0404 26.0058 13.9703 25.6355 13.9477C25.2642 13.9251 25.1725 14.7929 24.9641 15.0247C24.7558 15.2566 24.4886 15.5569 23.9678 15.7893C23.447 16.0206 22.6828 16.0543 22.428 16.078C22.1733 16.1018 21.751 16.0369 21.8597 16.3911ZM27.5747 19.8651C27.5568 20.0558 28.6066 19.7388 28.8883 19.4831C29.2651 19.1417 29.5892 18.7011 29.6761 17.7632C29.7636 16.8252 29.7283 15.696 29.5034 15.2073C29.2767 14.7187 28.6721 14.1819 28.0437 14.5668C27.5046 14.8972 27.551 15.1505 27.7133 15.5923C27.893 16.078 28.6141 16.3163 28.6617 16.9934C28.7092 17.671 28.6866 17.8501 28.5353 18.5794C28.3834 19.3092 27.5921 19.6738 27.5747 19.8651ZM35.0666 4.26575C34.8301 4.09996 33.6255 4.37705 32.5577 4.66863C31.4888 4.95963 30.9352 5.65294 30.4917 6.11031C30.0477 6.56826 29.577 7.76126 30.352 7.95488C31.0737 8.13516 31.5444 7.53867 31.6836 7.12245C31.8221 6.70681 32.1549 5.87496 32.7513 5.45874C33.3467 5.04253 34.3321 4.8066 34.7066 4.76544C35.0805 4.72428 35.3031 4.4327 35.0666 4.26575ZM28.3701 2.54698C28.7434 2.31047 28.4106 1.96439 28.0924 2.11685C27.773 2.26931 26.8447 2.96262 26.5255 3.60027C26.2062 4.23851 24.997 6.62797 26.4417 6.72014C26.9829 6.7555 27.191 6.48479 27.2884 5.68019C27.3846 4.87558 26.9274 4.20604 27.2739 3.67969C27.6205 3.15333 27.995 2.78291 28.3701 2.54698ZM15.8964 5.90742C16.305 6.9126 18.471 6.34682 19.0677 5.62453C19.6643 4.90282 21.8721 3.41361 23.2126 2.76784C25.8201 1.51108 30.8117 1.1337 32.9473 2.13888C35.0828 3.14289 37.8149 5.97003 38.2868 8.45051C38.7569 10.9321 38.3175 13.7888 36.8729 16.2699C35.4278 18.7504 32.4447 19.9127 30.7178 20.2895C28.9903 20.6663 26.2594 20.3834 24.029 19.3475C21.7985 18.311 20.4183 16.678 20.6686 13.9465C20.9199 11.2139 21.8936 10.4922 23.4639 9.51829C25.0343 8.545 28.0483 8.9844 28.5828 9.58147C29.1173 10.178 29.337 11.3084 28.2373 11.9362C27.1382 12.5645 26.667 11.6846 25.913 11.8428C25.1589 11.9994 25.725 13.3181 26.479 13.6004C27.6101 14.0248 29.588 12.91 29.8697 11.4968C30.152 10.0841 29.7555 8.46326 27.3892 7.9798C24.4683 7.38272 21.3909 9.3925 20.6063 10.2719C19.8217 11.1518 18.1596 13.837 20.261 17.7151C22.4903 21.8285 27.8605 22.1421 31.6598 21.4529C36.8341 20.5138 39.4166 15.7673 39.4792 11.1205C39.5424 6.47262 37.4068 3.23796 33.7954 1.29137C30.1833 -0.655216 26.0386 0.0351906 24.3437 0.569084C22.6488 1.10355 20.45 2.20206 17.906 2.89305C15.362 3.58403 15.4876 4.90282 15.8964 5.90742ZM8.93781 7.08012C10.25 6.53522 9.25032 6.15495 9.06348 5.04253C8.93781 4.28662 9.14841 3.80606 9.85151 2.68031C10.2229 2.08497 11.1479 1.56846 12.2133 1.47572C13.2798 1.38354 15.2714 2.7261 16.707 2.7261C18.1427 2.7261 18.5593 1.84614 18.5593 1.84614C18.5593 1.84614 17.6795 1.84614 16.5213 1.84614C15.3642 1.84614 14.6679 1.15109 13.7429 0.78067C12.8156 0.410252 12.1669 -0.0998764 10.4991 0.502998C8.83254 1.10529 7.99814 2.9116 7.53502 4.16198C7.07197 5.41295 7.9415 7.49576 8.93781 7.08012Z" fill="#A61B20"/>
</svg>
