<svg width="25" height="25" viewBox="0 0 25 25" fill="none" xmlns="http://www.w3.org/2000/svg">
<path fill-rule="evenodd" clip-rule="evenodd" d="M20.8332 4.16666C22.5591 4.16666 23.9582 5.56578 23.9582 7.29166V17.7083C23.9582 19.4343 22.5591 20.8333 20.8332 20.8333H4.1665C2.44062 20.8333 1.0415 19.4343 1.0415 17.7083V7.29166C1.0415 5.56578 2.44062 4.16666 4.1665 4.16666H20.8332ZM20.0549 6.25H4.94482L11.8544 11.7049C12.2329 12.0037 12.7668 12.0037 13.1454 11.7049L20.0549 6.25ZM3.12484 7.4675V17.7083C3.12484 18.2836 3.59121 18.75 4.1665 18.75H20.8332C21.4085 18.75 21.8748 18.2836 21.8748 17.7083V7.46752L14.4362 13.3401C13.3009 14.2365 11.6988 14.2365 10.5635 13.3401L3.12484 7.4675Z" fill="#0F0F0F"/>
</svg>
