<svg width="94" height="108" viewBox="0 0 94 108" fill="none" xmlns="http://www.w3.org/2000/svg">
<path d="M46.9984 77.222C46.9928 77.2168 46.9842 77.2092 46.9795 77.2048C46.9851 77.2099 46.992 77.2161 46.9984 77.222Z" fill="#57BF42"/>
<path d="M22.5454 49.5455C22.5912 49.5157 22.6391 49.487 22.6857 49.4573C22.6391 49.487 22.5914 49.5155 22.5454 49.5455Z" fill="#57BF42"/>
<path d="M23.8286 48.8148C23.904 48.7782 23.9804 48.7444 24.0566 48.7099C23.9802 48.7442 23.904 48.7782 23.8286 48.8148Z" fill="#57BF42"/>
<path d="M28.9258 48.7453C29.0178 48.8065 29.1104 48.867 29.2009 48.9376C29.1104 48.867 29.0182 48.8065 28.9258 48.7453Z" fill="#57BF42"/>
<path d="M22.96 49.2861C23.0181 49.2513 23.078 49.218 23.1374 49.184C23.0784 49.2181 23.0183 49.2511 22.96 49.2861Z" fill="#57BF42"/>
<path d="M47.8419 77.9622C47.801 77.9273 47.7648 77.8964 47.7266 77.8636C47.7651 77.8968 47.8005 77.9271 47.8419 77.9622Z" fill="#57BF42"/>
<path d="M47.3141 77.5058C47.2867 77.4815 47.2604 77.4582 47.2358 77.4366C47.2607 77.4586 47.2861 77.481 47.3141 77.5058Z" fill="#57BF42"/>
<path d="M47.5546 77.7163C47.5163 77.6833 47.4811 77.6525 47.4463 77.6222C47.4816 77.6528 47.5158 77.6826 47.5546 77.7163Z" fill="#57BF42"/>
<path d="M47.1271 77.3391C47.1105 77.3242 47.0921 77.3076 47.0776 77.2944C47.0927 77.3081 47.1093 77.3231 47.1271 77.3391Z" fill="#57BF42"/>
<path d="M27.5669 48.1666C27.661 48.1868 27.755 48.2087 27.8483 48.236C27.755 48.2087 27.6614 48.1869 27.5669 48.1666Z" fill="#57BF42"/>
<path d="M48.7278 78.6911C48.6748 78.6486 48.6192 78.6043 48.5684 78.5632C48.6193 78.6045 48.6746 78.6484 48.7278 78.6911Z" fill="#57BF42"/>
<path d="M24.2803 48.6101C24.3611 48.5762 24.4428 48.5449 24.5245 48.5132C24.4426 48.545 24.3612 48.5758 24.2803 48.6101Z" fill="#57BF42"/>
<path d="M28.4834 48.4887C28.5762 48.5348 28.6691 48.5811 28.7608 48.6357C28.6691 48.5811 28.5763 48.535 28.4834 48.4887Z" fill="#57BF42"/>
<path d="M28.0293 48.2969C28.123 48.3294 28.2166 48.3629 28.3091 48.4033C28.2164 48.363 28.1229 48.3298 28.0293 48.2969Z" fill="#57BF42"/>
<path d="M25.2075 48.2847C25.2948 48.2605 25.3825 48.2392 25.4703 48.2185C25.3825 48.2392 25.295 48.2603 25.2075 48.2847Z" fill="#57BF42"/>
<path d="M24.7402 48.4321C24.8249 48.4022 24.91 48.3754 24.995 48.3488C24.9098 48.3755 24.8249 48.4022 24.7402 48.4321Z" fill="#57BF42"/>
<path d="M25.6787 48.173C25.7689 48.1552 25.8591 48.1402 25.9496 48.1271C25.8592 48.1404 25.7689 48.1552 25.6787 48.173Z" fill="#57BF42"/>
<path d="M26.627 48.073C26.7198 48.0721 26.8127 48.0734 26.9054 48.0781C26.8126 48.0732 26.7201 48.0719 26.627 48.073Z" fill="#57BF42"/>
<path d="M49.2083 79.0713C49.1394 79.0177 49.0699 78.9633 49.0039 78.9111C49.0701 78.9635 49.1392 79.0174 49.2083 79.0713Z" fill="#57BF42"/>
<path d="M61.6769 86.133C61.5375 86.0827 61.4002 86.0295 61.2622 85.9776C61.4002 86.0295 61.5375 86.0823 61.6769 86.133Z" fill="#57BF42"/>
<path d="M59.6708 85.3384C59.5269 85.2767 59.3834 85.2146 59.2412 85.1517C59.3838 85.2147 59.5269 85.2767 59.6708 85.3384Z" fill="#57BF42"/>
<path d="M58.6939 84.904C58.5579 84.8415 58.4216 84.779 58.2871 84.7155C58.4217 84.7792 58.5578 84.8413 58.6939 84.904Z" fill="#57BF42"/>
<path d="M62.7089 86.4893C62.6192 86.4602 62.5316 86.428 62.4424 86.3981C62.5316 86.428 62.6193 86.4598 62.7089 86.4893Z" fill="#57BF42"/>
<path d="M65.2587 87.2044C65.1079 87.1688 64.9568 87.1338 64.8071 87.0958C64.957 87.1336 65.1079 87.1684 65.2587 87.2044Z" fill="#57BF42"/>
<path d="M76.6984 83.4223C69.3056 82.3248 58.7478 78.2721 50.4313 65.1967C42.1535 52.1822 37.3095 43.7849 35.3898 40.3724C35.266 40.4517 30.9115 42.9322 32.6942 46.8588C33.0941 47.7392 32.7677 48.6647 31.9759 49.2191C31.9689 49.224 31.9615 49.2292 31.9546 49.234C31.1719 49.7821 30.1939 49.82 29.5069 49.1528C29.3856 49.0351 29.3039 48.9932 29.1789 48.8943C27.8439 49.1084 26.5501 49.8457 25.4667 50.6036C27.7719 54.3105 35.0974 64.9648 50.1894 77.9021C50.2157 77.9248 50.2471 77.9559 50.2724 77.98C50.3626 78.0657 57.3992 84.6578 66.6182 87.4873C68.4234 87.8239 70.2847 87.9952 72.1721 87.9184C76.4463 87.7449 80.4394 86.3452 84.0698 83.7491C81.9457 83.8716 79.4392 83.8293 76.6984 83.4223Z" fill="#57BF42"/>
<path d="M57.7136 84.4373C57.5969 84.3798 57.4786 84.3231 57.3633 84.2653C57.4787 84.3233 57.5967 84.3799 57.7136 84.4373Z" fill="#57BF42"/>
<path d="M52.4475 81.4017C52.3537 81.3394 52.2578 81.2768 52.166 81.2151C52.2579 81.277 52.3535 81.3396 52.4475 81.4017Z" fill="#57BF42"/>
<path d="M51.551 80.796C51.4863 80.7513 51.4247 80.7077 51.3613 80.6633C51.4247 80.7077 51.4866 80.7511 51.551 80.796Z" fill="#57BF42"/>
<path d="M50.2747 79.8818C50.1923 79.821 50.1129 79.7617 50.0332 79.7019C50.1133 79.7618 50.1923 79.821 50.2747 79.8818Z" fill="#57BF42"/>
<path d="M49.7203 79.4659C49.6437 79.4078 49.5684 79.3502 49.4946 79.2934C49.5685 79.3504 49.6434 79.4074 49.7203 79.4659Z" fill="#57BF42"/>
<path d="M53.2045 81.8939C53.0953 81.8244 52.9857 81.7548 52.8789 81.6855C52.9858 81.755 53.0953 81.8244 53.2045 81.8939Z" fill="#57BF42"/>
<path d="M55.6252 83.3425C55.5067 83.2765 55.3917 83.2097 55.2749 83.1433C55.3917 83.2097 55.5068 83.2761 55.6252 83.3425Z" fill="#57BF42"/>
<path d="M56.5366 83.8385C56.4403 83.7874 56.3466 83.7359 56.2515 83.6846C56.3467 83.7361 56.4403 83.7874 56.5366 83.8385Z" fill="#57BF42"/>
<path d="M54.7877 82.8623C54.6662 82.791 54.5469 82.7201 54.4277 82.6488C54.5469 82.7201 54.666 82.7912 54.7877 82.8623Z" fill="#57BF42"/>
<path d="M53.9826 82.3801C53.8649 82.3081 53.7481 82.2361 53.6328 82.1644C53.7483 82.236 53.8647 82.3079 53.9826 82.3801Z" fill="#57BF42"/>
<path d="M33.1181 36.7005C30.9392 34.8606 28.2574 34.3311 25.147 35.1274C24.3367 35.335 23.4829 35.0145 23.0086 34.3251C22.9744 34.2753 22.8007 34.0143 22.5692 33.5639C22.2325 33.4183 21.9163 33.1599 21.6988 32.8438C21.5312 32.5998 18.1415 27.5031 20.5996 18.9835L20.5991 18.9838C20.476 19.07 20.2113 18.9371 20.0426 18.9144C16.6585 26.5263 21.6778 35.3386 21.7308 35.43C22.144 36.1423 22.0812 37.041 21.5664 37.6837C19.3827 40.4103 19.7843 43.6276 20.6308 46.0311C20.4562 46.1401 20.2825 46.255 20.1073 46.3734C23.0392 44.392 25.9188 43.6822 28.456 44.245C28.6685 41.9806 29.7778 39.4172 32.738 37.3444C32.9409 37.2024 33.1523 37.0641 33.3704 36.9285C33.2867 36.8524 33.2068 36.7753 33.1181 36.7005Z" fill="#84BD93"/>
<path d="M23.1738 33.7198C23.1832 33.7207 23.1927 33.7228 23.2021 33.7237C23.1927 33.7228 23.1834 33.7206 23.1738 33.7198Z" fill="#84BD93"/>
<path d="M89.761 78.8151C89.708 78.8324 84.3883 80.5314 77.2836 79.4769C67.7266 78.0579 59.8246 72.5334 53.7967 63.0564C43.287 46.5324 35.8521 26.3442 24.4547 29.4823C23.7056 27.5769 22.7715 23.3787 25.4953 17.4679C25.735 16.9475 25.7395 16.3497 25.5079 15.8261C25.276 15.3026 24.8303 14.9037 24.2845 14.7313C18.0663 12.7679 16.9257 13.5666 16.3774 13.9506C16.0778 14.1603 15.8401 14.4265 15.6705 14.7424C11.3646 22.7595 14.8703 31.6698 16.3902 34.8206C10.0179 45.0829 25.6704 64.1769 44.2277 80.0928C45.1789 80.9885 57.694 92.4876 72.3123 91.9069C77.3091 91.7079 81.939 90.1223 86.1462 87.1757C88.1508 85.7721 90.0602 84.0592 91.8664 82.0412C92.4684 81.3691 92.5438 80.3768 92.0508 79.621C91.5574 78.8655 90.6185 78.5348 89.761 78.8151ZM46.8605 77.0962C31.7686 64.1588 24.4537 53.5197 22.1485 49.8129C24.2714 48.3281 27.2834 47.0326 29.5918 49.2742C30.2788 49.9414 31.3423 50.0252 32.1248 49.4773C32.1317 49.4724 32.1391 49.4673 32.1459 49.4622C32.9306 48.8975 33.1789 47.8606 32.7791 46.9802C30.9963 43.054 35.2653 40.4514 35.3895 40.3722C37.3092 43.7846 42.1533 52.1822 50.431 65.1964C58.7474 78.2719 69.3053 82.3246 76.6981 83.4221C79.4388 83.829 81.946 83.8722 84.0701 83.7498C80.4396 86.3456 76.4473 87.7466 72.173 87.9199C58.9869 88.4553 47.0558 77.278 46.9383 77.166C46.9129 77.1424 46.8872 77.119 46.8605 77.0962ZM20.4469 33.985C20.3939 33.8936 15.3833 25.0936 18.7672 17.4815C19.3179 17.556 20.1161 17.7222 20.993 17.9435C17.7607 26.9447 21.5414 32.6132 21.7162 32.8679C22.1903 33.557 23.0441 33.8776 23.8545 33.6702C26.9648 32.8737 29.6467 33.4031 31.8255 35.243C32.4769 35.7931 32.996 36.3879 33.3899 36.9163C33.165 37.0556 32.9478 37.1986 32.7389 37.3449C29.7789 39.4175 28.6697 41.9815 28.457 44.2457C25.9197 43.6827 23.0409 44.3935 20.1088 46.3747C18.9194 44.0094 17.4837 39.7212 20.2783 36.2325C20.7928 35.59 20.8599 34.6974 20.4469 33.985Z" fill="#3F2D20"/>
</svg>
