<svg width="333" height="140" viewBox="0 0 333 140" fill="none" xmlns="http://www.w3.org/2000/svg">
<g clip-path="url(#clip0_239_2)">
<path d="M69.8057 93.1916C69.8002 93.1864 69.7916 93.1788 69.7869 93.1744C69.7924 93.1795 69.7993 93.1857 69.8057 93.1916Z" fill="#CE593F"/>
<path d="M45.3525 65.5151C45.3984 65.4853 45.4463 65.4566 45.4928 65.4269C45.4463 65.4566 45.3986 65.4851 45.3525 65.5151Z" fill="#CE593F"/>
<path d="M46.636 64.7844C46.7114 64.7478 46.7878 64.714 46.8639 64.6795C46.7876 64.7138 46.7114 64.7478 46.636 64.7844Z" fill="#CE593F"/>
<path d="M51.7332 64.7149C51.8252 64.7761 51.9177 64.8366 52.0083 64.9072C51.9177 64.8366 51.8256 64.7762 51.7332 64.7149Z" fill="#CE593F"/>
<path d="M45.7673 65.2558C45.8255 65.2209 45.8854 65.1877 45.9447 65.1536C45.8858 65.1877 45.8257 65.2207 45.7673 65.2558Z" fill="#CE593F"/>
<path d="M70.6495 93.9318C70.6086 93.897 70.5724 93.866 70.5342 93.8332C70.5727 93.8664 70.6081 93.8967 70.6495 93.9318Z" fill="#CE593F"/>
<path d="M70.1215 93.4754C70.0941 93.4511 70.0678 93.4278 70.0432 93.4062C70.0681 93.4282 70.0934 93.4506 70.1215 93.4754Z" fill="#CE593F"/>
<path d="M70.362 93.6859C70.3236 93.6529 70.2885 93.6221 70.2537 93.5918C70.289 93.6224 70.3232 93.6522 70.362 93.6859Z" fill="#CE593F"/>
<path d="M69.9344 93.3087C69.9178 93.2938 69.8994 93.2772 69.885 93.264C69.9001 93.2777 69.9167 93.2927 69.9344 93.3087Z" fill="#CE593F"/>
<path d="M50.3743 64.1362C50.4684 64.1564 50.5624 64.1783 50.6556 64.2056C50.5624 64.1783 50.4688 64.1565 50.3743 64.1362Z" fill="#CE593F"/>
<path d="M71.535 94.6607C71.4819 94.6182 71.4263 94.5739 71.3755 94.5328C71.4265 94.5741 71.4818 94.618 71.535 94.6607Z" fill="#CE593F"/>
<path d="M47.0874 64.5797C47.1682 64.5458 47.2499 64.5145 47.3316 64.4828C47.2497 64.5146 47.1683 64.5454 47.0874 64.5797Z" fill="#CE593F"/>
<path d="M51.291 64.4583C51.3838 64.5044 51.4768 64.5507 51.5684 64.6053C51.4768 64.5507 51.384 64.5046 51.291 64.4583Z" fill="#CE593F"/>
<path d="M50.8369 64.2665C50.9306 64.299 51.0243 64.3325 51.1167 64.3729C51.024 64.3326 50.9305 64.2994 50.8369 64.2665Z" fill="#CE593F"/>
<path d="M48.0149 64.2543C48.1022 64.2301 48.1899 64.2088 48.2777 64.1881C48.1899 64.2088 48.1024 64.2299 48.0149 64.2543Z" fill="#CE593F"/>
<path d="M47.5474 64.4017C47.632 64.3719 47.7171 64.345 47.8021 64.3185C47.7169 64.3451 47.632 64.3719 47.5474 64.4017Z" fill="#CE593F"/>
<path d="M48.4861 64.1426C48.5762 64.1248 48.6665 64.1098 48.7569 64.0967C48.6666 64.1101 48.5762 64.1248 48.4861 64.1426Z" fill="#CE593F"/>
<path d="M49.4343 64.0426C49.5272 64.0417 49.6201 64.043 49.7128 64.0477C49.6199 64.0428 49.5274 64.0415 49.4343 64.0426Z" fill="#CE593F"/>
<path d="M72.0155 95.0409C71.9465 94.9873 71.877 94.9329 71.811 94.8807C71.8772 94.9332 71.9463 94.987 72.0155 95.0409Z" fill="#CE593F"/>
<path d="M84.4846 102.103C84.3451 102.052 84.2079 101.999 84.0698 101.947C84.2079 101.999 84.3452 102.052 84.4846 102.103Z" fill="#CE593F"/>
<path d="M82.4782 101.308C82.3342 101.246 82.1908 101.184 82.0486 101.121C82.1911 101.184 82.3342 101.246 82.4782 101.308Z" fill="#CE593F"/>
<path d="M81.5013 100.874C81.3653 100.811 81.2289 100.749 81.0945 100.685C81.2291 100.749 81.3652 100.811 81.5013 100.874Z" fill="#CE593F"/>
<path d="M85.516 102.459C85.4263 102.43 85.3387 102.398 85.2495 102.368C85.3387 102.398 85.4264 102.429 85.516 102.459Z" fill="#CE593F"/>
<path d="M88.0661 103.174C87.9152 103.138 87.7641 103.103 87.6145 103.065C87.7643 103.103 87.9153 103.138 88.0661 103.174Z" fill="#CE593F"/>
<path d="M99.5055 99.3919C92.1127 98.2944 81.5549 94.2418 73.2385 81.1663C64.9606 68.1518 60.1166 59.7545 58.1969 56.342C58.0731 56.4213 53.7186 58.9018 55.5014 62.8284C55.9012 63.7088 55.5748 64.6343 54.783 65.1887C54.7761 65.1936 54.7687 65.1988 54.7617 65.2036C53.979 65.7517 53.0011 65.7896 52.3141 65.1224C52.1928 65.0047 52.111 64.9628 51.9861 64.8639C50.651 65.078 49.3573 65.8153 48.2738 66.5732C50.579 70.2801 57.9046 80.9344 72.9965 93.8717C73.0228 93.8944 73.0542 93.9255 73.0795 93.9496C73.1697 94.0353 80.2064 100.627 89.4254 103.457C91.2305 103.793 93.0918 103.965 94.9792 103.888C99.2534 103.715 103.247 102.315 106.877 99.7187C104.753 99.8412 102.246 99.7989 99.5055 99.3919Z" fill="#CE593F"/>
<path d="M80.5207 100.407C80.404 100.349 80.2857 100.293 80.1704 100.235C80.2858 100.293 80.4038 100.35 80.5207 100.407Z" fill="#CE593F"/>
<path d="M75.2546 97.3713C75.1609 97.309 75.0649 97.2464 74.9731 97.1847C75.0651 97.2466 75.1606 97.3092 75.2546 97.3713Z" fill="#CE593F"/>
<path d="M74.3586 96.7656C74.294 96.7209 74.2323 96.6773 74.1689 96.633C74.2323 96.6773 74.2942 96.7207 74.3586 96.7656Z" fill="#CE593F"/>
<path d="M73.0819 95.8514C72.9995 95.7906 72.92 95.7313 72.8403 95.6715C72.9204 95.7314 72.9995 95.7906 73.0819 95.8514Z" fill="#CE593F"/>
<path d="M72.5274 95.4355C72.4509 95.3774 72.3755 95.3198 72.3018 95.263C72.3757 95.32 72.4505 95.377 72.5274 95.4355Z" fill="#CE593F"/>
<path d="M76.0121 97.8636C75.9029 97.794 75.7933 97.7244 75.6865 97.6552C75.7935 97.7247 75.9029 97.794 76.0121 97.8636Z" fill="#CE593F"/>
<path d="M78.4328 99.3121C78.3144 99.2461 78.1993 99.1794 78.0825 99.1129C78.1993 99.1794 78.3144 99.2457 78.4328 99.3121Z" fill="#CE593F"/>
<path d="M79.344 99.8081C79.2477 99.757 79.154 99.7055 79.0588 99.6542C79.1541 99.7057 79.2477 99.757 79.344 99.8081Z" fill="#CE593F"/>
<path d="M77.595 98.8319C77.4736 98.7606 77.3543 98.6897 77.2351 98.6184C77.3543 98.6897 77.4733 98.7608 77.595 98.8319Z" fill="#CE593F"/>
<path d="M76.79 98.3497C76.6723 98.2777 76.5555 98.2057 76.4402 98.134C76.5557 98.2056 76.6721 98.2775 76.79 98.3497Z" fill="#CE593F"/>
<path d="M55.9257 52.6701C53.7468 50.8302 51.065 50.3008 47.9546 51.097C47.1443 51.3047 46.2905 50.9841 45.8163 50.2947C45.782 50.2449 45.6083 49.9839 45.3768 49.5335C45.0401 49.3879 44.7239 49.1295 44.5064 48.8134C44.3388 48.5694 40.9491 43.4727 43.4072 34.9531L43.4068 34.9534C43.2836 35.0396 43.0189 34.9067 42.8502 34.884C39.4661 42.4959 44.4854 51.3082 44.5384 51.3996C44.9517 52.1119 44.8888 53.0106 44.3741 53.6533C42.1903 56.3799 42.592 59.5972 43.4384 62.0007C43.2638 62.1097 43.0901 62.2246 42.915 62.343C45.8469 60.3616 48.7265 59.6518 51.2636 60.2146C51.4761 57.9502 52.5854 55.3868 55.5456 53.314C55.7485 53.172 55.9599 53.0337 56.178 52.8981C56.0943 52.822 56.0144 52.7449 55.9257 52.6701Z" fill="#84BD93"/>
<path d="M45.9817 49.6895C45.9911 49.6904 46.0006 49.6924 46.01 49.6933C46.0006 49.6924 45.9913 49.6902 45.9817 49.6895Z" fill="#84BD93"/>
<path d="M112.568 94.7847C112.515 94.8021 107.196 96.501 100.091 95.4465C90.534 94.0275 82.632 88.5031 76.604 79.026C66.0944 62.502 58.6595 42.3138 47.2621 45.4519C46.5129 43.5465 45.5789 39.3484 48.3027 33.4375C48.5424 32.9171 48.5469 32.3193 48.3153 31.7958C48.0834 31.2722 47.6377 30.8733 47.0919 30.7009C40.8737 28.7376 39.733 29.5363 39.1848 29.9202C38.8852 30.1299 38.6475 30.3961 38.4779 30.712C34.172 38.7291 37.6777 47.6394 39.1976 50.7902C32.8253 61.0525 48.4778 80.1465 67.0351 96.0624C67.9863 96.9581 80.5014 108.457 95.1197 107.876C100.116 107.678 104.746 106.092 108.954 103.145C110.958 101.742 112.868 100.029 114.674 98.0108C115.276 97.3387 115.351 96.3465 114.858 95.5906C114.365 94.8351 113.426 94.5045 112.568 94.7847ZM69.6679 93.0658C54.5759 80.1285 47.261 69.4894 44.9559 65.7825C47.0788 64.2977 50.0908 63.0022 52.3991 65.2438C53.0862 65.911 54.1497 65.9948 54.9321 65.4469C54.9391 65.442 54.9465 65.4369 54.9533 65.4318C55.7379 64.8672 55.9863 63.8302 55.5865 62.9499C53.8036 59.0236 58.0726 56.421 58.1969 56.3418C60.1166 59.7542 64.9607 68.1518 73.2384 81.166C81.5548 94.2415 92.1127 98.2942 99.5054 99.3917C102.246 99.7986 104.753 99.8418 106.877 99.7194C103.247 102.315 99.2547 103.716 94.9803 103.889C81.7943 104.425 69.8632 93.2476 69.7456 93.1357C69.7203 93.112 69.6945 93.0886 69.6679 93.0658ZM43.2542 49.9546C43.2012 49.8632 38.1906 41.0632 41.5746 33.4512C42.1253 33.5256 42.9235 33.6918 43.8004 33.9131C40.5681 42.9143 44.3488 48.5828 44.5236 48.8375C44.9977 49.5266 45.8515 49.8472 46.6619 49.6398C49.7722 48.8433 52.454 49.3728 54.6329 51.2126C55.2842 51.7628 55.8033 52.3575 56.1972 52.8859C55.9724 53.0252 55.7552 53.1682 55.5462 53.3145C52.5863 55.3871 51.4771 57.9511 51.2644 60.2153C48.7271 59.6523 45.8482 60.3632 42.9162 62.3443C41.7268 59.979 40.2911 55.6909 43.0857 52.2022C43.6002 51.5596 43.6673 50.667 43.2542 49.9546Z" fill="#3F2D20"/>
</g>
<g clip-path="url(#clip1_239_2)">
<path d="M162.806 93.1916C162.8 93.1864 162.792 93.1788 162.787 93.1744C162.792 93.1795 162.799 93.1857 162.806 93.1916Z" fill="#57BF42"/>
<path d="M138.353 65.5151C138.398 65.4853 138.446 65.4566 138.493 65.4269C138.446 65.4566 138.399 65.4851 138.353 65.5151Z" fill="#57BF42"/>
<path d="M139.636 64.7844C139.711 64.7478 139.788 64.714 139.864 64.6795C139.788 64.7138 139.711 64.7478 139.636 64.7844Z" fill="#57BF42"/>
<path d="M144.733 64.7149C144.825 64.7761 144.918 64.8366 145.008 64.9072C144.918 64.8366 144.826 64.7762 144.733 64.7149Z" fill="#57BF42"/>
<path d="M138.767 65.2558C138.825 65.2209 138.885 65.1877 138.945 65.1536C138.886 65.1877 138.826 65.2207 138.767 65.2558Z" fill="#57BF42"/>
<path d="M163.65 93.9318C163.609 93.897 163.572 93.866 163.534 93.8332C163.573 93.8664 163.608 93.8967 163.65 93.9318Z" fill="#57BF42"/>
<path d="M163.121 93.4754C163.094 93.4511 163.068 93.4278 163.043 93.4062C163.068 93.4282 163.093 93.4506 163.121 93.4754Z" fill="#57BF42"/>
<path d="M163.362 93.6859C163.324 93.6529 163.288 93.6221 163.254 93.5918C163.289 93.6224 163.323 93.6522 163.362 93.6859Z" fill="#57BF42"/>
<path d="M162.934 93.3087C162.918 93.2938 162.899 93.2772 162.885 93.264C162.9 93.2777 162.917 93.2927 162.934 93.3087Z" fill="#57BF42"/>
<path d="M143.374 64.1362C143.468 64.1564 143.562 64.1783 143.656 64.2056C143.562 64.1783 143.469 64.1565 143.374 64.1362Z" fill="#57BF42"/>
<path d="M164.535 94.6607C164.482 94.6182 164.426 94.5739 164.375 94.5328C164.426 94.5741 164.482 94.618 164.535 94.6607Z" fill="#57BF42"/>
<path d="M140.087 64.5797C140.168 64.5458 140.25 64.5145 140.332 64.4828C140.25 64.5146 140.168 64.5454 140.087 64.5797Z" fill="#57BF42"/>
<path d="M144.291 64.4583C144.384 64.5044 144.477 64.5507 144.568 64.6053C144.477 64.5507 144.384 64.5046 144.291 64.4583Z" fill="#57BF42"/>
<path d="M143.837 64.2665C143.931 64.299 144.024 64.3325 144.117 64.3729C144.024 64.3326 143.931 64.2994 143.837 64.2665Z" fill="#57BF42"/>
<path d="M141.015 64.2543C141.102 64.2301 141.19 64.2088 141.278 64.1881C141.19 64.2088 141.102 64.2299 141.015 64.2543Z" fill="#57BF42"/>
<path d="M140.547 64.4017C140.632 64.3719 140.717 64.345 140.802 64.3185C140.717 64.3451 140.632 64.3719 140.547 64.4017Z" fill="#57BF42"/>
<path d="M141.486 64.1426C141.576 64.1248 141.666 64.1098 141.757 64.0967C141.667 64.1101 141.576 64.1248 141.486 64.1426Z" fill="#57BF42"/>
<path d="M142.434 64.0426C142.527 64.0417 142.62 64.043 142.713 64.0477C142.62 64.0428 142.527 64.0415 142.434 64.0426Z" fill="#57BF42"/>
<path d="M165.015 95.0409C164.946 94.9873 164.877 94.9329 164.811 94.8807C164.877 94.9332 164.946 94.987 165.015 95.0409Z" fill="#57BF42"/>
<path d="M177.485 102.103C177.345 102.052 177.208 101.999 177.07 101.947C177.208 101.999 177.345 102.052 177.485 102.103Z" fill="#57BF42"/>
<path d="M175.478 101.308C175.334 101.246 175.191 101.184 175.049 101.121C175.191 101.184 175.334 101.246 175.478 101.308Z" fill="#57BF42"/>
<path d="M174.501 100.874C174.365 100.811 174.229 100.749 174.094 100.685C174.229 100.749 174.365 100.811 174.501 100.874Z" fill="#57BF42"/>
<path d="M178.516 102.459C178.426 102.43 178.339 102.398 178.25 102.368C178.339 102.398 178.426 102.429 178.516 102.459Z" fill="#57BF42"/>
<path d="M181.066 103.174C180.915 103.138 180.764 103.103 180.615 103.065C180.764 103.103 180.915 103.138 181.066 103.174Z" fill="#57BF42"/>
<path d="M192.506 99.3919C185.113 98.2944 174.555 94.2418 166.238 81.1663C157.961 68.1518 153.117 59.7545 151.197 56.342C151.073 56.4213 146.719 58.9018 148.501 62.8284C148.901 63.7088 148.575 64.6343 147.783 65.1887C147.776 65.1936 147.769 65.1988 147.762 65.2036C146.979 65.7517 146.001 65.7896 145.314 65.1224C145.193 65.0047 145.111 64.9628 144.986 64.8639C143.651 65.078 142.357 65.8153 141.274 66.5732C143.579 70.2801 150.905 80.9344 165.997 93.8717C166.023 93.8944 166.054 93.9255 166.08 93.9496C166.17 94.0353 173.206 100.627 182.425 103.457C184.231 103.793 186.092 103.965 187.979 103.888C192.253 103.715 196.247 102.315 199.877 99.7187C197.753 99.8412 195.246 99.7989 192.506 99.3919Z" fill="#57BF42"/>
<path d="M173.521 100.407C173.404 100.349 173.286 100.293 173.17 100.235C173.286 100.293 173.404 100.35 173.521 100.407Z" fill="#57BF42"/>
<path d="M168.255 97.3713C168.161 97.309 168.065 97.2464 167.973 97.1847C168.065 97.2466 168.161 97.3092 168.255 97.3713Z" fill="#57BF42"/>
<path d="M167.359 96.7656C167.294 96.7209 167.232 96.6773 167.169 96.633C167.232 96.6773 167.294 96.7207 167.359 96.7656Z" fill="#57BF42"/>
<path d="M166.082 95.8514C165.999 95.7906 165.92 95.7313 165.84 95.6715C165.92 95.7314 165.999 95.7906 166.082 95.8514Z" fill="#57BF42"/>
<path d="M165.527 95.4355C165.451 95.3774 165.376 95.3198 165.302 95.263C165.376 95.32 165.451 95.377 165.527 95.4355Z" fill="#57BF42"/>
<path d="M169.012 97.8636C168.903 97.794 168.793 97.7244 168.687 97.6552C168.793 97.7247 168.903 97.794 169.012 97.8636Z" fill="#57BF42"/>
<path d="M171.433 99.3121C171.314 99.2461 171.199 99.1794 171.083 99.1129C171.199 99.1794 171.314 99.2457 171.433 99.3121Z" fill="#57BF42"/>
<path d="M172.344 99.8081C172.248 99.757 172.154 99.7055 172.059 99.6542C172.154 99.7057 172.248 99.757 172.344 99.8081Z" fill="#57BF42"/>
<path d="M170.595 98.8319C170.474 98.7606 170.354 98.6897 170.235 98.6184C170.354 98.6897 170.473 98.7608 170.595 98.8319Z" fill="#57BF42"/>
<path d="M169.79 98.3497C169.672 98.2777 169.555 98.2057 169.44 98.134C169.556 98.2056 169.672 98.2775 169.79 98.3497Z" fill="#57BF42"/>
<path d="M148.926 52.6701C146.747 50.8302 144.065 50.3008 140.955 51.097C140.144 51.3047 139.291 50.9841 138.816 50.2947C138.782 50.2449 138.608 49.9839 138.377 49.5335C138.04 49.3879 137.724 49.1295 137.506 48.8134C137.339 48.5694 133.949 43.4727 136.407 34.9531L136.407 34.9534C136.284 35.0396 136.019 34.9067 135.85 34.884C132.466 42.4959 137.485 51.3082 137.538 51.3996C137.952 52.1119 137.889 53.0106 137.374 53.6533C135.19 56.3799 135.592 59.5972 136.438 62.0007C136.264 62.1097 136.09 62.2246 135.915 62.343C138.847 60.3616 141.726 59.6518 144.264 60.2146C144.476 57.9502 145.585 55.3868 148.546 53.314C148.749 53.172 148.96 53.0337 149.178 52.8981C149.094 52.822 149.014 52.7449 148.926 52.6701Z" fill="#84BD93"/>
<path d="M138.982 49.6895C138.991 49.6904 139.001 49.6924 139.01 49.6933C139.001 49.6924 138.991 49.6902 138.982 49.6895Z" fill="#84BD93"/>
<path d="M205.568 94.7847C205.515 94.8021 200.196 96.501 193.091 95.4465C183.534 94.0275 175.632 88.5031 169.604 79.026C159.094 62.502 151.659 42.3138 140.262 45.4519C139.513 43.5465 138.579 39.3484 141.303 33.4375C141.542 32.9171 141.547 32.3193 141.315 31.7958C141.083 31.2722 140.638 30.8733 140.092 30.7009C133.874 28.7376 132.733 29.5363 132.185 29.9202C131.885 30.1299 131.647 30.3961 131.478 30.712C127.172 38.7291 130.678 47.6394 132.198 50.7902C125.825 61.0525 141.478 80.1465 160.035 96.0624C160.986 96.9581 173.501 108.457 188.12 107.876C193.116 107.678 197.746 106.092 201.954 103.145C203.958 101.742 205.868 100.029 207.674 98.0108C208.276 97.3387 208.351 96.3465 207.858 95.5906C207.365 94.8351 206.426 94.5045 205.568 94.7847ZM162.668 93.0658C147.576 80.1285 140.261 69.4894 137.956 65.7825C140.079 64.2977 143.091 63.0022 145.399 65.2438C146.086 65.911 147.15 65.9948 147.932 65.4469C147.939 65.442 147.946 65.4369 147.953 65.4318C148.738 64.8672 148.986 63.8302 148.586 62.9499C146.804 59.0236 151.073 56.421 151.197 56.3418C153.117 59.7542 157.961 68.1518 166.238 81.166C174.555 94.2415 185.113 98.2942 192.505 99.3917C195.246 99.7986 197.753 99.8418 199.877 99.7194C196.247 102.315 192.255 103.716 187.98 103.889C174.794 104.425 162.863 93.2476 162.746 93.1357C162.72 93.112 162.695 93.0886 162.668 93.0658ZM136.254 49.9546C136.201 49.8632 131.191 41.0632 134.575 33.4512C135.125 33.5256 135.923 33.6918 136.8 33.9131C133.568 42.9143 137.349 48.5828 137.524 48.8375C137.998 49.5266 138.852 49.8472 139.662 49.6398C142.772 48.8433 145.454 49.3728 147.633 51.2126C148.284 51.7628 148.803 52.3575 149.197 52.8859C148.972 53.0252 148.755 53.1682 148.546 53.3145C145.586 55.3871 144.477 57.9511 144.264 60.2153C141.727 59.6523 138.848 60.3632 135.916 62.3443C134.727 59.979 133.291 55.6909 136.086 52.2022C136.6 51.5596 136.667 50.667 136.254 49.9546Z" fill="#3F2D20"/>
</g>
<g clip-path="url(#clip2_239_2)">
<path d="M262.806 93.1916C262.8 93.1864 262.792 93.1788 262.787 93.1744C262.792 93.1795 262.799 93.1857 262.806 93.1916Z" fill="#CE593F"/>
<path d="M238.353 65.5151C238.398 65.4853 238.446 65.4566 238.493 65.4269C238.446 65.4566 238.399 65.4851 238.353 65.5151Z" fill="#CE593F"/>
<path d="M239.636 64.7844C239.711 64.7478 239.788 64.714 239.864 64.6795C239.788 64.7138 239.711 64.7478 239.636 64.7844Z" fill="#CE593F"/>
<path d="M244.733 64.7149C244.825 64.7761 244.918 64.8366 245.008 64.9072C244.918 64.8366 244.826 64.7762 244.733 64.7149Z" fill="#CE593F"/>
<path d="M238.767 65.2558C238.825 65.2209 238.885 65.1877 238.945 65.1536C238.886 65.1877 238.826 65.2207 238.767 65.2558Z" fill="#CE593F"/>
<path d="M263.65 93.9318C263.609 93.897 263.572 93.866 263.534 93.8332C263.573 93.8664 263.608 93.8967 263.65 93.9318Z" fill="#CE593F"/>
<path d="M263.121 93.4754C263.094 93.4511 263.068 93.4278 263.043 93.4062C263.068 93.4282 263.093 93.4506 263.121 93.4754Z" fill="#CE593F"/>
<path d="M263.362 93.6859C263.324 93.6529 263.288 93.6221 263.254 93.5918C263.289 93.6224 263.323 93.6522 263.362 93.6859Z" fill="#CE593F"/>
<path d="M262.934 93.3087C262.918 93.2938 262.899 93.2772 262.885 93.264C262.9 93.2777 262.917 93.2927 262.934 93.3087Z" fill="#CE593F"/>
<path d="M243.374 64.1362C243.468 64.1564 243.562 64.1783 243.656 64.2056C243.562 64.1783 243.469 64.1565 243.374 64.1362Z" fill="#CE593F"/>
<path d="M264.535 94.6607C264.482 94.6182 264.426 94.5739 264.375 94.5328C264.426 94.5741 264.482 94.618 264.535 94.6607Z" fill="#CE593F"/>
<path d="M240.087 64.5797C240.168 64.5458 240.25 64.5145 240.332 64.4828C240.25 64.5146 240.168 64.5454 240.087 64.5797Z" fill="#CE593F"/>
<path d="M244.291 64.4583C244.384 64.5044 244.477 64.5507 244.568 64.6053C244.477 64.5507 244.384 64.5046 244.291 64.4583Z" fill="#CE593F"/>
<path d="M243.837 64.2665C243.931 64.299 244.024 64.3325 244.117 64.3729C244.024 64.3326 243.931 64.2994 243.837 64.2665Z" fill="#CE593F"/>
<path d="M241.015 64.2543C241.102 64.2301 241.19 64.2088 241.278 64.1881C241.19 64.2088 241.102 64.2299 241.015 64.2543Z" fill="#CE593F"/>
<path d="M240.547 64.4017C240.632 64.3719 240.717 64.345 240.802 64.3185C240.717 64.3451 240.632 64.3719 240.547 64.4017Z" fill="#CE593F"/>
<path d="M241.486 64.1426C241.576 64.1248 241.666 64.1098 241.757 64.0967C241.667 64.1101 241.576 64.1248 241.486 64.1426Z" fill="#CE593F"/>
<path d="M242.434 64.0426C242.527 64.0417 242.62 64.043 242.713 64.0477C242.62 64.0428 242.527 64.0415 242.434 64.0426Z" fill="#CE593F"/>
<path d="M265.015 95.0409C264.946 94.9873 264.877 94.9329 264.811 94.8807C264.877 94.9332 264.946 94.987 265.015 95.0409Z" fill="#CE593F"/>
<path d="M277.485 102.103C277.345 102.052 277.208 101.999 277.07 101.947C277.208 101.999 277.345 102.052 277.485 102.103Z" fill="#CE593F"/>
<path d="M275.478 101.308C275.334 101.246 275.191 101.184 275.049 101.121C275.191 101.184 275.334 101.246 275.478 101.308Z" fill="#CE593F"/>
<path d="M274.501 100.874C274.365 100.811 274.229 100.749 274.094 100.685C274.229 100.749 274.365 100.811 274.501 100.874Z" fill="#CE593F"/>
<path d="M278.516 102.459C278.426 102.43 278.339 102.398 278.25 102.368C278.339 102.398 278.426 102.429 278.516 102.459Z" fill="#CE593F"/>
<path d="M281.066 103.174C280.915 103.138 280.764 103.103 280.615 103.065C280.764 103.103 280.915 103.138 281.066 103.174Z" fill="#CE593F"/>
<path d="M292.506 99.3919C285.113 98.2944 274.555 94.2418 266.238 81.1663C257.961 68.1518 253.117 59.7545 251.197 56.342C251.073 56.4213 246.719 58.9018 248.501 62.8284C248.901 63.7088 248.575 64.6343 247.783 65.1887C247.776 65.1936 247.769 65.1988 247.762 65.2036C246.979 65.7517 246.001 65.7896 245.314 65.1224C245.193 65.0047 245.111 64.9628 244.986 64.8639C243.651 65.078 242.357 65.8153 241.274 66.5732C243.579 70.2801 250.905 80.9344 265.997 93.8717C266.023 93.8944 266.054 93.9255 266.08 93.9496C266.17 94.0353 273.206 100.627 282.425 103.457C284.231 103.793 286.092 103.965 287.979 103.888C292.253 103.715 296.247 102.315 299.877 99.7187C297.753 99.8412 295.246 99.7989 292.506 99.3919Z" fill="#CE593F"/>
<path d="M273.521 100.407C273.404 100.349 273.286 100.293 273.17 100.235C273.286 100.293 273.404 100.35 273.521 100.407Z" fill="#CE593F"/>
<path d="M268.255 97.3713C268.161 97.309 268.065 97.2464 267.973 97.1847C268.065 97.2466 268.161 97.3092 268.255 97.3713Z" fill="#CE593F"/>
<path d="M267.359 96.7656C267.294 96.7209 267.232 96.6773 267.169 96.633C267.232 96.6773 267.294 96.7207 267.359 96.7656Z" fill="#CE593F"/>
<path d="M266.082 95.8514C265.999 95.7906 265.92 95.7313 265.84 95.6715C265.92 95.7314 265.999 95.7906 266.082 95.8514Z" fill="#CE593F"/>
<path d="M265.527 95.4355C265.451 95.3774 265.376 95.3198 265.302 95.263C265.376 95.32 265.451 95.377 265.527 95.4355Z" fill="#CE593F"/>
<path d="M269.012 97.8636C268.903 97.794 268.793 97.7244 268.687 97.6552C268.793 97.7247 268.903 97.794 269.012 97.8636Z" fill="#CE593F"/>
<path d="M271.433 99.3121C271.314 99.2461 271.199 99.1794 271.083 99.1129C271.199 99.1794 271.314 99.2457 271.433 99.3121Z" fill="#CE593F"/>
<path d="M272.344 99.8081C272.248 99.757 272.154 99.7055 272.059 99.6542C272.154 99.7057 272.248 99.757 272.344 99.8081Z" fill="#CE593F"/>
<path d="M270.595 98.8319C270.474 98.7606 270.354 98.6897 270.235 98.6184C270.354 98.6897 270.473 98.7608 270.595 98.8319Z" fill="#CE593F"/>
<path d="M269.79 98.3497C269.672 98.2777 269.555 98.2057 269.44 98.134C269.556 98.2056 269.672 98.2775 269.79 98.3497Z" fill="#CE593F"/>
<path d="M248.926 52.6701C246.747 50.8302 244.065 50.3008 240.955 51.097C240.144 51.3047 239.291 50.9841 238.816 50.2947C238.782 50.2449 238.608 49.9839 238.377 49.5335C238.04 49.3879 237.724 49.1295 237.506 48.8134C237.339 48.5694 233.949 43.4727 236.407 34.9531L236.407 34.9534C236.284 35.0396 236.019 34.9067 235.85 34.884C232.466 42.4959 237.485 51.3082 237.538 51.3996C237.952 52.1119 237.889 53.0106 237.374 53.6533C235.19 56.3799 235.592 59.5972 236.438 62.0007C236.264 62.1097 236.09 62.2246 235.915 62.343C238.847 60.3616 241.726 59.6518 244.264 60.2146C244.476 57.9502 245.585 55.3868 248.546 53.314C248.749 53.172 248.96 53.0337 249.178 52.8981C249.094 52.822 249.014 52.7449 248.926 52.6701Z" fill="#84BD93"/>
<path d="M238.982 49.6895C238.991 49.6904 239.001 49.6924 239.01 49.6933C239.001 49.6924 238.991 49.6902 238.982 49.6895Z" fill="#84BD93"/>
<path d="M305.568 94.7847C305.515 94.8021 300.196 96.501 293.091 95.4465C283.534 94.0275 275.632 88.5031 269.604 79.026C259.094 62.502 251.659 42.3138 240.262 45.4519C239.513 43.5465 238.579 39.3484 241.303 33.4375C241.542 32.9171 241.547 32.3193 241.315 31.7958C241.083 31.2722 240.638 30.8733 240.092 30.7009C233.874 28.7376 232.733 29.5363 232.185 29.9202C231.885 30.1299 231.647 30.3961 231.478 30.712C227.172 38.7291 230.678 47.6394 232.198 50.7902C225.825 61.0525 241.478 80.1465 260.035 96.0624C260.986 96.9581 273.501 108.457 288.12 107.876C293.116 107.678 297.746 106.092 301.954 103.145C303.958 101.742 305.868 100.029 307.674 98.0108C308.276 97.3387 308.351 96.3465 307.858 95.5906C307.365 94.8351 306.426 94.5045 305.568 94.7847ZM262.668 93.0658C247.576 80.1285 240.261 69.4894 237.956 65.7825C240.079 64.2977 243.091 63.0022 245.399 65.2438C246.086 65.911 247.15 65.9948 247.932 65.4469C247.939 65.442 247.946 65.4369 247.953 65.4318C248.738 64.8672 248.986 63.8302 248.586 62.9499C246.804 59.0236 251.073 56.421 251.197 56.3418C253.117 59.7542 257.961 68.1518 266.238 81.166C274.555 94.2415 285.113 98.2942 292.505 99.3917C295.246 99.7986 297.753 99.8418 299.877 99.7194C296.247 102.315 292.255 103.716 287.98 103.889C274.794 104.425 262.863 93.2476 262.746 93.1357C262.72 93.112 262.695 93.0886 262.668 93.0658ZM236.254 49.9546C236.201 49.8632 231.191 41.0632 234.575 33.4512C235.125 33.5256 235.923 33.6918 236.8 33.9131C233.568 42.9143 237.349 48.5828 237.524 48.8375C237.998 49.5266 238.852 49.8472 239.662 49.6398C242.772 48.8433 245.454 49.3728 247.633 51.2126C248.284 51.7628 248.803 52.3575 249.197 52.8859C248.972 53.0252 248.755 53.1682 248.546 53.3145C245.586 55.3871 244.477 57.9511 244.264 60.2153C241.727 59.6523 238.848 60.3632 235.916 62.3443C234.727 59.979 233.291 55.6909 236.086 52.2022C236.6 51.5596 236.667 50.667 236.254 49.9546Z" fill="#3F2D20"/>
</g>
<defs>
<clipPath id="clip0_239_2">
<rect width="100" height="100" fill="white" transform="translate(0 57.3577) rotate(-35)"/>
</clipPath>
<clipPath id="clip1_239_2">
<rect width="100" height="100" fill="white" transform="translate(93 57.3577) rotate(-35)"/>
</clipPath>
<clipPath id="clip2_239_2">
<rect width="100" height="100" fill="white" transform="translate(193 57.3577) rotate(-35)"/>
</clipPath>
</defs>
</svg>
