<svg width="140" height="140" viewBox="0 0 140 140" fill="none" xmlns="http://www.w3.org/2000/svg">
<g clip-path="url(#clip0_108_388)">
<path d="M69.806 93.1916C69.8004 93.1864 69.7918 93.1788 69.7871 93.1744C69.7927 93.1796 69.7996 93.1857 69.806 93.1916Z" fill="#CE593F"/>
<path d="M45.353 65.5151C45.3988 65.4853 45.4467 65.4566 45.4933 65.4269C45.4467 65.4566 45.3991 65.4851 45.353 65.5151Z" fill="#CE593F"/>
<path d="M46.6362 64.7844C46.7116 64.7478 46.788 64.7141 46.8642 64.6795C46.7879 64.7138 46.7116 64.7478 46.6362 64.7844Z" fill="#CE593F"/>
<path d="M51.7334 64.7149C51.8254 64.7761 51.918 64.8366 52.0085 64.9072C51.918 64.8366 51.8258 64.7762 51.7334 64.7149Z" fill="#CE593F"/>
<path d="M45.7676 65.2558C45.8257 65.2209 45.8856 65.1877 45.945 65.1536C45.886 65.1877 45.8259 65.2207 45.7676 65.2558Z" fill="#CE593F"/>
<path d="M70.6495 93.9318C70.6086 93.897 70.5724 93.866 70.5342 93.8332C70.5727 93.8664 70.6081 93.8967 70.6495 93.9318Z" fill="#CE593F"/>
<path d="M70.1217 93.4754C70.0944 93.4511 70.068 93.4278 70.0435 93.4062C70.0683 93.4283 70.0937 93.4506 70.1217 93.4754Z" fill="#CE593F"/>
<path d="M70.3622 93.6859C70.3239 93.6529 70.2887 93.6222 70.2539 93.5918C70.2893 93.6224 70.3234 93.6523 70.3622 93.6859Z" fill="#CE593F"/>
<path d="M69.9347 93.3087C69.9181 93.2938 69.8997 93.2772 69.8853 93.264C69.9004 93.2777 69.917 93.2927 69.9347 93.3087Z" fill="#CE593F"/>
<path d="M50.3745 64.1362C50.4686 64.1564 50.5626 64.1783 50.6559 64.2056C50.5626 64.1783 50.469 64.1565 50.3745 64.1362Z" fill="#CE593F"/>
<path d="M71.5355 94.6607C71.4824 94.6182 71.4268 94.5739 71.376 94.5328C71.4269 94.5741 71.4822 94.618 71.5355 94.6607Z" fill="#CE593F"/>
<path d="M47.0879 64.5797C47.1687 64.5458 47.2504 64.5145 47.3321 64.4828C47.2502 64.5146 47.1688 64.5454 47.0879 64.5797Z" fill="#CE593F"/>
<path d="M51.291 64.4584C51.3838 64.5044 51.4768 64.5507 51.5684 64.6053C51.4768 64.5507 51.384 64.5046 51.291 64.4584Z" fill="#CE593F"/>
<path d="M50.8369 64.2665C50.9306 64.299 51.0243 64.3325 51.1167 64.373C51.024 64.3326 50.9305 64.2994 50.8369 64.2665Z" fill="#CE593F"/>
<path d="M48.0151 64.2543C48.1024 64.2301 48.1901 64.2088 48.278 64.1881C48.1901 64.2088 48.1026 64.2299 48.0151 64.2543Z" fill="#CE593F"/>
<path d="M47.5479 64.4017C47.6325 64.3719 47.7176 64.345 47.8026 64.3185C47.7174 64.3451 47.6325 64.3719 47.5479 64.4017Z" fill="#CE593F"/>
<path d="M48.4863 64.1426C48.5765 64.1248 48.6667 64.1098 48.7572 64.0967C48.6669 64.1101 48.5765 64.1248 48.4863 64.1426Z" fill="#CE593F"/>
<path d="M49.4346 64.0426C49.5275 64.0417 49.6203 64.043 49.713 64.0477C49.6202 64.0428 49.5277 64.0415 49.4346 64.0426Z" fill="#CE593F"/>
<path d="M72.016 95.0409C71.947 94.9873 71.8775 94.9329 71.8115 94.8808C71.8777 94.9332 71.9468 94.9871 72.016 95.0409Z" fill="#CE593F"/>
<path d="M84.4846 102.103C84.3451 102.052 84.2079 101.999 84.0698 101.947C84.2079 101.999 84.3452 102.052 84.4846 102.103Z" fill="#CE593F"/>
<path d="M82.4784 101.308C82.3345 101.246 82.191 101.184 82.0488 101.121C82.1914 101.184 82.3345 101.246 82.4784 101.308Z" fill="#CE593F"/>
<path d="M81.5015 100.874C81.3655 100.811 81.2292 100.749 81.0947 100.685C81.2293 100.749 81.3654 100.811 81.5015 100.874Z" fill="#CE593F"/>
<path d="M85.5165 102.459C85.4268 102.43 85.3392 102.398 85.25 102.368C85.3392 102.398 85.4269 102.429 85.5165 102.459Z" fill="#CE593F"/>
<path d="M88.0663 103.174C87.9155 103.138 87.7644 103.103 87.6147 103.065C87.7646 103.103 87.9155 103.138 88.0663 103.174Z" fill="#CE593F"/>
<path d="M99.506 99.392C92.1132 98.2944 81.5554 94.2418 73.239 81.1663C64.9611 68.1519 60.1171 59.7545 58.1974 56.342C58.0736 56.4213 53.7191 58.9019 55.5019 62.8285C55.9017 63.7088 55.5753 64.6343 54.7835 65.1887C54.7765 65.1936 54.7692 65.1988 54.7622 65.2036C53.9795 65.7517 53.0016 65.7896 52.3145 65.1224C52.1933 65.0047 52.1115 64.9628 51.9865 64.8639C50.6515 65.078 49.3577 65.8153 48.2743 66.5732C50.5795 70.2801 57.9051 80.9344 72.997 93.8717C73.0233 93.8944 73.0547 93.9255 73.08 93.9496C73.1702 94.0354 80.2069 100.627 89.4259 103.457C91.231 103.793 93.0923 103.965 94.9797 103.888C99.2539 103.715 103.247 102.315 106.877 99.7187C104.753 99.8412 102.247 99.7989 99.506 99.392Z" fill="#CE593F"/>
<path d="M80.5212 100.407C80.4045 100.349 80.2862 100.293 80.1709 100.235C80.2863 100.293 80.4043 100.35 80.5212 100.407Z" fill="#CE593F"/>
<path d="M75.2551 97.3713C75.1614 97.309 75.0654 97.2464 74.9736 97.1847C75.0655 97.2466 75.1611 97.3092 75.2551 97.3713Z" fill="#CE593F"/>
<path d="M74.3586 96.7656C74.294 96.7209 74.2323 96.6773 74.1689 96.633C74.2323 96.6773 74.2942 96.7207 74.3586 96.7656Z" fill="#CE593F"/>
<path d="M73.0823 95.8514C73 95.7906 72.9205 95.7313 72.8408 95.6716C72.9209 95.7314 73 95.7906 73.0823 95.8514Z" fill="#CE593F"/>
<path d="M72.5279 95.4355C72.4513 95.3774 72.376 95.3198 72.3022 95.263C72.3762 95.32 72.451 95.377 72.5279 95.4355Z" fill="#CE593F"/>
<path d="M76.0121 97.8636C75.9029 97.794 75.7933 97.7244 75.6865 97.6552C75.7935 97.7247 75.9029 97.794 76.0121 97.8636Z" fill="#CE593F"/>
<path d="M78.4328 99.3121C78.3144 99.2461 78.1993 99.1794 78.0825 99.1129C78.1993 99.1794 78.3144 99.2457 78.4328 99.3121Z" fill="#CE593F"/>
<path d="M79.3442 99.8081C79.2479 99.757 79.1542 99.7055 79.0591 99.6543C79.1544 99.7057 79.2479 99.757 79.3442 99.8081Z" fill="#CE593F"/>
<path d="M77.5953 98.832C77.4738 98.7607 77.3545 98.6897 77.2354 98.6185C77.3545 98.6897 77.4736 98.7608 77.5953 98.832Z" fill="#CE593F"/>
<path d="M76.7903 98.3497C76.6725 98.2777 76.5557 98.2057 76.4404 98.134C76.556 98.2056 76.6724 98.2775 76.7903 98.3497Z" fill="#CE593F"/>
<path d="M55.9257 52.6701C53.7468 50.8302 51.065 50.3008 47.9546 51.097C47.1443 51.3047 46.2905 50.9841 45.8163 50.2948C45.782 50.2449 45.6083 49.9839 45.3768 49.5335C45.0401 49.3879 44.7239 49.1296 44.5064 48.8134C44.3388 48.5694 40.9491 43.4728 43.4072 34.9531L43.4068 34.9534C43.2836 35.0397 43.0189 34.9068 42.8502 34.8841C39.4661 42.4959 44.4854 51.3082 44.5384 51.3997C44.9517 52.1119 44.8888 53.0106 44.3741 53.6533C42.1903 56.3799 42.592 59.5973 43.4384 62.0008C43.2638 62.1097 43.0901 62.2246 42.915 62.343C45.8469 60.3616 48.7265 59.6519 51.2636 60.2146C51.4761 57.9502 52.5854 55.3868 55.5456 53.3141C55.7485 53.172 55.9599 53.0337 56.178 52.8981C56.0943 52.8221 56.0144 52.745 55.9257 52.6701Z" fill="#84BD93"/>
<path d="M45.9814 49.6895C45.9908 49.6904 46.0003 49.6924 46.0097 49.6933C46.0003 49.6924 45.991 49.6902 45.9814 49.6895Z" fill="#84BD93"/>
<path d="M112.569 94.7847C112.516 94.8021 107.196 96.501 100.091 95.4465C90.5342 94.0275 82.6322 88.5031 76.6043 79.026C66.0946 62.502 58.6597 42.3138 47.2624 45.4519C46.5132 43.5465 45.5792 39.3484 48.3029 33.4375C48.5426 32.9171 48.5471 32.3193 48.3155 31.7958C48.0836 31.2722 47.6379 30.8733 47.0921 30.7009C40.874 28.7376 39.7333 29.5363 39.185 29.9202C38.8854 30.1299 38.6477 30.3961 38.4782 30.712C34.1722 38.7291 37.678 47.6394 39.1979 50.7902C32.8256 61.0525 48.478 80.1465 67.0353 96.0625C67.9866 96.9581 80.5017 108.457 95.1199 107.876C100.117 107.678 104.747 106.092 108.954 103.145C110.958 101.742 112.868 100.029 114.674 98.0108C115.276 97.3387 115.351 96.3465 114.858 95.5906C114.365 94.8351 113.426 94.5045 112.569 94.7847ZM69.6681 93.0658C54.5762 80.1285 47.2613 69.4894 44.9561 65.7825C47.079 64.2977 50.091 63.0022 52.3994 65.2438C53.0864 65.9111 54.1499 65.9948 54.9324 65.4469C54.9393 65.4421 54.9467 65.4369 54.9535 65.4318C55.7382 64.8672 55.9865 63.8302 55.5867 62.9499C53.8039 59.0236 58.0729 56.421 58.1971 56.3418C60.1168 59.7543 64.9609 68.1519 73.2386 81.1661C81.5551 94.2415 92.1129 98.2942 99.5057 99.3917C102.246 99.7987 104.754 99.8418 106.878 99.7194C103.247 102.315 99.255 103.716 94.9806 103.89C81.7945 104.425 69.8634 93.2476 69.7459 93.1357C69.7205 93.112 69.6948 93.0886 69.6681 93.0658ZM43.2545 49.9546C43.2015 49.8632 38.1909 41.0632 41.5749 33.4512C42.1255 33.5256 42.9237 33.6919 43.8006 33.9131C40.5683 42.9143 44.349 48.5828 44.5238 48.8376C44.9979 49.5267 45.8518 49.8472 46.6622 49.6398C49.7724 48.8433 52.4543 49.3728 54.6332 51.2127C55.2845 51.7628 55.8036 52.3576 56.1975 52.8859C55.9726 53.0252 55.7555 53.1682 55.5465 53.3145C52.5865 55.3871 51.4773 57.9512 51.2647 60.2153C48.7273 59.6524 45.8485 60.3632 42.9164 62.3443C41.727 59.979 40.2913 55.6909 43.0859 52.2022C43.6004 51.5596 43.6675 50.667 43.2545 49.9546Z" fill="#3F2D20"/>
</g>
<defs>
<clipPath id="clip0_108_388">
<rect width="100" height="100" fill="white" transform="translate(0 57.3577) rotate(-35)"/>
</clipPath>
</defs>
</svg>
