<svg width="25" height="25" viewBox="0 0 25 25" fill="none" xmlns="http://www.w3.org/2000/svg">
<path d="M19.7397 15.4866C19.2279 14.9537 18.6105 14.6688 17.9563 14.6688C17.3073 14.6688 16.6846 14.9484 16.1517 15.4813L14.4844 17.1434C14.3472 17.0695 14.21 17.0009 14.0781 16.9323C13.8881 16.8374 13.7087 16.7477 13.5557 16.6527C11.9939 15.6607 10.5746 14.368 9.21324 12.6954C8.55368 11.8617 8.11047 11.1599 7.7886 10.4476C8.22127 10.0519 8.62228 9.64033 9.01273 9.24459C9.16047 9.09685 9.30821 8.94384 9.45595 8.7961C10.564 7.68805 10.564 6.25286 9.45595 5.14482L8.01549 3.70435C7.85192 3.54078 7.68307 3.37194 7.52478 3.20309C7.2082 2.87596 6.87578 2.53826 6.53282 2.22168C6.021 1.71514 5.40894 1.44604 4.76521 1.44604C4.12149 1.44604 3.49887 1.71514 2.97123 2.22168C2.96595 2.22696 2.96595 2.22696 2.96068 2.23223L1.16669 4.04204C0.491313 4.71743 0.106134 5.54055 0.0217117 6.49558C-0.104922 8.03629 0.34885 9.47148 0.697094 10.4107C1.55187 12.7165 2.82877 14.8534 4.73356 17.1434C7.04463 19.903 9.8253 22.0821 13.0017 23.6176C14.2153 24.1927 15.8351 24.8734 17.645 24.9894C17.7558 24.9947 17.8718 25 17.9774 25C19.1962 25 20.2199 24.562 21.0219 23.6914C21.0271 23.6809 21.0377 23.6756 21.043 23.6651C21.3173 23.3326 21.6339 23.0319 21.9663 22.71C22.1932 22.4937 22.4254 22.2668 22.6523 22.0294C23.1746 21.4859 23.449 20.8527 23.449 20.2037C23.449 19.5494 23.1694 18.9216 22.6365 18.3939L19.7397 15.4866ZM21.6287 21.0427C21.6234 21.0427 21.6234 21.0479 21.6287 21.0427C21.4229 21.2643 21.2118 21.4648 20.9849 21.6864C20.642 22.0135 20.2937 22.3565 19.9666 22.7417C19.4337 23.3115 18.8058 23.5806 17.9826 23.5806C17.9035 23.5806 17.8191 23.5806 17.7399 23.5754C16.1728 23.4751 14.7165 22.863 13.6243 22.3407C10.6379 20.8949 8.01549 18.8424 5.83633 16.2411C4.03707 14.0725 2.83404 12.0675 2.0373 9.9147C1.5466 8.60087 1.3672 7.57725 1.44635 6.61166C1.49911 5.99432 1.73655 5.48251 2.17449 5.04456L3.97375 3.2453C4.2323 3.00259 4.50667 2.87068 4.77577 2.87068C5.10818 2.87068 5.37728 3.07118 5.54612 3.24003C5.5514 3.2453 5.55668 3.25058 5.56195 3.25586C5.88382 3.55661 6.18985 3.86792 6.51171 4.20034C6.67528 4.36918 6.84412 4.53803 7.01297 4.71215L8.45343 6.15261C9.01273 6.71191 9.01273 7.229 8.45343 7.7883C8.30042 7.94132 8.15268 8.09434 7.99966 8.24207C7.55644 8.69585 7.13433 9.11796 6.67528 9.52952C6.66473 9.54007 6.65417 9.54535 6.6489 9.5559C6.19512 10.0097 6.27955 10.4529 6.37452 10.7537C6.3798 10.7695 6.38508 10.7853 6.39035 10.8011C6.76498 11.7087 7.29262 12.5635 8.09464 13.5818L8.09991 13.5871C9.5562 15.3811 11.0916 16.7793 12.7854 17.8504C13.0017 17.9876 13.2233 18.0984 13.4344 18.204C13.6243 18.2989 13.8037 18.3886 13.9567 18.4836C13.9778 18.4942 13.999 18.51 14.0201 18.5205C14.1995 18.6102 14.3683 18.6525 14.5424 18.6525C14.9804 18.6525 15.2547 18.3781 15.3444 18.2884L17.149 16.4838C17.3284 16.3044 17.6133 16.0881 17.9457 16.0881C18.2729 16.0881 18.5419 16.2939 18.7055 16.4733C18.7108 16.4786 18.7108 16.4786 18.7161 16.4838L21.6234 19.3912C22.1669 19.9293 22.1669 20.4834 21.6287 21.0427Z" fill="black"/>
<path d="M13.4926 5.94683C14.875 6.17899 16.1308 6.83327 17.1333 7.83579C18.1358 8.83831 18.7848 10.0941 19.0223 11.4765C19.0803 11.8248 19.3811 12.0675 19.724 12.0675C19.7662 12.0675 19.8032 12.0622 19.8454 12.0569C20.2358 11.9936 20.4944 11.6243 20.4311 11.2338C20.1461 9.56118 19.3547 8.03629 18.1464 6.82799C16.9381 5.61969 15.4132 4.82823 13.7406 4.5433C13.3501 4.47999 12.986 4.73853 12.9174 5.12371C12.8489 5.50889 13.1021 5.88352 13.4926 5.94683Z" fill="black"/>
<path d="M24.9529 11.028C24.4833 8.27374 23.1853 5.76744 21.1909 3.77295C19.1964 1.77846 16.6901 0.480461 13.9358 0.0108597C13.5506 -0.0577338 13.1865 0.206087 13.1179 0.591266C13.0546 0.981721 13.3132 1.34579 13.7036 1.41439C16.1624 1.83122 18.4049 2.99731 20.1883 4.77547C21.9718 6.5589 23.1326 8.80138 23.5494 11.2602C23.6075 11.6084 23.9082 11.8511 24.2512 11.8511C24.2934 11.8511 24.3303 11.8459 24.3725 11.8406C24.7577 11.7826 25.0215 11.4132 24.9529 11.028Z" fill="black"/>
</svg>
