<svg width="25" height="25" viewBox="0 0 25 25" fill="none" xmlns="http://www.w3.org/2000/svg">
<path d="M13.0123 0.803906C14.2912 0.784374 15.5608 0.79453 16.8295 0.784374C16.8717 2.37109 17.5155 3.79922 18.5397 4.85703L18.5381 4.85547C19.6405 5.84844 21.0748 6.49219 22.6561 6.60156L22.678 6.60312V10.5375C21.1842 10.5 19.7795 10.1555 18.5131 9.56328L18.5772 9.58984C17.9647 9.29531 17.4467 8.99297 16.9545 8.65547L16.9951 8.68203C16.9858 11.5328 17.0045 14.3836 16.9756 17.2242C16.8951 18.6719 16.4139 19.9922 15.642 21.0945L15.6576 21.0703C14.367 22.9187 12.2764 24.132 9.89906 24.2039H9.88812C9.79202 24.2086 9.67874 24.2109 9.56468 24.2109C8.21312 24.2109 6.94984 23.8344 5.87328 23.1805L5.90453 23.1984C3.94515 22.0195 2.59359 20.0023 2.34359 17.6562L2.34046 17.6242C2.32093 17.1359 2.31156 16.6477 2.33109 16.1695C2.7139 12.4359 5.84203 9.54766 9.64437 9.54766C10.0717 9.54766 10.4905 9.58437 10.8975 9.65391L10.8537 9.64766C10.8733 11.0922 10.8147 12.5375 10.8147 13.982C10.4842 13.8625 10.103 13.793 9.70531 13.793C8.24593 13.793 7.00453 14.7258 6.54515 16.0281L6.53812 16.0516C6.43421 16.3852 6.37406 16.7687 6.37406 17.1656C6.37406 17.3266 6.38421 17.4859 6.40296 17.6422L6.4014 17.6234C6.66078 19.2219 8.03109 20.4281 9.68343 20.4281C9.73109 20.4281 9.77796 20.4273 9.82484 20.425H9.81781C10.9608 20.3906 11.953 19.7758 12.5139 18.8672L12.5217 18.8531C12.7303 18.5625 12.8733 18.2109 12.9209 17.8289L12.9217 17.818C13.0194 16.0703 12.9803 14.3328 12.9897 12.5852C12.9991 8.65078 12.9803 4.72578 13.0092 0.801562L13.0123 0.803906Z" fill="black"/>
</svg>
