<svg width="19" height="25" viewBox="0 0 19 25" fill="none" xmlns="http://www.w3.org/2000/svg">
<path d="M9.46406 0C4.33984 0 0 4.36484 0 9.53437C0 14.9484 5.03047 20.4852 8.41406 24.3766C8.42734 24.3922 8.97422 24.9992 9.64766 24.9992H9.70703C10.3812 24.9992 10.9242 24.3922 10.9375 24.3766C14.1125 20.7266 18.75 14.707 18.75 9.53437C18.75 4.36406 15.3648 0 9.46406 0ZM9.77734 23.3281C9.75 23.3555 9.71016 23.3859 9.675 23.4117C9.63906 23.3867 9.6 23.3555 9.57109 23.3281L9.1625 22.8578C5.95469 19.1781 1.56172 14.1383 1.56172 9.53359C1.56172 5.21172 5.18047 1.56094 9.46328 1.56094C14.7984 1.56094 17.1867 5.56484 17.1867 9.53359C17.1867 13.0289 14.6937 17.6711 9.77734 23.3281ZM9.40234 4.73047C6.81406 4.73047 4.71484 6.82891 4.71484 9.41797C4.71484 12.007 6.81406 14.1055 9.40234 14.1055C11.9906 14.1055 14.0898 12.0062 14.0898 9.41797C14.0898 6.82969 11.9914 4.73047 9.40234 4.73047ZM9.40234 12.543C7.67891 12.543 6.24141 11.107 6.24141 9.38359C6.24141 7.66016 7.64297 6.25859 9.36641 6.25859C11.0906 6.25859 12.4914 7.66016 12.4914 9.38359C12.4922 11.107 11.1266 12.543 9.40234 12.543Z" fill="black"/>
</svg>
